<?xml version="1.0" encoding="utf-8"?>
<!-- Generator: Adobe Illustrator 27.5.0, SVG Export Plug-In . SVG Version: 6.00 Build 0)  -->
<svg version="1.1" xmlns="http://www.w3.org/2000/svg" xmlns:xlink="http://www.w3.org/1999/xlink" x="0px" y="0px"
	 viewBox="0 0 3710 3710" style="enable-background:new 0 0 3710 3710;" xml:space="preserve">
<g id="Background">
	<g>
		<g>
			<rect style="fill:#FFFFFF;" width="3710" height="3710"/>
		</g>
	</g>
</g>
<g id="Illustration">
	<g>
		<linearGradient id="SVGID_1_" gradientUnits="userSpaceOnUse" x1="3597.1853" y1="4058.9553" x2="1125.1892" y2="988.8912">
			<stop  offset="0" style="stop-color:#DAE3FE"/>
			<stop  offset="1" style="stop-color:#E9EFFD"/>
		</linearGradient>
		<path style="fill:url(#SVGID_1_);" d="M2919.321,2846.712c-56.901,59.693-110.74,98.189-153.278,128.604
			c-500.019,357.514-1091.675,253.3-1217.419,227.85c-185.684-37.581-544.606-110.225-804.101-414.318
			c-392.594-460.066-331.461-1184.887-26.939-1663.352c55.702-87.519,349.935-573.272,947.964-651.171
			c361.92-47.144,783.803,47.94,1089.319,303.005C3396.172,1312.736,3350.517,2394.351,2919.321,2846.712z"/>
		<g>
			<path style="fill:#91B3FA;" d="M755.103,502.191c-40.005,256.049-211.96,1755.614,1166.224,2169.736
				c0,0,367.339-958.077-1130.714-2183.382C777.507,477.827,757.716,485.464,755.103,502.191z"/>
			<path style="opacity:0.4;fill:#FFFFFF;" d="M882.577,731.245c0,0,6.142,32.049,18.928,87.762
				c12.797,55.705,32.252,135.044,58.724,229.399c26.483,94.342,59.939,203.722,100.506,319.287
				c40.416,115.604,88.148,237.317,141.804,356.375c53.773,118.984,113.684,235.212,176.906,339.95
				c31.615,52.355,63.974,101.86,96.333,147.604c32.365,45.735,64.653,87.764,95.976,125.269
				c31.333,37.498,61.631,70.503,89.337,98.886c7.005,7.02,13.785,13.816,20.33,20.374c6.566,6.535,13.16,12.56,19.352,18.497
				c12.316,11.955,24.217,22.287,34.803,31.795c2.653,2.371,5.236,4.678,7.744,6.919c2.576,2.167,5.078,4.268,7.503,6.304
				c4.85,4.076,9.396,7.895,13.627,11.451c8.378,7.209,15.823,12.947,21.812,17.658c11.971,9.424,18.357,14.453,18.357,14.453
				l0.172,0.133c2.891,2.277,3.39,6.464,1.114,9.356c-2.276,2.892-6.464,3.39-9.354,1.113l-0.02-0.013
				c0,0-6.438-5.107-18.508-14.678c-6.036-4.785-13.539-10.615-21.979-17.927c-4.26-3.608-8.839-7.485-13.725-11.62
				c-2.441-2.069-4.961-4.2-7.555-6.396c-2.526-2.274-5.124-4.613-7.794-7.017c-10.654-9.642-22.631-20.12-35.016-32.225
				c-6.226-6.015-12.858-12.121-19.456-18.734c-6.576-6.64-13.388-13.516-20.426-20.621c-27.833-28.724-58.238-62.094-89.644-99.963
				c-31.397-37.872-63.721-80.269-96.087-126.368c-32.36-46.102-64.685-95.955-96.235-148.641
				c-63.09-105.396-122.752-222.2-176.218-341.671c-53.348-119.546-100.719-241.666-140.777-357.604
				c-40.206-115.903-73.304-225.55-99.475-320.107c-52.369-189.178-76.603-317.94-76.603-317.94
				c-0.291-1.53,0.714-3.007,2.245-3.299C880.809,728.713,882.284,729.715,882.577,731.245z"/>
		</g>
		<g>
			<path style="fill:#BDD0FB;" d="M481.284,1067.075c-18.031,202.857-74.749,1387.656,1027.486,1640.586
				c0,0,238.13-770.384-1000.354-1653.135C497.583,1046.803,482.462,1053.823,481.284,1067.075z"/>
			<path style="opacity:0.4;fill:#FFFFFF;" d="M593.389,1239.952c0,0,6.653,24.195,19.69,66.199
				c6.585,20.978,14.602,46.444,24.342,75.479c9.62,29.074,20.95,61.719,33.601,97.222c12.841,35.436,26.866,73.79,42.626,114
				c15.52,40.3,32.807,82.437,50.987,125.895c18.568,43.292,38.006,87.926,58.996,132.706c5.23,11.204,10.479,22.452,15.745,33.732
				c5.446,11.195,10.908,22.421,16.382,33.67c10.78,22.582,22.33,44.888,33.691,67.287c2.866,5.585,5.647,11.215,8.582,16.763
				l8.846,16.616c5.894,11.074,11.783,22.136,17.66,33.176c11.983,21.955,24.25,43.639,36.324,65.205
				c6.262,10.653,12.497,21.263,18.704,31.823c3.103,5.277,6.198,10.542,9.284,15.794l4.623,7.865l4.785,7.738
				c6.383,10.291,12.726,20.517,19.024,30.673c6.292,10.161,12.482,20.283,19.044,30.049c25.559,39.512,51.284,77.036,76.739,111.83
				c6.431,8.65,12.774,17.181,19.023,25.582c3.124,4.204,6.225,8.373,9.301,12.509c3.048,4.156,6.352,8.062,9.473,12.057
				c6.318,7.929,12.528,15.723,18.625,23.376c3.047,3.825,6.067,7.613,9.057,11.368c2.993,3.749,5.904,7.503,9.021,11.023
				c12.243,14.269,23.975,27.938,35.135,40.944c1.397,1.621,2.787,3.235,4.167,4.833c1.439,1.548,2.869,3.085,4.29,4.613
				c2.839,3.054,5.641,6.065,8.404,9.037c5.523,5.938,10.889,11.709,16.088,17.297c5.202,5.588,10.237,10.995,15.098,16.212
				c5.081,5.003,9.976,9.828,14.681,14.461c9.408,9.269,18.05,17.78,25.854,25.469c3.832,3.921,7.736,7.331,11.376,10.576
				c3.634,3.251,7.041,6.3,10.211,9.136c6.339,5.67,11.732,10.495,16.103,14.404c8.743,7.822,13.406,11.995,13.406,11.995
				l0.22,0.198c2.381,2.13,2.583,5.788,0.453,8.167c-2.13,2.381-5.785,2.585-8.167,0.455l-0.017-0.017
				c0,0-4.689-4.229-13.482-12.158c-4.397-3.966-9.818-8.856-16.192-14.607c-3.187-2.873-6.61-5.963-10.264-9.26
				c-3.658-3.291-7.582-6.751-11.43-10.718c-7.836-7.783-16.513-16.402-25.958-25.783c-4.722-4.689-9.637-9.571-14.735-14.636
				c-4.874-5.277-9.925-10.743-15.142-16.39c-5.212-5.653-10.592-11.486-16.13-17.489c-2.768-3.003-5.576-6.048-8.424-9.136
				c-1.424-1.542-2.856-3.096-4.3-4.661c-1.381-1.619-2.773-3.246-4.174-4.885c-11.174-13.13-22.923-26.938-35.182-41.343
				c-3.122-3.557-6.034-7.345-9.03-11.127c-2.99-3.785-6.01-7.607-9.06-11.466c-6.098-7.72-12.31-15.582-18.627-23.582
				c-3.123-4.028-6.427-7.969-9.473-12.161c-3.075-4.169-6.172-8.37-9.295-12.608c-6.243-8.469-12.582-17.068-19.009-25.786
				c-25.43-35.063-51.106-72.852-76.595-112.615c-6.545-9.831-12.715-20.015-18.988-30.235
				c-6.277-10.215-12.599-20.506-18.959-30.857l-4.77-7.782l-4.605-7.91c-3.075-5.28-6.157-10.574-9.247-15.882
				c-6.181-10.616-12.393-21.286-18.629-31.995c-12.019-21.676-24.229-43.475-36.152-65.535
				c-5.846-11.093-11.705-22.207-17.568-33.334l-8.798-16.692c-2.918-5.574-5.682-11.229-8.533-16.839
				c-11.294-22.498-22.777-44.902-33.486-67.575c-5.437-11.294-10.863-22.568-16.274-33.806
				c-5.229-11.325-10.442-22.616-15.635-33.865c-20.845-44.953-40.131-89.742-58.548-133.181
				c-18.029-43.602-35.166-85.872-50.54-126.293c-15.615-40.331-29.501-78.792-42.21-114.327
				c-12.52-35.602-23.728-68.335-33.239-97.485c-9.633-29.114-17.555-54.648-24.063-75.679
				c-12.876-42.103-19.458-66.431-19.458-66.431c-0.359-1.305,0.408-2.656,1.713-3.014
				C591.681,1237.879,593.03,1238.647,593.389,1239.952z"/>
		</g>
		<g>
			<g>
				
					<linearGradient id="SVGID_00000108309197973810409750000001200451304779502514_" gradientUnits="userSpaceOnUse" x1="1206.9221" y1="1829.1111" x2="3045.165" y2="1829.1111">
					<stop  offset="0" style="stop-color:#09005D"/>
					<stop  offset="1" style="stop-color:#1A0F91"/>
				</linearGradient>
				<path style="fill:url(#SVGID_00000108309197973810409750000001200451304779502514_);" d="M1369.706,461.918
					c-71.387,4.632-127.326,63.105-129.098,134.622c-10.842,437.349-46.006,1945.932-29.219,2480.528
					c1.779,56.636,47.18,102.093,103.813,103.946c280.11,9.167,1085.905,32.399,1544.07,13.178
					c95.428-4.004,171.315-81.302,173.296-176.794c9.521-459.054,30.526-1750.199-19.401-2341.674
					c-5.982-70.867-61.605-127.302-132.371-134.381C2575.744,510.826,1765.532,436.231,1369.706,461.918z"/>
				<path style="fill:#91B3FA;" d="M1468.341,617.32c-61.975,3.382-111.268,53.103-113.917,115.114
					c-15.299,358.186-63.554,1549.786-48.239,1990.415c2.238,64.404,52.999,116.479,117.332,120.244
					c264.878,15.501,944.266,49.679,1332.777,18.568c69.958-5.601,124.855-62.178,128.63-132.259
					c19.689-365.425,76.218-1474.972,61.537-1910.663c-2.343-69.505-56.183-126.268-125.449-132.487
					C2534.458,660.524,1798.485,599.306,1468.341,617.32z"/>
				<path style="opacity:0.5;fill:#3F67F9;" d="M1932.868,538.338L1932.868,538.338c0,13.42,10.459,24.487,23.859,25.189
					c66.161,3.465,252.535,13.268,335.827,18.101c16.423,0.953,29.313-13.81,26.198-29.962l-0.532-2.756
					c-2.126-11.022-11.267-19.318-22.445-20.342c-56.302-5.159-226.19-19.464-338.751-15.446
					C1943.503,513.604,1932.868,524.808,1932.868,538.338z"/>
			</g>
		</g>
		<g>
			<g>
				
					<linearGradient id="SVGID_00000175301977729808853140000013613835014614618507_" gradientUnits="userSpaceOnUse" x1="387.6204" y1="2946.592" x2="1004.2834" y2="1726.2936" gradientTransform="matrix(0.9848 -0.1735 0.1735 0.9848 -83.3804 158.6002)">
					<stop  offset="0" style="stop-color:#09005D"/>
					<stop  offset="1" style="stop-color:#1A0F91"/>
				</linearGradient>
				<path style="fill:url(#SVGID_00000175301977729808853140000013613835014614618507_);" d="M833.083,2643.923
					c-46.134-261.84,42.812-507.538,207.529-624.238c-54.473-14.935-110.966-17.748-167.724-8.37
					c-291.199,48.115-421.335,354.323-362.292,689.427c59.042,335.104,316.972,569.747,576.103,524.09
					c56.654-9.982,108.675-32.536,154.763-65.189C1046.779,3106.266,879.216,2905.762,833.083,2643.923z"/>
				<g>
					
						<linearGradient id="SVGID_00000111876878491573490240000005561270195760610232_" gradientUnits="userSpaceOnUse" x1="182.3978" y1="2773.9153" x2="761.0518" y2="1628.8322" gradientTransform="matrix(0.9848 -0.1735 0.1735 0.9848 -83.3804 158.6002)">
						<stop  offset="0" style="stop-color:#09005D"/>
						<stop  offset="1" style="stop-color:#1A0F91"/>
					</linearGradient>
					<path style="fill:url(#SVGID_00000111876878491573490240000005561270195760610232_);" d="M1040.612,2019.685
						c-54.473-14.935-110.966-17.748-167.724-8.37c-262.166,43.318-393.777,295.832-374.33,590.287
						c3.406,51.574,46.801,89.824,92.384,81.792l161.935-28.531c42.927-7.563,72.851-49.712,69.715-98.284
						C807.872,2328.585,894.372,2123.294,1040.612,2019.685z"/>
				</g>
				<g>
					
						<linearGradient id="SVGID_00000163066835169664636200000011995838594073133461_" gradientUnits="userSpaceOnUse" x1="488.9614" y1="2170.5906" x2="284.2022" y2="2643.811" gradientTransform="matrix(0.9848 -0.1735 0.1735 0.9848 -83.3804 158.6002)">
						<stop  offset="0" style="stop-color:#09005D"/>
						<stop  offset="1" style="stop-color:#1A0F91"/>
					</linearGradient>
					<path style="fill:url(#SVGID_00000163066835169664636200000011995838594073133461_);" d="M1040.612,2019.685
						c-54.473-14.935-110.966-17.748-167.724-8.37c-262.166,43.318-393.777,295.832-374.33,590.287
						c3.406,51.574,46.801,89.824,92.384,81.792l161.935-28.531c42.927-7.563,72.851-49.712,69.715-98.284
						C807.872,2328.585,894.372,2123.294,1040.612,2019.685z"/>
				</g>
				
					<linearGradient id="SVGID_00000000180628975404135660000006460215219919243436_" gradientUnits="userSpaceOnUse" x1="375.852" y1="2357.665" x2="212.9374" y2="2654.0791" gradientTransform="matrix(0.9848 -0.1735 0.1735 0.9848 -83.3804 158.6002)">
					<stop  offset="0" style="stop-color:#09005D"/>
					<stop  offset="1" style="stop-color:#1A0F91"/>
				</linearGradient>
				<path style="fill:url(#SVGID_00000000180628975404135660000006460215219919243436_);" d="M731.733,2514.158
					c5.498,31.202-23.198,62.338-64.093,69.543c-40.895,7.205-78.504-12.248-84.002-43.45
					c-5.498-31.202,23.198-62.338,64.093-69.543C688.626,2463.503,726.235,2482.956,731.733,2514.158z"/>
				<g>
					<path style="fill:#91B3FA;" d="M674.295,2532.104c-0.712-5.954,7.048-8.911,10.457-3.978
						c32.962,47.685,123.309,170.017,214.766,219.966c148.913,81.328,287.083,249.038,252.099,372.551
						C1151.617,3120.643,751.855,3180.787,674.295,2532.104z"/>
					<path style="opacity:0.43;fill:#FFFFFF;" d="M713.168,2602.984l2.178,3.955l2.391,4.142l4.881,8.245l9.897,16.425
						c6.681,10.899,13.498,21.72,20.412,32.471c13.767,21.542,27.853,42.881,42.392,63.898
						c29.196,41.945,59.243,83.305,91.577,122.833c16.257,19.677,32.481,39.383,49.559,58.34
						c17.062,18.967,34.59,37.51,52.765,55.39c36.2,35.911,75.099,69.134,117.317,97.926c0.775,0.516,0.982,1.56,0.466,2.332
						c-0.496,0.742-1.498,0.953-2.26,0.509c-22.094-13.14-43.124-28.03-63.507-43.732c-20.222-15.919-39.494-32.99-58.297-50.545
						c-37.129-35.622-71.726-73.805-103.948-113.832c-16.142-19.992-31.614-40.503-46.787-61.218
						c-15.166-20.721-29.87-41.777-43.893-63.28c-14.066-21.467-27.846-43.121-40.963-65.179
						c-6.527-11.047-12.949-22.153-19.233-33.335c-3.121-5.607-6.251-11.208-9.28-16.868l-4.477-8.528l-2.194-4.293
						c-0.719-1.491-1.422-2.772-2.191-4.599c-0.355-0.844,0.043-1.817,0.887-2.171c0.788-0.332,1.685-0.006,2.092,0.723
						L713.168,2602.984z"/>
				</g>
				<g>
					<path style="fill:#7D97F4;" d="M1042.839,2663.492c1.061-3.991,6.78-3.906,7.705,0.118
						c8.943,38.91,35.588,140.202,81.384,195.463c74.566,89.976,120.25,232.489,66.4,302.608
						C1198.328,3161.682,927.21,3098.323,1042.839,2663.492z"/>
					<path style="opacity:0.43;fill:#FFFFFF;" d="M1050.18,2718.78l0.421,2.992l0.512,3.249l1.094,6.501l2.263,13.001
						c1.574,8.659,3.252,17.298,5.01,25.921c3.446,17.255,7.24,34.436,11.188,51.57c8.038,34.235,17.049,68.224,27.511,101.737
						c10.512,33.496,22.337,66.562,36.246,98.741c13.971,32.136,29.896,63.455,49.247,92.822c0.516,0.775,0.309,1.82-0.466,2.336
						c-0.729,0.486-1.711,0.315-2.253-0.358c-11.014-13.905-20.797-28.759-30.024-43.936c-9.086-15.268-17.17-31.098-24.768-47.145
						c-14.966-32.208-27.344-65.547-37.77-99.418c-10.423-33.877-19.098-68.26-26.099-102.956
						c-3.531-17.338-6.612-34.767-9.267-52.256c-1.288-8.751-2.493-17.512-3.594-26.289l-1.524-13.182l-0.618-6.616l-0.273-3.321
						c-0.069-1.153-0.184-2.109-0.194-3.591c-0.01-0.917,0.726-1.662,1.639-1.672c0.841-0.007,1.541,0.614,1.656,1.426
						L1050.18,2718.78z"/>
				</g>
				
					<linearGradient id="SVGID_00000102532000367762981390000002549194323918228356_" gradientUnits="userSpaceOnUse" x1="-519.9203" y1="-542.0721" x2="117.7186" y2="-1803.8793" gradientTransform="matrix(-0.9848 0.1735 -0.1735 -0.9848 655.3071 1763.0226)">
					<stop  offset="0" style="stop-color:#4F52FF"/>
					<stop  offset="1" style="stop-color:#4042E2"/>
				</linearGradient>
				<path style="fill:url(#SVGID_00000102532000367762981390000002549194323918228356_);" d="M1286.364,2564.058
					c46.134,261.84-54.597,545.94-219.314,662.64c79.164-12.352,122.855-20.05,179.509-30.032
					c259.131-45.656,421.335-354.324,362.292-689.427s-316.973-569.747-576.103-524.09c-56.654,9.982-179.761,20.501-241.519,42.553
					C1047.369,2053.985,1240.23,2302.219,1286.364,2564.058z"/>
				<g>
					<path style="fill:#7D97F4;" d="M782.151,2057.609L782.151,2057.609c0.739-0.13,1.472-0.255,2.214-0.377
						c49.13-8.055,99.373-1.53,149.336,19.393c49.097,20.56,95.944,54.084,139.239,99.641
						c43.898,46.192,81.904,102.395,112.961,167.049c32.368,67.383,55.744,141.072,69.478,219.021
						c13.874,78.746,18.029,156.576,12.349,231.327c-5.518,72.612-20.042,139.172-43.169,197.833
						c-23.034,58.425-53.543,106.258-90.679,142.17c-38.051,36.797-81.926,59.785-130.405,68.327
						c-48.967,8.628-100.005,2.217-151.696-19.052c-50.89-20.94-99.789-55.083-145.339-101.48
						c-46.292-47.153-86.279-104.083-118.851-169.207c-34.119-68.219-58.34-142.094-71.992-219.573
						c-13.472-76.463-15.702-153.582-6.628-229.213c8.531-71.1,26.546-137.522,53.547-197.422
						c25.777-57.187,59.387-106.389,97.197-142.287C697.962,2087.442,739.156,2065.186,782.151,2057.609L782.151,2057.609z
						 M776.969,2028.2c-194.361,34.253-345.784,339.271-287.669,669.113c58.365,331.257,300.357,572.674,519.357,534.088
						s344.523-340.767,286.159-672.023c-58.365-331.257-295.905-567.581-515.351-531.602
						C778.628,2027.912,777.803,2028.053,776.969,2028.2L776.969,2028.2z"/>
				</g>
				
					<linearGradient id="SVGID_00000115480450044139343140000006465393587385909944_" gradientUnits="userSpaceOnUse" x1="347.4983" y1="2388.3445" x2="433.7794" y2="2220.3232" gradientTransform="matrix(0.9848 -0.1735 0.1735 0.9848 -83.3804 158.6002)">
					<stop  offset="0" style="stop-color:#09005D"/>
					<stop  offset="1" style="stop-color:#1A0F91"/>
				</linearGradient>
				<path style="fill:url(#SVGID_00000115480450044139343140000006465393587385909944_);" d="M777.837,2338.465
					c5.498,31.202-23.198,62.338-64.093,69.543c-40.895,7.205-78.504-12.248-84.002-43.45
					c-5.498-31.202,23.198-62.338,64.093-69.543C734.73,2287.81,772.339,2307.263,777.837,2338.465z"/>
				
					<linearGradient id="SVGID_00000064342945351163591990000007734184153413319586_" gradientUnits="userSpaceOnUse" x1="455.4266" y1="2238.45" x2="534.5363" y2="2084.3943" gradientTransform="matrix(0.9848 -0.1735 0.1735 0.9848 -83.3804 158.6002)">
					<stop  offset="0" style="stop-color:#09005D"/>
					<stop  offset="1" style="stop-color:#1A0F91"/>
				</linearGradient>
				<path style="fill:url(#SVGID_00000064342945351163591990000007734184153413319586_);" d="M855.576,2180.339
					c4.82,27.355-24.425,55.372-65.32,62.578c-40.895,7.205-77.954-9.129-82.774-36.485c-4.82-27.355,24.425-55.372,65.32-62.578
					C813.698,2136.649,850.757,2152.984,855.576,2180.339z"/>
			</g>
			<g>
				
					<linearGradient id="SVGID_00000015339094694534247940000012602296763274860465_" gradientUnits="userSpaceOnUse" x1="-607.0964" y1="2442.9526" x2="40.1976" y2="2442.9526" gradientTransform="matrix(-0.9866 0.1629 0.1629 0.9866 678.954 183.7706)">
					<stop  offset="0" style="stop-color:#09005D"/>
					<stop  offset="1" style="stop-color:#1A0F91"/>
				</linearGradient>
				<path style="fill:url(#SVGID_00000015339094694534247940000012602296763274860465_);" d="M1200.227,3014.985l484.94-79.127
					c40.489-6.671,56.689-41.209,49.795-82.885l-115.042-695.515c-6.771-40.936-44.015-69.183-83.943-63.663l-494.68,63.798
					c-42.154,5.827-70.592,46.826-62.319,89.843l135.817,706.188C1122.623,2994.321,1160.505,3021.53,1200.227,3014.985z"/>
				
					<linearGradient id="SVGID_00000049899934845075070580000017206403210988297394_" gradientUnits="userSpaceOnUse" x1="2237.2427" y1="1046.2494" x2="1907.4614" y2="1625.8646">
					<stop  offset="0" style="stop-color:#4F52FF"/>
					<stop  offset="1" style="stop-color:#4042E2"/>
				</linearGradient>
				<path style="fill:url(#SVGID_00000049899934845075070580000017206403210988297394_);" d="M1687.879,2910.994
					c30.631-5.047,51.249-35.167,45.96-67.143l-112.155-678.08c-5.245-31.709-33.243-53.255-63.741-49.05l-474.682,60.855
					c-0.482,0.066-0.964,0.139-1.442,0.218c-15.096,2.487-28.189,11.044-36.868,24.095c-8.674,13.044-11.79,28.881-8.774,44.594
					l132.157,688.527c6.048,31.512,34.541,52.281,64.866,47.285L1687.879,2910.994z"/>
				<path style="fill:#91B3FA;" d="M1687.1,2863.016c6.027-0.993,10.096-6.849,9.069-13.052l-112.158-678.078
					c-1.052-6.357-6.315-10.35-12.516-9.492l-481.677,62.005c-3.035,0.5-5.469,2.079-7.233,4.691
					c-1.76,2.606-2.345,5.518-1.742,8.655l132.411,688.484c1.215,6.317,6.571,10.165,12.737,9.149L1687.1,2863.016z"/>
				
					<linearGradient id="SVGID_00000168118692807169996730000017221018649037696949_" gradientUnits="userSpaceOnUse" x1="-2723.4072" y1="43.2102" x2="-2790.0469" y2="124.9097" gradientTransform="matrix(-0.6824 -0.731 -0.731 0.6824 -220.2352 785.5939)">
					<stop  offset="0" style="stop-color:#FF928E"/>
					<stop  offset="1" style="stop-color:#FE7062"/>
				</linearGradient>
				<path style="fill:url(#SVGID_00000168118692807169996730000017221018649037696949_);" d="M1584.737,2810.982
					c-10.796,10.352-11.294,27.821-1.113,39.019c10.181,11.198,27.186,11.883,37.982,1.531
					c10.796-10.352,11.294-27.821,1.113-39.019C1612.538,2801.315,1595.533,2800.63,1584.737,2810.982z"/>
				
					<linearGradient id="SVGID_00000046321138114346999390000008430488836488148903_" gradientUnits="userSpaceOnUse" x1="-2669.7058" y1="124.5016" x2="-2736.3455" y2="206.201" gradientTransform="matrix(-0.6824 -0.731 -0.731 0.6824 -220.2352 785.5939)">
					<stop  offset="0" style="stop-color:#FF928E"/>
					<stop  offset="1" style="stop-color:#FE7062"/>
				</linearGradient>
				<path style="fill:url(#SVGID_00000046321138114346999390000008430488836488148903_);" d="M1488.668,2827.199
					c-10.796,10.352-11.294,27.821-1.113,39.019c10.181,11.198,27.186,11.883,37.982,1.531
					c10.796-10.352,11.294-27.821,1.113-39.019C1516.468,2817.533,1499.463,2816.848,1488.668,2827.199z"/>
				
					<ellipse transform="matrix(0.9848 -0.1735 0.1735 0.9848 -475.4263 288.2274)" style="opacity:0.61;fill:#FFFFFF;" cx="1411.032" cy="2863.692" rx="26.845" ry="27.635"/>
				<path style="opacity:0.61;fill:#FFFFFF;" d="M1296.528,2859.635c-10.796,10.352-11.294,27.821-1.113,39.019
					c10.181,11.197,27.186,11.883,37.982,1.531c10.796-10.352,11.294-27.821,1.113-39.019
					C1324.329,2849.968,1307.324,2849.283,1296.528,2859.635z"/>
				<path style="opacity:0.61;fill:#FFFFFF;" d="M1272.139,2229.423c-7.06,6.769-7.385,18.193-0.728,25.515
					s17.777,7.771,24.837,1.001c7.06-6.769,7.385-18.193,0.728-25.515C1290.319,2223.102,1279.199,2222.654,1272.139,2229.423z"/>
				<path style="opacity:0.61;fill:#FFFFFF;" d="M1209.317,2240.028c-7.06,6.769-7.385,18.193-0.728,25.515
					c6.658,7.322,17.777,7.771,24.837,1.001c7.06-6.769,7.385-18.193,0.728-25.515S1216.377,2233.259,1209.317,2240.028z"/>
				
					<ellipse transform="matrix(0.9848 -0.1734 0.1734 0.9848 -375.0472 235.2165)" style="opacity:0.61;fill:#FFFFFF;" cx="1158.55" cy="2263.891" rx="17.554" ry="18.071"/>
			</g>
			<path style="fill:#FFFFFF;" d="M1597.298,2502.753c4.948,25.467,4.921,51.958-0.111,77.496
				c-5.013,25.549-15.031,50.12-29.315,72.014c-14.293,21.876-32.813,41.156-54.554,56.113
				c-21.665,15.04-46.438,25.845-72.406,31.506c-25.954,5.649-53.254,6.289-79.706,1.433c-26.43-4.882-52.009-14.978-74.658-29.791
				c-22.649-14.797-42.376-34.225-57.539-56.832c-7.561-11.31-14.06-23.363-19.216-35.975c-5.157-12.608-9.061-25.72-11.677-39.057
				c-2.526-13.354-3.774-26.978-3.67-40.599c0.101-13.624,1.657-27.229,4.475-40.539c5.679-26.622,16.775-51.989,32.305-74.142
				c15.524-22.168,35.522-41.045,58.246-55.397c22.755-14.335,48.338-23.885,74.533-28.283c26.212-4.393,53.226-3.564,78.928,2.35
				c25.742,5.809,50.099,16.828,71.497,31.828c21.396,15.02,39.825,34.11,53.972,55.968
				C1582.563,2452.686,1592.431,2477.271,1597.298,2502.753z M1570.686,2507.88c-2.173-11.021-5.447-21.804-9.794-32.151
				c-4.347-10.349-9.863-20.209-16.288-29.46c-12.892-18.481-29.765-34.326-49.186-46.303
				c-19.423-11.991-41.377-20.006-63.993-23.732c-22.65-3.689-45.964-2.85-68.285,2.09c-44.722,9.83-84.303,36.853-108.722,73.135
				c-12.277,18.065-20.921,38.239-25.319,59.106c-4.408,20.866-4.616,42.401-0.568,63.236c3.983,20.848,12.177,40.764,24.022,58.499
				c11.836,17.739,27.356,33.257,45.466,45.468c36.151,24.613,82.939,34.995,128.112,27.506
				c22.558-3.707,44.515-11.589,64.173-23.43c19.613-11.862,37.017-27.46,50.595-45.809c13.582-18.335,23.359-39.315,28.462-61.263
				c2.528-10.976,3.986-22.179,4.177-33.402C1573.73,2530.147,1572.764,2518.919,1570.686,2507.88z"/>
			<path style="fill:#FFFFFF;" d="M1436.082,2434.256c-22.656,4.365-40.544,20.134-50.063,41.165
				c-16.651-15.989-39.118-23.983-61.774-19.618c-39.447,7.6-64.494,49.737-55.944,94.115c0.692,3.589,2.015,7.345,3.856,11.215
				l15.488-2.984l29.192-47.651c1.753-2.861,4.823-4.646,8.185-4.767c3.356-0.113,6.544,1.468,8.486,4.207l42.628,60.095
				l19.852-61.018c1.184-3.64,4.342-6.276,8.137-6.807c3.792-0.523,7.549,1.166,9.677,4.349l18.48,27.67l35.006-6.744
				c5.419-1.044,10.659,2.503,11.703,7.922c1.044,5.419-2.503,10.659-7.922,11.704l-41.523,8c-3.948,0.761-7.967-0.92-10.202-4.263
				l-10.723-16.059l-19.63,60.338c-1.128,3.467-4.05,6.035-7.61,6.72c-0.128,0.025-0.258,0.046-0.386,0.066
				c-3.735,0.569-7.471-1.016-9.656-4.098l-45.37-63.961l-23.583,38.497c-1.467,2.395-3.874,4.061-6.63,4.592l-11.929,2.298
				c27.875,35.194,85.883,74.178,124.503,89.61c9.78,3.908,20.955,1.244,27.952-6.627c32.604-36.682,94.232-122.318,86.708-161.372
				C1514.438,2456.471,1475.529,2426.656,1436.082,2434.256z"/>
		</g>
		<g>
			<path style="fill:#FFFFFF;" d="M1884.05,797.03l-4.885,8.795l-0.013,0.023c-0.276,0.496-0.9,0.677-1.396,0.401
				c-0.496-0.276-0.677-0.903-0.401-1.399c0,0,0.006-0.007,0.006-0.01l5.006-8.785c0.266-0.465,0.861-0.628,1.324-0.363
				c0.463,0.264,0.627,0.851,0.371,1.316L1884.05,797.03z"/>
			<path style="fill:#FFFFFF;" d="M1868.68,826.833l-4.103,9.185l-0.013,0.029c-0.276,0.614-0.995,0.89-1.61,0.614
				c-0.614-0.273-0.89-0.992-0.614-1.606c0-0.003,0.003-0.01,0.006-0.013l4.231-9.194c0.266-0.581,0.956-0.838,1.537-0.568
				c0.578,0.266,0.834,0.946,0.575,1.524L1868.68,826.833z"/>
			<path style="fill:#FFFFFF;" d="M1855.915,857.832l-3.324,9.49l-0.013,0.033c-0.256,0.732-1.058,1.12-1.794,0.864
				c-0.733-0.256-1.117-1.061-0.861-1.794c0-0.003,0.003-0.013,0.003-0.013l3.456-9.52c0.253-0.7,1.028-1.061,1.728-0.808
				c0.696,0.253,1.058,1.018,0.815,1.715L1855.915,857.832z"/>
			<path style="fill:#FFFFFF;" d="M1845.725,889.761l-2.562,9.723l-0.01,0.033c-0.223,0.854-1.097,1.363-1.951,1.136
				c-0.851-0.223-1.36-1.097-1.137-1.948c0.003-0.003,0.007-0.016,0.007-0.02l2.69-9.763c0.227-0.818,1.074-1.301,1.892-1.074
				c0.815,0.223,1.294,1.061,1.081,1.876L1845.725,889.761z"/>
			<path style="fill:#FFFFFF;" d="M1838.048,922.377l-1.826,9.884l-0.007,0.039c-0.181,0.969-1.11,1.61-2.083,1.432
				c-0.969-0.181-1.61-1.11-1.429-2.083c0-0.003,0.003-0.016,0.003-0.02l1.951-9.937c0.184-0.94,1.094-1.547,2.03-1.363
				c0.93,0.181,1.537,1.078,1.367,2.007L1838.048,922.377z"/>
			<path style="fill:#FFFFFF;" d="M1832.789,955.463l-1.12,9.989l-0.003,0.039c-0.121,1.084-1.1,1.866-2.184,1.744
				c-1.084-0.122-1.863-1.101-1.741-2.185c0-0.003,0.003-0.016,0.003-0.02l1.242-10.055c0.131-1.051,1.087-1.8,2.139-1.669
				c1.045,0.128,1.787,1.074,1.672,2.116L1832.789,955.463z"/>
			<path style="fill:#FFFFFF;" d="M1829.852,988.831l-0.447,10.026v0.039c-0.053,1.196-1.064,2.122-2.26,2.07
				c-1.192-0.056-2.119-1.064-2.066-2.26c0-0.003,0.003-0.02,0.003-0.023l0.562-10.101c0.063-1.163,1.058-2.053,2.221-1.987
				c1.153,0.062,2.04,1.045,1.987,2.194V988.831z"/>
			<path style="fill:#FFFFFF;" d="M1829.129,1022.288l0.2,10.048v0.046c0.026,1.298-1.008,2.372-2.306,2.398
				c-1.301,0.026-2.375-1.005-2.401-2.306c0-0.003,0-0.02,0-0.026l-0.089-10.137c-0.01-1.268,1.009-2.306,2.276-2.316
				c1.261-0.013,2.29,0.992,2.316,2.247L1829.129,1022.288z"/>
			<path style="fill:#FFFFFF;" d="M1830.526,1055.748l0.818,10.029l0.007,0.046c0.112,1.399-0.93,2.628-2.329,2.743
				c-1.399,0.115-2.628-0.926-2.743-2.329c0-0.003,0-0.023,0-0.026l-0.716-10.131c-0.095-1.37,0.936-2.556,2.306-2.654
				c1.36-0.095,2.539,0.923,2.651,2.276L1830.526,1055.748z"/>
			<path style="fill:#FFFFFF;" d="M1833.958,1089.07l1.416,9.943l0.006,0.046c0.21,1.495-0.828,2.878-2.322,3.091
				s-2.878-0.828-3.088-2.319c-0.003-0.007-0.007-0.026-0.007-0.033l-1.314-10.052c-0.194-1.465,0.841-2.809,2.306-2.999
				c1.452-0.191,2.789,0.824,2.996,2.273L1833.958,1089.07z"/>
			<path style="fill:#FFFFFF;" d="M1839.352,1122.103l1.994,9.852l0.01,0.049c0.322,1.583-0.703,3.124-2.283,3.446
				c-1.583,0.319-3.124-0.703-3.446-2.286c0-0.003-0.003-0.026-0.003-0.03l-1.902-9.973c-0.299-1.554,0.723-3.055,2.276-3.351
				c1.544-0.296,3.032,0.709,3.344,2.244L1839.352,1122.103z"/>
			<path style="fill:#FFFFFF;" d="M1846.651,1154.771l2.533,9.707l0.013,0.049c0.434,1.662-0.562,3.36-2.224,3.794
				c-1.662,0.434-3.364-0.562-3.797-2.224c0-0.007-0.007-0.03-0.01-0.033l-2.447-9.828c-0.407-1.636,0.588-3.295,2.227-3.702
				c1.623-0.404,3.269,0.575,3.692,2.191L1846.651,1154.771z"/>
			<path style="fill:#FFFFFF;" d="M1855.681,1186.993l3.025,9.579l0.016,0.046c0.549,1.738-0.417,3.59-2.155,4.142
				c-1.738,0.549-3.594-0.417-4.142-2.155c0-0.007-0.007-0.03-0.01-0.036l-2.943-9.7c-0.522-1.715,0.447-3.528,2.161-4.047
				c1.702-0.516,3.498,0.434,4.034,2.125L1855.681,1186.993z"/>
			<path style="fill:#FFFFFF;" d="M1866.301,1218.741l3.472,9.424l0.016,0.043c0.667,1.81-0.256,3.817-2.066,4.484
				c-1.807,0.667-3.814-0.26-4.481-2.066c-0.003-0.006-0.013-0.033-0.013-0.039l-3.4-9.549c-0.637-1.787,0.296-3.751,2.083-4.385
				c1.771-0.634,3.719,0.282,4.369,2.043L1866.301,1218.741z"/>
			<path style="fill:#FFFFFF;" d="M1878.373,1249.968l3.889,9.26l0.016,0.043c0.785,1.876-0.095,4.031-1.968,4.819
				c-1.876,0.785-4.031-0.095-4.819-1.971c0-0.007-0.013-0.03-0.013-0.036l-3.82-9.392c-0.752-1.853,0.138-3.968,1.994-4.72
				c1.84-0.749,3.935,0.125,4.701,1.951L1878.373,1249.968z"/>
			<path style="fill:#FFFFFF;" d="M1891.779,1280.649l4.26,9.099l0.02,0.039c0.907,1.935,0.072,4.238-1.863,5.144
				c-1.935,0.907-4.238,0.072-5.144-1.863c-0.003-0.007-0.016-0.033-0.02-0.039l-4.195-9.224c-0.874-1.918-0.026-4.178,1.892-5.049
				c1.902-0.867,4.142-0.036,5.029,1.849L1891.779,1280.649z"/>
			<path style="fill:#FFFFFF;" d="M1906.387,1310.785l4.599,8.932l0.02,0.039c1.028,1.994,0.243,4.441-1.748,5.466
				c-1.994,1.025-4.441,0.243-5.466-1.751c-0.003-0.007-0.02-0.033-0.023-0.039l-4.536-9.063c-0.989-1.978-0.191-4.379,1.787-5.371
				c1.961-0.982,4.346-0.2,5.348,1.744L1906.387,1310.785z"/>
			<path style="fill:#FFFFFF;" d="M1922.082,1340.375l4.901,8.767l0.02,0.036c1.143,2.047,0.411,4.635-1.636,5.778
				c-2.05,1.146-4.635,0.414-5.781-1.636c-0.003-0.006-0.02-0.033-0.023-0.039l-4.839-8.896c-1.107-2.033-0.355-4.579,1.679-5.683
				c2.017-1.1,4.54-0.368,5.657,1.633L1922.082,1340.375z"/>
			<path style="fill:#FFFFFF;" d="M1938.747,1369.43l5.174,8.623l0.02,0.033c1.261,2.102,0.581,4.826-1.521,6.087
				c-2.099,1.261-4.826,0.581-6.087-1.521c-0.003-0.006-0.02-0.033-0.026-0.043l-5.118-8.748c-1.219-2.086-0.519-4.77,1.57-5.992
				c2.073-1.212,4.734-0.529,5.965,1.524L1938.747,1369.43z"/>
			<path style="fill:#FFFFFF;" d="M1956.281,1397.992l5.417,8.482l0.02,0.03c1.376,2.155,0.746,5.013-1.406,6.389
				c-2.155,1.376-5.013,0.746-6.389-1.406c-0.007-0.01-0.023-0.036-0.03-0.046l-5.361-8.603c-1.334-2.142-0.68-4.96,1.462-6.294
				c2.125-1.327,4.918-0.69,6.264,1.416L1956.281,1397.992z"/>
			<path style="fill:#FFFFFF;" d="M1974.585,1426.081l5.634,8.347l0.016,0.03c1.488,2.204,0.907,5.197-1.297,6.685
				c-2.204,1.488-5.197,0.907-6.685-1.298c-0.007-0.01-0.026-0.039-0.03-0.046l-5.575-8.465c-1.445-2.194-0.838-5.147,1.357-6.593
				c2.178-1.436,5.105-0.848,6.56,1.311L1974.585,1426.081z"/>
			<path style="fill:#FFFFFF;" d="M1993.575,1453.744l5.811,8.215l0.02,0.023c1.597,2.257,1.061,5.381-1.196,6.977
				s-5.381,1.064-6.977-1.192c-0.003-0.01-0.026-0.039-0.033-0.046l-5.755-8.331c-1.554-2.25-0.989-5.331,1.258-6.885
				c2.234-1.541,5.289-0.999,6.852,1.209L1993.575,1453.744z"/>
		</g>
		<g>
			<path style="fill:#FFFFFF;" d="M1345.769,1130.972l6.277,7.884c0.851,1.054,0.683,2.598-0.371,3.449
				c-1.055,0.851-2.598,0.683-3.449-0.371l-0.02-0.026l-6.235-7.953c-0.825-1.051-0.641-2.566,0.411-3.39
				C1343.427,1129.747,1344.944,1129.937,1345.769,1130.972z"/>
			<path style="fill:#FFFFFF;" d="M1366.877,1157.097l6.438,7.756c0.917,1.091,0.775,2.72-0.319,3.636
				c-1.091,0.92-2.72,0.778-3.636-0.315l-0.023-0.026l-6.396-7.828c-0.89-1.087-0.729-2.69,0.361-3.577
				C1364.384,1155.855,1365.987,1156.026,1366.877,1157.097z"/>
			<path style="fill:#FFFFFF;" d="M1388.512,1182.788l6.593,7.621c0.985,1.127,0.87,2.842-0.256,3.827s-2.838,0.874-3.824-0.253
				l-0.026-0.03l-6.553-7.697c-0.956-1.123-0.821-2.809,0.302-3.768C1385.868,1181.54,1387.553,1181.681,1388.512,1182.788z"/>
			<path style="fill:#FFFFFF;" d="M1410.662,1208.036l6.741,7.486l0.013,0.013c1.048,1.166,0.956,2.96-0.21,4.011
				s-2.963,0.956-4.011-0.21l-0.016-0.016l-6.708-7.562c-1.025-1.16-0.92-2.93,0.237-3.955c1.153-1.022,2.914-0.923,3.942,0.22
				L1410.662,1208.036z"/>
			<path style="fill:#FFFFFF;" d="M1433.311,1232.83l6.892,7.345l0.01,0.013c1.124,1.199,1.061,3.078-0.135,4.198
				c-1.196,1.123-3.075,1.064-4.198-0.135l-0.013-0.016l-6.859-7.427c-1.1-1.189-1.025-3.042,0.164-4.142
				c1.182-1.091,3.025-1.025,4.126,0.148L1433.311,1232.83z"/>
			<path style="fill:#FFFFFF;" d="M1456.45,1257.158l7.04,7.21l0.013,0.013c1.196,1.225,1.169,3.186-0.053,4.382
				c-1.225,1.196-3.19,1.173-4.385-0.053l-0.016-0.016l-7.007-7.289c-1.169-1.219-1.133-3.157,0.085-4.326
				c1.212-1.166,3.137-1.133,4.31,0.066L1456.45,1257.158z"/>
			<path style="fill:#FFFFFF;" d="M1480.075,1281.02l7.177,7.066l0.013,0.013c1.271,1.252,1.288,3.295,0.039,4.566
				c-1.251,1.271-3.295,1.288-4.566,0.036l-0.02-0.016l-7.151-7.148c-1.245-1.245-1.245-3.265,0-4.51
				c1.238-1.242,3.245-1.248,4.49-0.02L1480.075,1281.02z"/>
			<path style="fill:#FFFFFF;" d="M1504.167,1304.402l7.319,6.918l0.016,0.016c1.347,1.271,1.406,3.397,0.131,4.743
				c-1.275,1.35-3.397,1.409-4.747,0.135l-0.017-0.016l-7.296-7.003c-1.321-1.271-1.363-3.37-0.095-4.694
				c1.265-1.314,3.351-1.363,4.674-0.115L1504.167,1304.402z"/>
			<path style="fill:#FFFFFF;" d="M1528.722,1327.294l7.457,6.773l0.013,0.013c1.426,1.294,1.531,3.498,0.236,4.924
				c-1.294,1.426-3.498,1.531-4.924,0.236l-0.02-0.016l-7.434-6.859c-1.399-1.291-1.488-3.472-0.197-4.872
				c1.288-1.393,3.452-1.485,4.852-0.214L1528.722,1327.294z"/>
			<path style="fill:#FFFFFF;" d="M1553.726,1349.694l7.588,6.619l0.016,0.016c1.505,1.311,1.659,3.597,0.348,5.101
				c-1.314,1.504-3.597,1.659-5.101,0.345l-0.023-0.016l-7.568-6.708c-1.478-1.311-1.613-3.571-0.306-5.049
				c1.304-1.472,3.551-1.616,5.029-0.325L1553.726,1349.694z"/>
			<path style="fill:#FFFFFF;" d="M1579.171,1371.585l7.716,6.468l0.02,0.016c1.583,1.327,1.79,3.689,0.463,5.276
				c-1.327,1.583-3.692,1.793-5.276,0.463l-0.023-0.016l-7.7-6.557c-1.56-1.327-1.748-3.666-0.42-5.226
				c1.32-1.55,3.643-1.744,5.2-0.437L1579.171,1371.585z"/>
			<path style="fill:#FFFFFF;" d="M1605.043,1392.966l7.848,6.314l0.016,0.013c1.665,1.34,1.932,3.781,0.588,5.446
				c-1.34,1.669-3.778,1.932-5.446,0.591l-0.023-0.02l-7.831-6.402c-1.639-1.34-1.882-3.758-0.542-5.397
				c1.334-1.633,3.732-1.879,5.374-0.562L1605.043,1392.966z"/>
			<path style="fill:#FFFFFF;" d="M1631.339,1413.825l7.969,6.153l0.017,0.016c1.751,1.35,2.073,3.863,0.723,5.614
				c-1.35,1.751-3.866,2.073-5.614,0.723l-0.026-0.02l-7.959-6.245c-1.721-1.353-2.02-3.843-0.67-5.568
				c1.347-1.711,3.82-2.02,5.542-0.69L1631.339,1413.825z"/>
			<path style="fill:#FFFFFF;" d="M1658.042,1434.152l8.087,5.995l0.02,0.013c1.833,1.36,2.221,3.948,0.861,5.781
				c-1.36,1.833-3.945,2.217-5.781,0.861l-0.023-0.02l-8.084-6.087c-1.807-1.36-2.168-3.925-0.808-5.732
				c1.354-1.797,3.903-2.165,5.706-0.828L1658.042,1434.152z"/>
			<path style="fill:#FFFFFF;" d="M1685.142,1453.941l8.206,5.831l0.02,0.016c1.918,1.363,2.368,4.021,1.005,5.942
				c-1.363,1.918-4.024,2.368-5.942,1.005l-0.026-0.02l-8.202-5.923c-1.889-1.367-2.316-4.004-0.949-5.896
				c1.357-1.882,3.978-2.313,5.867-0.972L1685.142,1453.941z"/>
			<path style="fill:#FFFFFF;" d="M1712.63,1473.184l8.317,5.663l0.023,0.013c2.004,1.367,2.523,4.096,1.16,6.103
				c-1.367,2.004-4.096,2.523-6.1,1.156l-0.03-0.016l-8.317-5.758c-1.978-1.37-2.47-4.08-1.104-6.057
				c1.36-1.964,4.054-2.464,6.025-1.12L1712.63,1473.184z"/>
			<path style="fill:#FFFFFF;" d="M1740.493,1491.868l8.432,5.496l0.023,0.013c2.093,1.363,2.68,4.165,1.317,6.254
				c-1.363,2.093-4.162,2.684-6.255,1.321l-0.03-0.02l-8.432-5.591c-2.063-1.366-2.628-4.149-1.261-6.212
				c1.363-2.053,4.123-2.621,6.182-1.278L1740.493,1491.868z"/>
			<path style="fill:#FFFFFF;" d="M1768.726,1509.988l8.541,5.325l0.023,0.016c2.178,1.357,2.845,4.224,1.485,6.402
				c-1.36,2.181-4.228,2.845-6.406,1.485l-0.03-0.016l-8.547-5.42c-2.148-1.363-2.786-4.215-1.422-6.363
				c1.357-2.142,4.185-2.782,6.33-1.445L1768.726,1509.988z"/>
			<path style="fill:#FFFFFF;" d="M1797.315,1527.536l8.646,5.151l0.023,0.013c2.267,1.353,3.009,4.284,1.659,6.553
				c-1.35,2.267-4.284,3.009-6.55,1.659l-0.033-0.02l-8.653-5.249c-2.24-1.357-2.953-4.27-1.596-6.507
				c1.35-2.227,4.244-2.947,6.478-1.616L1797.315,1527.536z"/>
			<path style="fill:#FFFFFF;" d="M1826.249,1544.499l8.748,4.977l0.026,0.013c2.355,1.34,3.18,4.336,1.84,6.691
				c-1.34,2.359-4.336,3.18-6.691,1.84l-0.033-0.016l-8.761-5.072c-2.326-1.347-3.121-4.326-1.774-6.652
				c1.34-2.316,4.297-3.114,6.619-1.793L1826.249,1544.499z"/>
			<path style="fill:#FFFFFF;" d="M1855.52,1560.874l8.843,4.796l0.026,0.013c2.447,1.327,3.354,4.385,2.027,6.829
				c-1.327,2.444-4.382,3.354-6.829,2.027l-0.033-0.02l-8.859-4.891c-2.418-1.334-3.295-4.375-1.961-6.793
				c1.327-2.401,4.346-3.282,6.757-1.978L1855.52,1560.874z"/>
		</g>
		<g>
			<path style="fill:#FFFFFF;" d="M1168.965,1699.51l10.055-1.058c1.629-0.171,3.091,1.012,3.262,2.644
				c0.174,1.633-1.012,3.094-2.641,3.265h-0.023l-0.02,0.003l-10.022,0.976h-0.02c-1.61,0.158-3.042-1.021-3.2-2.631
				C1166.199,1701.107,1167.369,1699.681,1168.965,1699.51z"/>
			<path style="fill:#FFFFFF;" d="M1202.504,1696.242l10.075-0.841c1.708-0.141,3.209,1.127,3.351,2.835
				c0.141,1.708-1.127,3.206-2.835,3.351h-0.023l-0.02,0.003l-10.042,0.759h-0.02c-1.688,0.128-3.157-1.137-3.285-2.825
				C1199.577,1697.848,1200.829,1696.383,1202.504,1696.242z"/>
			<path style="fill:#FFFFFF;" d="M1236.109,1693.686l10.085-0.634c1.784-0.112,3.321,1.245,3.433,3.029s-1.245,3.318-3.029,3.429
				l-0.023,0.003h-0.02l-10.052,0.552h-0.02c-1.764,0.095-3.268-1.255-3.367-3.016
				C1233.021,1695.296,1234.358,1693.795,1236.109,1693.686z"/>
			<path style="fill:#FFFFFF;" d="M1269.75,1691.814l10.104-0.427c1.856-0.079,3.426,1.363,3.508,3.223
				c0.079,1.856-1.366,3.426-3.222,3.505l-0.026,0.003h-0.02l-10.065,0.348h-0.023c-1.836,0.066-3.377-1.373-3.439-3.209
				C1266.504,1693.427,1267.926,1691.893,1269.75,1691.814z"/>
			<path style="fill:#FFFFFF;" d="M1303.439,1690.618l10.111-0.23c1.932-0.043,3.535,1.488,3.577,3.423
				c0.046,1.932-1.488,3.535-3.419,3.577h-0.026h-0.023l-10.068,0.151h-0.02c-1.912,0.026-3.485-1.498-3.511-3.41
				C1300.03,1692.228,1301.544,1690.661,1303.439,1690.618z"/>
			<path style="fill:#FFFFFF;" d="M1337.143,1690.089l10.114-0.026c2.007-0.003,3.636,1.62,3.643,3.623
				c0.003,2.007-1.619,3.64-3.623,3.643h-0.03h-0.023l-10.068-0.052h-0.023c-1.984-0.01-3.584-1.626-3.574-3.61
				C1333.569,1691.689,1335.172,1690.096,1337.143,1690.089z"/>
			<path style="fill:#FFFFFF;" d="M1370.852,1690.24l10.114,0.177c2.079,0.036,3.735,1.754,3.699,3.833
				c-0.039,2.079-1.754,3.735-3.833,3.699h-0.03l-0.023-0.003l-10.065-0.256h-0.023c-2.056-0.053-3.682-1.764-3.63-3.82
				C1367.114,1691.824,1368.809,1690.204,1370.852,1690.24z"/>
			<path style="fill:#FFFFFF;" d="M1404.559,1691.081l10.108,0.391c2.152,0.082,3.827,1.892,3.745,4.044
				c-0.082,2.152-1.895,3.83-4.047,3.745h-0.03h-0.026l-10.055-0.47h-0.023c-2.129-0.099-3.774-1.905-3.676-4.034
				C1400.653,1692.638,1402.443,1690.999,1404.559,1691.081z"/>
			<path style="fill:#FFFFFF;" d="M1438.245,1692.635l10.098,0.611c2.224,0.135,3.916,2.047,3.781,4.267
				c-0.135,2.224-2.047,3.916-4.267,3.781h-0.033l-0.026-0.003l-10.042-0.686l-0.026-0.003c-2.198-0.148-3.86-2.053-3.709-4.254
				C1434.172,1694.159,1436.058,1692.504,1438.245,1692.635z"/>
			<path style="fill:#FFFFFF;" d="M1471.896,1694.941l10.085,0.841c2.293,0.194,3.994,2.204,3.804,4.497
				c-0.191,2.293-2.204,3.994-4.497,3.804l-0.033-0.003l-0.03-0.003l-10.019-0.917l-0.03-0.003
				c-2.266-0.207-3.939-2.214-3.732-4.484C1467.652,1696.416,1469.642,1694.754,1471.896,1694.941z"/>
			<path style="fill:#FFFFFF;" d="M1505.494,1698.032l10.065,1.091c2.362,0.256,4.067,2.375,3.81,4.734
				c-0.256,2.359-2.375,4.067-4.734,3.811l-0.033-0.003l-0.033-0.003l-9.993-1.163l-0.033-0.003
				c-2.336-0.273-4.008-2.385-3.735-4.72C1501.079,1699.451,1503.175,1697.782,1505.494,1698.032z"/>
			<path style="fill:#FFFFFF;" d="M1539.016,1701.971l10.039,1.357c2.424,0.325,4.123,2.556,3.797,4.98
				c-0.328,2.424-2.559,4.123-4.983,3.797l-0.033-0.006l-0.036-0.003l-9.956-1.426l-0.036-0.003
				c-2.398-0.345-4.067-2.569-3.722-4.967C1534.427,1703.311,1536.632,1701.649,1539.016,1701.971z"/>
			<path style="fill:#FFFFFF;" d="M1572.437,1706.816l9.996,1.642c2.487,0.411,4.172,2.756,3.765,5.243
				c-0.411,2.487-2.756,4.169-5.243,3.761l-0.036-0.007l-0.04-0.006l-9.904-1.708l-0.039-0.006
				c-2.464-0.424-4.113-2.763-3.689-5.223C1567.667,1708.061,1569.99,1706.415,1572.437,1706.816z"/>
			<path style="fill:#FFFFFF;" d="M1605.713,1712.653l9.947,1.958c2.542,0.499,4.198,2.97,3.699,5.512
				c-0.499,2.543-2.969,4.201-5.512,3.699l-0.036-0.007l-0.046-0.01l-9.842-2.017l-0.046-0.01c-2.516-0.516-4.139-2.976-3.623-5.492
				C1600.766,1713.78,1603.207,1712.161,1605.713,1712.653z"/>
			<path style="fill:#FFFFFF;" d="M1638.799,1719.578l9.881,2.306c2.595,0.608,4.208,3.203,3.6,5.798
				c-0.604,2.595-3.199,4.211-5.798,3.604l-0.036-0.01l-0.052-0.01l-9.756-2.362l-0.052-0.013c-2.569-0.621-4.149-3.206-3.528-5.778
				C1633.674,1720.557,1636.243,1718.98,1638.799,1719.578z"/>
			<path style="fill:#FFFFFF;" d="M1671.635,1727.711l9.789,2.697c2.641,0.726,4.192,3.459,3.462,6.097
				c-0.726,2.641-3.456,4.195-6.097,3.466l-0.039-0.01l-0.059-0.016l-9.648-2.74l-0.059-0.02c-2.615-0.742-4.132-3.462-3.39-6.074
				C1666.333,1728.509,1669.033,1726.995,1671.635,1727.711z"/>
		</g>
		<g>
			<path style="fill:#FFFFFF;" d="M2520.021,1092.91l-9.08,4.329l-0.036,0.016c-1.15,0.549-2.526,0.062-3.071-1.087
				c-0.549-1.15-0.063-2.526,1.087-3.075l0.02-0.01l9.198-4.27c1.127-0.522,2.467-0.033,2.993,1.094
				c0.519,1.123,0.039,2.454-1.074,2.983L2520.021,1092.91z"/>
			<path style="fill:#FFFFFF;" d="M2490.065,1107.938l-8.81,4.835l-0.036,0.02c-1.199,0.66-2.704,0.22-3.364-0.979
				c-0.657-1.199-0.22-2.703,0.979-3.36l0.023-0.013l8.932-4.786c1.179-0.631,2.651-0.187,3.281,0.992
				c0.631,1.173,0.194,2.631-0.969,3.272L2490.065,1107.938z"/>
			<path style="fill:#FFFFFF;" d="M2461.033,1124.629l-8.521,5.318l-0.036,0.023c-1.242,0.775-2.875,0.397-3.65-0.844
				c-0.772-1.239-0.394-2.874,0.844-3.646l0.023-0.016l8.649-5.276c1.225-0.746,2.822-0.361,3.567,0.864
				c0.742,1.215,0.365,2.799-0.841,3.551L2461.033,1124.629z"/>
			<path style="fill:#FFFFFF;" d="M2432.987,1142.9l-8.209,5.778l-0.039,0.03c-1.271,0.894-3.032,0.588-3.926-0.683
				c-0.897-1.275-0.591-3.032,0.683-3.929l0.023-0.016l8.344-5.745c1.258-0.867,2.983-0.548,3.85,0.71
				c0.861,1.248,0.552,2.956-0.687,3.83L2432.987,1142.9z"/>
			<path style="fill:#FFFFFF;" d="M2405.991,1162.678l-7.884,6.218l-0.04,0.03c-1.294,1.022-3.177,0.798-4.198-0.496
				c-1.021-1.297-0.798-3.177,0.496-4.201l0.026-0.016l8.022-6.195c1.284-0.992,3.131-0.755,4.123,0.529
				c0.985,1.278,0.756,3.107-0.506,4.103L2405.991,1162.678z"/>
			<path style="fill:#FFFFFF;" d="M2380.106,1183.889l-7.539,6.632l-0.039,0.033c-1.311,1.153-3.308,1.025-4.461-0.286
				c-1.153-1.311-1.025-3.308,0.286-4.461l0.026-0.023l7.683-6.619c1.301-1.12,3.262-0.972,4.382,0.328
				c1.114,1.291,0.979,3.236-0.299,4.362L2380.106,1183.889z"/>
			<path style="fill:#FFFFFF;" d="M2355.391,1206.453l-7.177,7.023l-0.036,0.036c-1.314,1.288-3.426,1.265-4.71-0.049
				c-1.288-1.314-1.265-3.426,0.049-4.711l0.026-0.026l7.322-7.02c1.307-1.255,3.384-1.212,4.638,0.095
				c1.245,1.301,1.212,3.357-0.072,4.615L2355.391,1206.453z"/>
			<path style="fill:#FFFFFF;" d="M2331.907,1230.301l-6.796,7.391l-0.036,0.043c-1.311,1.422-3.525,1.518-4.95,0.207
				c-1.422-1.311-1.518-3.525-0.207-4.95l0.023-0.026l6.948-7.401c1.304-1.39,3.489-1.462,4.878-0.158
				c1.38,1.298,1.458,3.462,0.181,4.852L2331.907,1230.301z"/>
			<path style="fill:#FFFFFF;" d="M2309.718,1255.352l-6.396,7.739l-0.039,0.046c-1.291,1.564-3.607,1.784-5.17,0.49
				c-1.564-1.291-1.784-3.607-0.493-5.17l0.023-0.03l6.55-7.762c1.291-1.527,3.574-1.721,5.105-0.43
				c1.518,1.281,1.718,3.545,0.457,5.072L2309.718,1255.352z"/>
			<path style="fill:#FFFFFF;" d="M2288.881,1281.532l-5.979,8.065l-0.036,0.049c-1.265,1.705-3.673,2.063-5.377,0.798
				c-1.708-1.265-2.063-3.673-0.798-5.377l0.023-0.033l6.13-8.097c1.265-1.672,3.646-2,5.315-0.736
				c1.659,1.258,1.994,3.613,0.759,5.282L2288.881,1281.532z"/>
			<path style="fill:#FFFFFF;" d="M2269.461,1308.768l-5.542,8.363l-0.033,0.053c-1.225,1.849-3.719,2.355-5.568,1.13
				c-1.846-1.225-2.355-3.715-1.13-5.565l0.023-0.033l5.696-8.413c1.229-1.813,3.692-2.29,5.505-1.061
				c1.803,1.219,2.283,3.659,1.084,5.469L2269.461,1308.768z"/>
			<path style="fill:#FFFFFF;" d="M2251.522,1336.978l-5.085,8.643l-0.036,0.056c-1.173,1.994-3.738,2.657-5.732,1.488
				c-1.99-1.173-2.657-3.741-1.485-5.732l0.023-0.04l5.24-8.702c1.179-1.958,3.719-2.589,5.676-1.409
				c1.945,1.169,2.579,3.686,1.432,5.637L2251.522,1336.978z"/>
			<path style="fill:#FFFFFF;" d="M2235.121,1366.089l-4.612,8.899l-0.033,0.062c-1.107,2.138-3.738,2.973-5.874,1.866
				c-2.138-1.107-2.973-3.738-1.866-5.873l0.02-0.039l4.77-8.978c1.114-2.099,3.722-2.897,5.821-1.781
				c2.089,1.107,2.891,3.689,1.807,5.781L2235.121,1366.089z"/>
			<path style="fill:#FFFFFF;" d="M2220.319,1396.028l-4.116,9.129l-0.033,0.069c-1.028,2.28-3.708,3.295-5.988,2.267
				s-3.295-3.712-2.267-5.992l0.02-0.043l4.27-9.221c1.042-2.244,3.702-3.219,5.946-2.181c2.23,1.035,3.206,3.669,2.201,5.903
				L2220.319,1396.028z"/>
			<path style="fill:#FFFFFF;" d="M2207.186,1426.709l-3.607,9.339l-0.03,0.072c-0.933,2.421-3.656,3.627-6.077,2.69
				c-2.421-0.933-3.627-3.656-2.69-6.077l0.016-0.043l3.761-9.447c0.949-2.385,3.65-3.551,6.038-2.602
				c2.368,0.946,3.534,3.62,2.618,5.992L2207.186,1426.709z"/>
			<path style="fill:#FFFFFF;" d="M2195.777,1458.057l-3.078,9.523l-0.026,0.079c-0.828,2.559-3.574,3.965-6.133,3.137
				c-2.559-0.828-3.965-3.574-3.137-6.133l0.016-0.049l3.226-9.645c0.844-2.523,3.574-3.886,6.097-3.042
				c2.51,0.841,3.87,3.541,3.058,6.051L2195.777,1458.057z"/>
			<path style="fill:#FFFFFF;" d="M2186.153,1489.993l-2.529,9.677l-0.02,0.085c-0.706,2.694-3.459,4.306-6.153,3.604
				c-2.697-0.703-4.31-3.459-3.603-6.153l0.013-0.049l2.671-9.822c0.723-2.657,3.466-4.228,6.126-3.505
				c2.641,0.719,4.208,3.433,3.518,6.074L2186.153,1489.993z"/>
		</g>
		<g style="opacity:0.48;">
			<path style="fill:#FFFFFF;" d="M1951.662,2150.59c-74.005-23.114-139.707-68.174-188.862-130.356
				c-60.495-76.526-88.648-170.013-79.276-263.239c9.372-93.224,55.177-175.326,128.979-231.179
				c74.819-56.625,169.347-79.6,266.171-64.697c96.825,14.914,183.925,65.839,245.251,143.42
				c60.494,76.526,88.648,170.013,79.275,263.239l0.001-0.002c-9.372,93.226-55.178,175.327-128.979,231.181
				c-74.82,56.625-169.347,79.6-266.171,64.697C1988.832,2160.694,1969.988,2156.314,1951.662,2150.59z M2119.136,1524.317
				c-14.892-4.652-30.17-8.204-45.748-10.601c-79.294-12.208-157.139,6.934-219.193,53.898
				c-63.071,47.734-102.258,118.289-110.336,198.667c-8.083,80.38,15.94,160.665,67.638,226.065
				c50.867,64.345,122.563,106.508,201.841,118.708c79.294,12.207,157.139-6.935,219.193-53.899
				c63.071-47.734,102.259-118.289,110.337-198.667l0-0.002c8.083-80.379-15.941-160.663-67.638-226.063
				C2234.357,1580.722,2180.037,1543.34,2119.136,1524.317z"/>
			<path style="fill:#FFFFFF;" d="M1993.51,2018.046c-96.349-30.095-161.064-131.771-150.536-236.505
				c5.958-59.275,34.269-110.86,79.712-145.254c41.086-31.094,91.519-43.938,142.015-36.165c9.645,1.486,19.239,3.706,28.514,6.603
				c96.349,30.095,161.064,131.771,150.536,236.505c-5.958,59.275-34.269,110.86-79.712,145.253
				c-41.086,31.094-91.52,43.938-142.015,36.165C2012.379,2023.164,2002.785,2020.943,1993.51,2018.046z"/>
		</g>
		<g>
			<g>
				
					<linearGradient id="SVGID_00000048483443606754946130000011825876818515884440_" gradientUnits="userSpaceOnUse" x1="-2491.499" y1="1999.5973" x2="-2495.8914" y2="2028.2194" gradientTransform="matrix(-1 0 0 1 -178.7875 0)">
					<stop  offset="0" style="stop-color:#FEBBBA"/>
					<stop  offset="1" style="stop-color:#FF928E"/>
				</linearGradient>
				<polygon style="fill:url(#SVGID_00000048483443606754946130000011825876818515884440_);" points="2295.713,1979.38 
					2299.917,2022.166 2330.238,2009.994 2325.866,1979.38 				"/>
				<g>
					
						<linearGradient id="SVGID_00000091009814304778848910000001863337356267974827_" gradientUnits="userSpaceOnUse" x1="3604.5508" y1="2470.2727" x2="2869.0117" y2="2205.658">
						<stop  offset="0" style="stop-color:#4F52FF"/>
						<stop  offset="1" style="stop-color:#4042E2"/>
					</linearGradient>
					<path style="fill:url(#SVGID_00000091009814304778848910000001863337356267974827_);" d="M2127.712,1789.211l59.392-0.583
						l-4.271,10.434c45.699,23.064,78.159,81.344,78.159,149.642c0,66.583-30.842,123.669-74.733,147.864l0.143,12.373
						l-41.862-0.174c-1.732,0.097-3.469,0.174-5.22,0.174c-67.197,0-121.672-71.741-121.672-160.237
						C2017.647,1865.367,2065.96,1796.91,2127.712,1789.211z"/>
					
						<linearGradient id="SVGID_00000092414346217347529490000016813654683893930422_" gradientUnits="userSpaceOnUse" x1="2337.6233" y1="1778.9583" x2="1205.0422" y2="3011.4727">
						<stop  offset="0" style="stop-color:#4F52FF"/>
						<stop  offset="1" style="stop-color:#4042E2"/>
					</linearGradient>
					
						<ellipse style="fill:url(#SVGID_00000092414346217347529490000016813654683893930422_);" cx="2181.64" cy="1948.705" rx="121.672" ry="160.238"/>
					<path style="fill:#BDD0FB;" d="M2089.586,2087.667c1.165,0,2.317-0.521,3.088-1.517c1.317-1.703,1.008-4.152-0.691-5.478
						c-0.534-0.415-53.324-42.775-47.863-149.609c5.439-106.448,79.687-129.698,80.437-129.918c2.067-0.614,3.249-2.788,2.635-4.855
						c-0.614-2.067-2.796-3.258-4.855-2.635c-0.805,0.237-80.301,25.105-86.02,137.01c-5.681,111.206,48.575,154.405,50.888,156.188
						C2087.913,2087.4,2088.752,2087.667,2089.586,2087.667z"/>
				</g>
				
					<linearGradient id="SVGID_00000147184472937208756600000009073117605320486300_" gradientUnits="userSpaceOnUse" x1="-2939.1411" y1="2012.8856" x2="-2947.6907" y2="2068.5969" gradientTransform="matrix(-1 0 0 1 -178.7875 0)">
					<stop  offset="0" style="stop-color:#FEBBBA"/>
					<stop  offset="1" style="stop-color:#FF928E"/>
				</linearGradient>
				<path style="fill:url(#SVGID_00000147184472937208756600000009073117605320486300_);" d="M2783.683,2049.411
					c2.072,0,32.487-47.036,16.906-60.087c-15.581-13.051-70.438-17.483-74.698-15.482c-4.26,2.001-6.729,75.569-6.729,75.569
					H2783.683z"/>
				
					<linearGradient id="SVGID_00000138557140342356670280000013743610067699975841_" gradientUnits="userSpaceOnUse" x1="-3095.6919" y1="1992.4998" x2="-2351.1172" y2="1992.4998" gradientTransform="matrix(-1 0 0 1 -178.7875 0)">
					<stop  offset="0" style="stop-color:#09005D"/>
					<stop  offset="1" style="stop-color:#1A0F91"/>
				</linearGradient>
				<path style="fill:url(#SVGID_00000138557140342356670280000013743610067699975841_);" d="M2916.904,2006.979l-4.238-0.379
					l-733.083-65.546c0,0-16.322,7.054,0,20.247c16.322,13.193,715.445,82.644,715.445,82.644L2916.904,2006.979z"/>
				
					<linearGradient id="SVGID_00000083051996188805640400000003958112884097953977_" gradientUnits="userSpaceOnUse" x1="-2489.2473" y1="1948.2561" x2="-2503.3948" y2="1995.4141" gradientTransform="matrix(-1 0 0 1 -178.7875 0)">
					<stop  offset="0" style="stop-color:#FEBBBA"/>
					<stop  offset="1" style="stop-color:#FF928E"/>
				</linearGradient>
				<path style="fill:url(#SVGID_00000083051996188805640400000003958112884097953977_);" d="M2295.713,1983.497
					c0,0-6.227-12.218,9.528-12.218c15.755,0,18.97-4.823,18.97-4.823s-12.54-9.646-4.823-9.967
					c7.717-0.321,17.556,0.969,20.9,6.752s-5.144,20.256-5.144,20.256S2299.69,1991.535,2295.713,1983.497z"/>
				
					<linearGradient id="SVGID_00000115492799883630917480000014039753745527011976_" gradientUnits="userSpaceOnUse" x1="2859.3972" y1="2021.8721" x2="2709.1506" y2="2308.9111">
					<stop  offset="0" style="stop-color:#FEBBBA"/>
					<stop  offset="1" style="stop-color:#FF928E"/>
				</linearGradient>
				<path style="fill:url(#SVGID_00000115492799883630917480000014039753745527011976_);" d="M2696.868,2115.968l29.152,58.305
					c0,0,116.609,236.648,72.023,234.934c-44.586-1.715-183.488-200.637-183.488-200.637L2696.868,2115.968z"/>
				
					<linearGradient id="SVGID_00000093178244607646457430000003792093431816350877_" gradientUnits="userSpaceOnUse" x1="-2457.3225" y1="2814.1843" x2="-2187.0176" y2="2814.1843" gradientTransform="matrix(-1 0 0 1 -178.7875 0)">
					<stop  offset="0" style="stop-color:#FEBBBA"/>
					<stop  offset="1" style="stop-color:#FF928E"/>
				</linearGradient>
				<path style="fill:url(#SVGID_00000093178244607646457430000003792093431816350877_);" d="M2278.535,2539.106
					c-12.733,0-239.693-19.893-262.844,26.407s14.961,527.999,14.961,527.999h59.162l32.626-403.03l156.095,29.111V2539.106z"/>
				
					<linearGradient id="SVGID_00000097488983543587301330000004727692793667667892_" gradientUnits="userSpaceOnUse" x1="-3060.8591" y1="2955.3955" x2="-2501.8203" y2="2955.3955" gradientTransform="matrix(-1 0 0 1 -178.7875 0)">
					<stop  offset="0" style="stop-color:#FEBBBA"/>
					<stop  offset="1" style="stop-color:#FF928E"/>
				</linearGradient>
				<path style="fill:url(#SVGID_00000097488983543587301330000004727692793667667892_);" d="M2323.033,2800.191
					c0,0,140.617,370.406,173.199,366.976c32.582-3.43,385.84-65.164,385.84-65.164l-8.574-60.02l-325.82-6.86l-44.586-291.523
					L2323.033,2800.191z"/>
				
					<linearGradient id="SVGID_00000170255267787046255470000001741470376892865181_" gradientUnits="userSpaceOnUse" x1="-2718.3479" y1="2770.2881" x2="-2471.5537" y2="2770.2881" gradientTransform="matrix(-1 0 0 1 -178.7875 0)">
					<stop  offset="0" style="stop-color:#09005D"/>
					<stop  offset="1" style="stop-color:#1A0F91"/>
				</linearGradient>
				<polygon style="fill:url(#SVGID_00000170255267787046255470000001741470376892865181_);" points="2292.766,2766.344 
					2323.912,2822.698 2539.56,2780.332 2539.56,2717.878 				"/>
				
					<linearGradient id="SVGID_00000134237257938550726280000001487312907691656372_" gradientUnits="userSpaceOnUse" x1="3422.5044" y1="3168.5894" x2="2660.6531" y2="2452.1467">
					<stop  offset="0" style="stop-color:#FF928E"/>
					<stop  offset="1" style="stop-color:#FE7062"/>
				</linearGradient>
				<path style="fill:url(#SVGID_00000134237257938550726280000001487312907691656372_);" d="M2527.099,1925.621
					c0,0-267.516,12.862-285.521,162.053c-18.006,149.191,38.584,429.568,38.584,429.568l275.232-25.723
					c0,0-28.295-282.949,20.578-313.816l42.013,54.875l101.176-113.18C2719.162,2119.398,2619.7,1956.488,2527.099,1925.621z"/>
				
					<linearGradient id="SVGID_00000153688638165112413660000010465871852072581270_" gradientUnits="userSpaceOnUse" x1="-2756.3342" y1="2635.9253" x2="-2425.4902" y2="2635.9253" gradientTransform="matrix(-1 0 0 1 -178.7875 0)">
					<stop  offset="0" style="stop-color:#09005D"/>
					<stop  offset="1" style="stop-color:#1A0F91"/>
				</linearGradient>
				<path style="fill:url(#SVGID_00000153688638165112413660000010465871852072581270_);" d="M2555.877,2491.519
					c0,0,88.975,267.515-93.656,285.521c-182.631,18.006-215.518-43.729-215.518-43.729v-216.07l312.54-25.723H2555.877z"/>
				
					<linearGradient id="SVGID_00000069358151664222290990000003374814539377036674_" gradientUnits="userSpaceOnUse" x1="-9281.0234" y1="439.1211" x2="-9724.4873" y2="1253.943" gradientTransform="matrix(-0.9937 -0.112 -0.112 0.9937 -6899.0762 24.4975)">
					<stop  offset="0" style="stop-color:#FEBBBA"/>
					<stop  offset="1" style="stop-color:#FF928E"/>
				</linearGradient>
				<path style="fill:url(#SVGID_00000069358151664222290990000003374814539377036674_);" d="M2465.464,1758.605l46.863,165.05
					c0,0-80.081,43.041-139.292,31.409l-16.272-145.494L2465.464,1758.605z"/>
				<g>
					
						<linearGradient id="SVGID_00000026854642030949621180000013040140546550790532_" gradientUnits="userSpaceOnUse" x1="-8159.7388" y1="-989.9255" x2="-8355.7441" y2="-730.6267" gradientTransform="matrix(-0.876 -0.4822 -0.4822 0.876 -5245.0303 -1403.6779)">
						<stop  offset="0" style="stop-color:#FEBBBA"/>
						<stop  offset="1" style="stop-color:#FF928E"/>
					</linearGradient>
					<path style="fill:url(#SVGID_00000026854642030949621180000013040140546550790532_);" d="M2347.097,1644.232
						c-1.246,2.264-28.231,170.963-28.231,170.963l96.652,13.361l49.331-156.092
						C2464.849,1672.464,2367.958,1606.336,2347.097,1644.232z"/>
					
						<linearGradient id="SVGID_00000181087015546155161590000002632739207622997910_" gradientUnits="userSpaceOnUse" x1="-8309.4326" y1="-927.3763" x2="-8075.3022" y2="-927.3763" gradientTransform="matrix(-0.876 -0.4822 -0.4822 0.876 -5245.0303 -1403.6779)">
						<stop  offset="0" style="stop-color:#09005D"/>
						<stop  offset="1" style="stop-color:#1A0F91"/>
					</linearGradient>
					<path style="fill:url(#SVGID_00000181087015546155161590000002632739207622997910_);" d="M2431.988,1699.017l-19.534,84.203
						c-0.251,1.08-0.634,2.095-1.167,3.067c-3.264,5.948-15.994,25.589-35.295,11.34c-17.514-12.93-33.689-24.469-47.533-25.343
						c-6.216-0.393-11.704,3.988-12.687,10.138c-2.448,15.328-7.325,49.971-6.969,80.714c0.072,6.239,4.956,11.338,11.177,11.814
						c18.745,1.432,58.365,3.346,90.599-2.581c4.368-0.803,7.947-3.878,9.335-8.096c6.764-20.567,27.555-83.002,36.04-99.503
						c7.964-15.489,31.487-17.711,41.43-17.94c3.26-0.075,6.318-1.47,8.516-3.879c7.768-8.515,22.006-29.626-3.637-50.122
						c-5.367-4.29-6.109-12.096-1.658-17.33c8.861-10.42,17.605-28.119-1.187-46.755c-19.1-18.942-40.867-13.151-53.878-6.684
						c-5.26,2.615-11.502,0.966-15.045-3.72c-2.017-2.667-5.219-4.499-10.304-3.483c-6.851,1.369-13.313-3.753-13.966-10.709
						c-1.253-13.364-7.913-29.68-31.855-34.292c-42.484-8.184-63.648,34.343-62.872,64.222
						c0.776,29.879,47.341,36.133,73.754,31.157c20.082-3.784,37.365,14.607,44.496,23.64
						C2432.007,1691.737,2432.812,1695.466,2431.988,1699.017z"/>
					
						<linearGradient id="SVGID_00000001663814122845337660000012941643902240824502_" gradientUnits="userSpaceOnUse" x1="-8446.8076" y1="-784.5807" x2="-8289.5977" y2="-945.8746" gradientTransform="matrix(-0.876 -0.4822 -0.4822 0.876 -5245.0303 -1403.6779)">
						<stop  offset="0" style="stop-color:#FEBBBA"/>
						<stop  offset="1" style="stop-color:#FF928E"/>
					</linearGradient>
					<path style="fill:url(#SVGID_00000001663814122845337660000012941643902240824502_);" d="M2448.535,1795.358
						c0,0,0.882-52.121,21.974-57.03c21.092-4.909,43.861,10.328,25.838,41.545
						C2473.929,1818.702,2448.535,1795.358,2448.535,1795.358z"/>
				</g>
				
					<linearGradient id="SVGID_00000109714888186712587370000007086560720542759586_" gradientUnits="userSpaceOnUse" x1="2772.0149" y1="2055.5364" x2="2729.4077" y2="2598.2222">
					<stop  offset="0" style="stop-color:#FEBBBA"/>
					<stop  offset="1" style="stop-color:#FF928E"/>
				</linearGradient>
				<path style="fill:url(#SVGID_00000109714888186712587370000007086560720542759586_);" d="M2780.379,2402.112
					c0,0-36.35-63.616-42.354-139.52c-6.003-75.904,0-211.788,0-211.788s-48.873-3.001-47.587-30.01
					c1.286-27.009,17.577-75.882,28.724-54.018c11.146,21.864,16.234,38.584,16.234,38.584s52.788,20.578,51.502,46.301
					C2785.612,2077.384,2896.042,2464.468,2780.379,2402.112z"/>
				<g>
					
						<linearGradient id="SVGID_00000102521026007047684940000001519711421169788328_" gradientUnits="userSpaceOnUse" x1="3301.6294" y1="2136.6235" x2="3791.3042" y2="2309.8418">
						<stop  offset="0" style="stop-color:#4F52FF"/>
						<stop  offset="1" style="stop-color:#4042E2"/>
					</linearGradient>
					<path style="fill:url(#SVGID_00000102521026007047684940000001519711421169788328_);" d="M2997.095,1825.445l73.172-0.788
						l-5.263,14.104c56.302,31.176,96.293,109.955,96.293,202.274c0,90.002-37.997,167.166-92.072,199.871l0.176,16.725
						l-51.575-0.235c-2.134,0.131-4.275,0.235-6.431,0.235c-82.787,0-149.902-96.973-149.902-216.596
						C2861.493,1928.386,2921.017,1835.852,2997.095,1825.445z"/>
					
						<linearGradient id="SVGID_00000004505834127136277230000007472445286170221485_" gradientUnits="userSpaceOnUse" x1="3814.303" y1="2392.1406" x2="3363.5598" y2="2181.3452">
						<stop  offset="0" style="stop-color:#4F52FF"/>
						<stop  offset="1" style="stop-color:#4042E2"/>
					</linearGradient>
					
						<ellipse style="fill:url(#SVGID_00000004505834127136277230000007472445286170221485_);" cx="3063.536" cy="2041.035" rx="149.902" ry="216.596"/>
					<path style="fill:#BDD0FB;" d="M2950.129,2227.498c1.106,0,2.207-0.47,2.978-1.381c1.394-1.639,1.195-4.105-0.445-5.503
						c-0.665-0.563-66.228-58.183-59.458-203.509c6.749-144.915,98.92-176.578,99.848-176.879c2.055-0.669,3.173-2.872,2.508-4.923
						c-0.669-2.05-2.872-3.152-4.923-2.508c-0.983,0.322-98.238,33.701-105.237,183.945c-6.96,149.49,59.382,207.44,62.208,209.834
						C2948.341,2227.193,2949.239,2227.498,2950.129,2227.498z"/>
				</g>
				
					<linearGradient id="SVGID_00000090283199224431448760000013977341104111122347_" gradientUnits="userSpaceOnUse" x1="-3327.2173" y1="2055.425" x2="-3334.1658" y2="2100.7021" gradientTransform="matrix(-1 0 0 1 -178.7875 0)">
					<stop  offset="0" style="stop-color:#09005D"/>
					<stop  offset="1" style="stop-color:#1A0F91"/>
				</linearGradient>
				<path style="fill:url(#SVGID_00000090283199224431448760000013977341104111122347_);" d="M3080.136,2029.797
					c0,0-25.722,6.933-15.434,21.258c10.289,14.325,36.012,14.325,36.012,14.325l122.611,11.146c0,0,21.436-25.722,0-32.582
					C3201.89,2037.086,3080.136,2029.797,3080.136,2029.797z"/>
				
					<linearGradient id="SVGID_00000179621335966162191260000017648752205823428516_" gradientUnits="userSpaceOnUse" x1="-2938.0713" y1="1981.7869" x2="-2942.5901" y2="2011.2324" gradientTransform="matrix(-1 0 0 1 -178.7875 0)">
					<stop  offset="0" style="stop-color:#FEBBBA"/>
					<stop  offset="1" style="stop-color:#FF928E"/>
				</linearGradient>
				<path style="fill:url(#SVGID_00000179621335966162191260000017648752205823428516_);" d="M2719.162,1988.281
					c0,0,1.715-31.17,30.438-26.98c28.723,4.19,64.518,25.962,47.692,34.368C2780.467,2004.075,2729.879,1999.497,2719.162,1988.281
					z"/>
				
					<linearGradient id="SVGID_00000075124029077824618570000003206410659938925187_" gradientUnits="userSpaceOnUse" x1="3283.8115" y1="3230.5325" x2="4703.0146" y2="3630.3079">
					<stop  offset="0" style="stop-color:#4F52FF"/>
					<stop  offset="1" style="stop-color:#4042E2"/>
				</linearGradient>
				<path style="fill:url(#SVGID_00000075124029077824618570000003206410659938925187_);" d="M2883.35,3102.003
					c0,0-3.64-53.589-9.213-60.02c15.005-19.292,35.263-41.156,59.7-30.867c24.437,10.289,13.988,214.784,13.988,214.784
					s-92.042,18.006-97.187,0c-5.144-18.006,32.712-34.726,32.712-34.726V3102.003z"/>
				
					<linearGradient id="SVGID_00000142881419177199087230000012354961987872508585_" gradientUnits="userSpaceOnUse" x1="1939.8987" y1="3680.6843" x2="1829.9606" y2="4790.0566">
					<stop  offset="0" style="stop-color:#4F52FF"/>
					<stop  offset="1" style="stop-color:#4042E2"/>
				</linearGradient>
				<path style="fill:url(#SVGID_00000142881419177199087230000012354961987872508585_);" d="M2093.681,3175.082
					c0,0,16.38,56.886,0,56.643c-16.38-0.242-223.862,5.217-223.862,5.217s-9.828-63.66,70.98-61.86
					c80.809,1.8,82.993-13.488,82.993-13.488S2082.76,3182.018,2093.681,3175.082z"/>
				<path style="fill:#FFFFFF;" d="M2750.836,3039.411l10.134,83.599l18.006-3.138l6.481-1.081l3.705-0.668l6.431-1.133
					l86.48-14.971c0,0,6.019-52.319-8.591-60.036l-83.651-1.75l-4.424-0.102l-5.916-0.103l-4.373-0.103L2750.836,3039.411z"/>
				<g>
					
						<linearGradient id="SVGID_00000009567351144981693250000003241586560051794362_" gradientUnits="userSpaceOnUse" x1="-2974.3794" y1="3079.1272" x2="-2964.1931" y2="3079.1272" gradientTransform="matrix(-1 0 0 1 -178.7875 0)">
						<stop  offset="0" style="stop-color:#4F52FF"/>
						<stop  offset="1" style="stop-color:#4042E2"/>
					</linearGradient>
					<polygon style="fill:url(#SVGID_00000009567351144981693250000003241586560051794362_);" points="2785.406,3040.132 
						2789.161,3118.123 2795.592,3116.99 2789.829,3040.234 					"/>
					
						<linearGradient id="SVGID_00000016793890744646340670000003761583243094473376_" gradientUnits="userSpaceOnUse" x1="-2964.2434" y1="3079.8984" x2="-2953.9043" y2="3079.8984" gradientTransform="matrix(-1 0 0 1 -178.7875 0)">
						<stop  offset="0" style="stop-color:#4F52FF"/>
						<stop  offset="1" style="stop-color:#4042E2"/>
					</linearGradient>
					<polygon style="fill:url(#SVGID_00000016793890744646340670000003761583243094473376_);" points="2775.117,3039.925 
						2778.975,3119.872 2785.456,3118.791 2779.49,3040.029 					"/>
				</g>
				<g>
					<path style="fill:#FFFFFF;" d="M2023.792,3161.61c0,0,51.2,32.063,70.727,16.598l-2.42-71.157l-0.237-6.21l-0.116-4.218
						l-0.235-6.171l-0.429-12.927l-64.283-3.788l-0.353,10.271l-0.154,4.726l-0.196,5.624l-0.156,4.687L2023.792,3161.61z"/>
					<g>
						
							<linearGradient id="SVGID_00000098201058569348761380000017879944303051833260_" gradientUnits="userSpaceOnUse" x1="-2270.5339" y1="3090.3159" x2="-2205.0793" y2="3090.3159" gradientTransform="matrix(-1 0 0 1 -178.7875 0)">
							<stop  offset="0" style="stop-color:#4F52FF"/>
							<stop  offset="1" style="stop-color:#4042E2"/>
						</linearGradient>
						<polygon style="fill:url(#SVGID_00000098201058569348761380000017879944303051833260_);" points="2026.292,3088.735 
							2091.747,3096.623 2091.512,3090.453 2026.446,3084.009 						"/>
						
							<linearGradient id="SVGID_00000050629795190010547400000008113159070232414870_" gradientUnits="userSpaceOnUse" x1="-2270.8867" y1="3100.7046" x2="-2204.7266" y2="3100.7046" gradientTransform="matrix(-1 0 0 1 -178.7875 0)">
							<stop  offset="0" style="stop-color:#4F52FF"/>
							<stop  offset="1" style="stop-color:#4042E2"/>
						</linearGradient>
						<polygon style="fill:url(#SVGID_00000050629795190010547400000008113159070232414870_);" points="2025.939,3099.045 
							2092.099,3107.051 2091.863,3100.841 2026.095,3094.358 						"/>
					</g>
				</g>
				
					<linearGradient id="SVGID_00000123421724526340110540000011381804636381088403_" gradientUnits="userSpaceOnUse" x1="-2491.7542" y1="1947.504" x2="-2505.9016" y2="1994.6625" gradientTransform="matrix(-1 0 0 1 -178.7875 0)">
					<stop  offset="0" style="stop-color:#FEBBBA"/>
					<stop  offset="1" style="stop-color:#FF928E"/>
				</linearGradient>
				<path style="fill:url(#SVGID_00000123421724526340110540000011381804636381088403_);" d="M2338.058,1960.683
					c0,0-2.463-5.679,3.01-5.19c4.686-8.437-18.036-8.865-35.613-10.58c-17.577-1.714-21.436,11.682-13.29,14.416
					C2300.311,1962.061,2330.791,1967.45,2338.058,1960.683z"/>
				<g>
					
						<linearGradient id="SVGID_00000095340447997817377750000007074015660413211016_" gradientUnits="userSpaceOnUse" x1="-2504.2725" y1="1967.9248" x2="-2505.1299" y2="1949.9191" gradientTransform="matrix(-1 0 0 1 -178.7875 0)">
						<stop  offset="0" style="stop-color:#FEBBBA"/>
						<stop  offset="1" style="stop-color:#FF928E"/>
					</linearGradient>
					<path style="fill:url(#SVGID_00000095340447997817377750000007074015660413211016_);" d="M2324.212,1967.742
						c0.462,0,0.909-0.249,1.135-0.686c0.332-0.628,0.09-1.407-0.537-1.738c-3.788-2.002-7.807-5.149-7.742-6.647
						c0.015-0.465,0.774-0.854,1.221-1.045c6.34-2.683,17.056,2.788,17.162,2.846c0.638,0.324,1.412,0.08,1.733-0.553
						c0.327-0.63,0.08-1.407-0.548-1.733c-0.487-0.249-11.906-6.089-19.352-2.926c-2.23,0.944-2.748,2.318-2.788,3.303
						c-0.166,3.934,7.566,8.212,9.118,9.031C2323.805,1967.694,2324.011,1967.742,2324.212,1967.742z"/>
				</g>
			</g>
			<path style="fill:#7D97F4;" d="M2367.487,2779.304c71.812,0,142.64-21.118,143.619-21.415c1.546-0.47,2.419-2.105,1.953-3.652
				c-0.474-1.546-2.131-2.423-3.652-1.957c-1.326,0.398-133.816,39.886-218.391,10.078c-1.517-0.546-3.194,0.263-3.737,1.788
				c-0.538,1.525,0.263,3.198,1.788,3.737C2312.833,2776.258,2340.234,2779.304,2367.487,2779.304z"/>
		</g>
		<g>
			
				<linearGradient id="SVGID_00000079445454256282936020000012276300687824250265_" gradientUnits="userSpaceOnUse" x1="1912.7909" y1="530.696" x2="1777.8867" y2="1739.8334">
				<stop  offset="0" style="stop-color:#FF928E"/>
				<stop  offset="1" style="stop-color:#FE7062"/>
			</linearGradient>
			<path style="fill:url(#SVGID_00000079445454256282936020000012276300687824250265_);" d="M2139.789,796.006
				c0,136.848-128.36,247.785-265.208,247.785s-247.785-110.937-247.785-247.785s110.937-247.785,247.785-247.785
				S2139.789,659.158,2139.789,796.006z"/>
			<path style="opacity:0.65;fill:#FFFFFF;" d="M2085.586,796.006c0.041,25.943-4.997,51.951-14.77,76.076
				c-9.756,24.139-24.241,46.371-42.409,65.168c-18.174,18.777-40.006,34.205-64.184,44.779
				c-24.119,10.67-50.489,16.593-77.058,17.239c-26.554,0.637-53.482-3.9-78.538-13.672c-25.029-9.794-48.237-24.547-67.674-43.377
				c-19.441-18.815-35.135-41.624-45.748-66.691c-5.285-12.536-9.386-25.601-12.063-38.96c-2.679-13.356-4.031-26.97-4.077-40.56
				c0.046-13.591,1.398-27.205,4.077-40.56c2.677-13.359,6.779-26.424,12.063-38.96c10.613-25.067,26.308-47.876,45.748-66.691
				c19.438-18.831,42.645-33.584,67.674-43.377c25.056-9.772,51.984-14.309,78.538-13.672c26.569,0.646,52.939,6.569,77.058,17.239
				c24.178,10.574,46.011,26.002,64.184,44.779c18.168,18.797,32.653,41.028,42.409,65.168
				C2080.589,744.056,2085.627,770.064,2085.586,796.006z M2058.485,796.006c-0.049-11.233-1.224-22.441-3.535-33.423
				c-2.31-10.984-5.862-21.71-10.42-32.009c-9.163-20.586-22.733-39.337-39.538-54.772c-16.804-15.449-36.845-27.473-58.348-35.41
				c-21.543-7.908-44.595-11.494-67.447-10.866c-45.774,1.192-89.752,20.238-120.595,51.245
				c-15.473,15.417-27.777,33.59-36.044,53.248c-8.276,19.655-12.554,40.762-12.521,61.987
				c-0.033,21.225,4.245,42.332,12.521,61.987c8.267,19.658,20.57,37.832,36.044,53.248c30.842,31.007,74.821,50.054,120.595,51.246
				c22.852,0.628,45.904-2.958,67.447-10.866c21.503-7.937,41.544-19.961,58.348-35.41c16.805-15.435,30.375-34.186,39.538-54.772
				c4.559-10.299,8.11-21.025,10.42-32.009C2057.261,818.447,2058.436,807.239,2058.485,796.006z"/>
			<g>
				<polygon style="fill:#FFFFFF;" points="1825.999,852.608 1774.084,854.062 1767.587,769.859 1819.386,766.917 				"/>
				<polygon style="fill:#FFFFFF;" points="1902.375,850.411 1846.234,852.057 1836.316,723.519 1892.267,719.43 				"/>
				<polygon style="fill:#FFFFFF;" points="1982.599,848.182 1924.295,849.819 1911.184,679.921 1969.239,675.054 				"/>
				<polygon style="fill:#FFFFFF;" points="1996.084,886.675 1766.405,890.354 1764.952,871.521 1994.515,866.345 				"/>
			</g>
		</g>
		<g>
			
				<linearGradient id="SVGID_00000121973206010594059230000008577506887445651103_" gradientUnits="userSpaceOnUse" x1="2590.5417" y1="741.9706" x2="2515.595" y2="1746.255">
				<stop  offset="0" style="stop-color:#FF928E"/>
				<stop  offset="1" style="stop-color:#FE7062"/>
			</linearGradient>
			<path style="fill:url(#SVGID_00000121973206010594059230000008577506887445651103_);" d="M2825.773,1027.541
				c0,136.848-128.36,247.785-265.208,247.785s-247.785-110.937-247.785-247.785s110.938-247.785,247.785-247.785
				S2825.773,890.693,2825.773,1027.541z"/>
			<path style="opacity:0.65;fill:#FFFFFF;" d="M2771.571,1027.541c0.041,25.943-4.998,51.95-14.77,76.075
				c-9.756,24.139-24.241,46.371-42.409,65.168c-18.174,18.777-40.006,34.205-64.184,44.779
				c-24.119,10.67-50.489,16.594-77.059,17.239c-26.554,0.637-53.482-3.9-78.538-13.672c-25.029-9.793-48.237-24.547-67.674-43.377
				c-19.44-18.815-35.135-41.624-45.748-66.691c-5.284-12.537-9.386-25.601-12.063-38.96c-2.679-13.356-4.031-26.97-4.077-40.56
				c0.046-13.591,1.398-27.205,4.077-40.561c2.677-13.359,6.779-26.424,12.063-38.96c10.613-25.067,26.308-47.877,45.748-66.691
				c19.438-18.831,42.645-33.584,67.674-43.377c25.056-9.772,51.984-14.309,78.538-13.672c26.569,0.646,52.939,6.569,77.059,17.239
				c24.178,10.574,46.01,26.002,64.184,44.779c18.168,18.797,32.653,41.028,42.409,65.168
				C2766.573,975.591,2771.611,1001.598,2771.571,1027.541z M2744.469,1027.541c-0.049-11.233-1.223-22.441-3.535-33.423
				c-2.31-10.984-5.862-21.71-10.42-32.009c-9.163-20.586-22.733-39.337-39.538-54.772c-16.804-15.449-36.845-27.473-58.348-35.41
				c-21.543-7.908-44.595-11.494-67.447-10.866c-45.774,1.192-89.752,20.238-120.595,51.245
				c-15.473,15.417-27.777,33.59-36.044,53.248c-8.276,19.655-12.554,40.762-12.521,61.987
				c-0.033,21.225,4.245,42.332,12.521,61.987c8.267,19.658,20.57,37.832,36.044,53.248c30.842,31.007,74.821,50.054,120.595,51.246
				c22.852,0.628,45.904-2.959,67.447-10.866c21.503-7.937,41.544-19.961,58.348-35.41c16.805-15.435,30.375-34.186,39.538-54.772
				c4.559-10.299,8.11-21.025,10.42-32.009C2743.246,1049.982,2744.42,1038.774,2744.469,1027.541z"/>
			<g>
				<path style="fill:#FFFFFF;" d="M2681.415,951.12c0-19.183-15.551-34.733-34.733-34.733h-155.097
					c-19.183,0-34.733,15.551-34.733,34.733v157.836c0,19.182,15.551,34.733,34.733,34.733h155.097
					c19.183,0,34.733-15.551,34.733-34.733V951.12z"/>
				
					<linearGradient id="SVGID_00000088825353815950873850000001258472498125179287_" gradientUnits="userSpaceOnUse" x1="2604.2561" y1="754.1028" x2="2524.3091" y2="1289.3035">
					<stop  offset="0" style="stop-color:#FF928E"/>
					<stop  offset="1" style="stop-color:#FE7062"/>
				</linearGradient>
				<path style="fill:url(#SVGID_00000088825353815950873850000001258472498125179287_);" d="M2634.773,979.618
					c-12.297-21.109-36.511-35.401-64.385-35.401c-27.875,0-52.089,14.254-64.385,35.362c-0.657,1.128-0.376,2.569,0.658,3.365
					l28.656,21.285c0.454,0.349,1.01-0.208,1.583-0.208h26.122h14.73h26.123c0.572,0,1.128,0.557,1.582,0.209l28.655-21.62
					C2635.151,981.815,2635.432,980.748,2634.773,979.618z"/>
				<path style="fill:#FFFFFF;" d="M2556.635,997.154l-15.92-33.261c-0.17-0.355-0.568-0.539-0.948-0.439
					c-0.381,0.1-0.636,0.456-0.609,0.849l2.274,33.369c0.03,0.43,0.387,0.872,0.818,0.872h13.645c0.282,0,0.543-0.253,0.694-0.491
					C2556.74,997.815,2556.757,997.408,2556.635,997.154z"/>
			</g>
		</g>
		<g>
			
				<linearGradient id="SVGID_00000040569598115674421340000010997975502838290613_" gradientUnits="userSpaceOnUse" x1="1245.3091" y1="767.7802" x2="1260.2979" y2="1832.0187">
				<stop  offset="0" style="stop-color:#FF928E"/>
				<stop  offset="1" style="stop-color:#FE7062"/>
			</linearGradient>
			<path style="fill:url(#SVGID_00000040569598115674421340000010997975502838290613_);" d="M991.754,976.731
				c0,136.848,128.36,247.785,265.208,247.785s247.785-110.937,247.785-247.785s-110.937-247.785-247.785-247.785
				S991.754,839.883,991.754,976.731z"/>
			<path style="opacity:0.65;fill:#FFFFFF;" d="M1060.726,900.655c9.756-24.139,24.241-46.371,42.409-65.168
				c18.174-18.777,40.006-34.205,64.184-44.779c24.119-10.67,50.489-16.594,77.058-17.239c26.554-0.637,53.482,3.9,78.538,13.672
				c25.029,9.794,48.237,24.547,67.674,43.377c19.441,18.815,35.136,41.624,45.748,66.691c5.285,12.537,9.386,25.601,12.063,38.96
				c2.679,13.356,4.031,26.97,4.077,40.56c-0.046,13.591-1.398,27.205-4.077,40.561c-2.677,13.359-6.779,26.424-12.063,38.96
				c-10.613,25.067-26.308,47.877-45.748,66.691c-19.438,18.831-42.645,33.584-67.674,43.377
				c-25.056,9.772-51.984,14.309-78.538,13.672c-26.569-0.646-52.939-6.569-77.058-17.239
				c-24.178-10.574-46.011-26.002-64.184-44.779c-18.168-18.797-32.653-41.028-42.409-65.168
				c-9.772-24.125-14.81-50.133-14.77-76.076C1045.916,950.788,1050.954,924.78,1060.726,900.655z M1076.594,1010.154
				c2.31,10.984,5.862,21.71,10.42,32.009c9.163,20.586,22.733,39.337,39.538,54.772c16.804,15.449,36.845,27.473,58.348,35.41
				c21.543,7.908,44.595,11.494,67.447,10.866c45.774-1.192,89.752-20.238,120.595-51.245c15.473-15.417,27.777-33.59,36.044-53.248
				c8.276-19.655,12.554-40.762,12.521-61.987c0.033-21.225-4.245-42.332-12.521-61.987c-8.267-19.658-20.57-37.832-36.044-53.248
				c-30.842-31.007-74.821-50.054-120.595-51.245c-22.852-0.628-45.904,2.958-67.447,10.866
				c-21.503,7.937-41.544,19.961-58.348,35.41c-16.805,15.435-30.375,34.186-39.538,54.772c-4.559,10.299-8.11,21.025-10.42,32.009
				c-2.312,10.983-3.487,22.19-3.535,33.423C1073.107,987.964,1074.282,999.172,1076.594,1010.154z"/>
			<path style="fill:#FFFFFF;" d="M1249.816,852.215c-4.031-5.671-12.425-5.671-16.456,0
				c-22.209,31.239-81.712,118.706-81.712,159.109c0,49.672,40.268,89.94,89.94,89.94c49.673,0,89.94-40.268,89.94-89.94
				C1331.528,970.922,1272.025,883.455,1249.816,852.215z M1223.794,1073.444c-0.519,2.328-2.583,3.91-4.872,3.91
				c-0.361,0-0.727-0.039-1.093-0.122c-19.336-4.315-33.292-13.596-41.476-27.587c-14.183-24.247-5.6-53.56-5.228-54.796
				c0.794-2.641,3.585-4.144,6.225-3.342c2.64,0.795,4.136,3.578,3.346,6.218c-0.094,0.315-7.671,26.514,4.317,46.93
				c6.731,11.465,18.503,19.144,34.993,22.825C1222.699,1068.08,1224.396,1070.751,1223.794,1073.444z"/>
		</g>
		<g>
			
				<linearGradient id="SVGID_00000056426936727543570180000014477662603286890420_" gradientUnits="userSpaceOnUse" x1="1130.8154" y1="1393.6777" x2="1010.9007" y2="2407.9551">
				<stop  offset="0" style="stop-color:#FF928E"/>
				<stop  offset="1" style="stop-color:#FE7062"/>
			</linearGradient>
			<path style="fill:url(#SVGID_00000056426936727543570180000014477662603286890420_);" d="M849.147,1605.624
				c0,136.848,128.36,247.785,265.208,247.785s247.785-110.937,247.785-247.785s-110.937-247.785-247.785-247.785
				S849.147,1468.776,849.147,1605.624z"/>
			<path style="opacity:0.65;fill:#FFFFFF;" d="M918.119,1529.549c9.756-24.139,24.241-46.371,42.409-65.168
				c18.174-18.777,40.006-34.205,64.184-44.779c24.119-10.67,50.489-16.594,77.058-17.239c26.554-0.637,53.482,3.9,78.538,13.672
				c25.029,9.793,48.237,24.547,67.674,43.377c19.441,18.815,35.136,41.624,45.748,66.691c5.285,12.537,9.386,25.601,12.063,38.96
				c2.679,13.356,4.031,26.97,4.077,40.56c-0.046,13.591-1.398,27.205-4.077,40.561c-2.677,13.359-6.779,26.424-12.063,38.96
				c-10.613,25.067-26.308,47.877-45.748,66.691c-19.438,18.831-42.645,33.584-67.674,43.377
				c-25.056,9.772-51.984,14.309-78.538,13.672c-26.569-0.646-52.939-6.57-77.058-17.239
				c-24.178-10.574-46.011-26.002-64.184-44.779c-18.168-18.797-32.653-41.028-42.409-65.168
				c-9.772-24.125-14.81-50.133-14.77-76.076C903.309,1579.682,908.347,1553.674,918.119,1529.549z M933.986,1639.047
				c2.31,10.984,5.862,21.71,10.42,32.009c9.163,20.586,22.733,39.337,39.538,54.772c16.804,15.449,36.845,27.473,58.348,35.41
				c21.543,7.908,44.595,11.494,67.447,10.866c45.774-1.192,89.752-20.238,120.595-51.245c15.473-15.417,27.777-33.59,36.044-53.248
				c8.276-19.655,12.554-40.762,12.521-61.987c0.033-21.225-4.245-42.332-12.521-61.987c-8.267-19.658-20.57-37.832-36.044-53.248
				c-30.842-31.007-74.821-50.054-120.595-51.246c-22.852-0.628-45.904,2.959-67.447,10.866
				c-21.503,7.937-41.544,19.961-58.348,35.41c-16.805,15.434-30.375,34.186-39.538,54.772c-4.559,10.299-8.11,21.025-10.42,32.009
				c-2.312,10.983-3.487,22.19-3.535,33.423C930.5,1616.857,931.674,1628.065,933.986,1639.047z"/>
			<g>
				<path style="fill:#FFFFFF;" d="M1033.189,1699.345h-41.636c-1.381,0-2.5-1.119-2.5-2.5v-174.881c0-1.381,1.119-2.5,2.5-2.5
					h41.636c1.381,0,2.5,1.119,2.5,2.5v174.881C1035.689,1698.226,1034.57,1699.345,1033.189,1699.345z"/>
				<path style="fill:#FFFFFF;" d="M979.916,1641.051h-11.704c-1.367,0-2.476-1.108-2.476-2.476v-58.34
					c0-1.367,1.109-2.476,2.476-2.476h11.704c1.367,0,2.476,1.108,2.476,2.476v58.34
					C982.391,1639.942,981.283,1641.051,979.916,1641.051z"/>
				<path style="fill:#FFFFFF;" d="M1184.759,1699.345h41.636c1.381,0,2.5-1.119,2.5-2.5v-174.881c0-1.381-1.119-2.5-2.5-2.5
					h-41.636c-1.381,0-2.5,1.119-2.5,2.5v174.881C1182.259,1698.226,1183.378,1699.345,1184.759,1699.345z"/>
				<path style="fill:#FFFFFF;" d="M1238.032,1641.051h11.704c1.367,0,2.476-1.108,2.476-2.476v-58.34
					c0-1.367-1.109-2.476-2.476-2.476h-11.704c-1.367,0-2.476,1.108-2.476,2.476v58.34
					C1235.557,1639.942,1236.665,1641.051,1238.032,1641.051z"/>
				<path style="fill:#FFFFFF;" d="M1173.097,1621.23h-128.245c-1.381,0-2.5-1.119-2.5-2.5v-20.317c0-1.381,1.119-2.5,2.5-2.5
					h128.245c1.381,0,2.5,1.119,2.5,2.5v20.317C1175.597,1620.111,1174.477,1621.23,1173.097,1621.23z"/>
			</g>
		</g>
	</g>
</g>
</svg>
