<?xml version="1.0" encoding="utf-8"?>
<!-- Generator: Adobe Illustrator 27.5.0, SVG Export Plug-In . SVG Version: 6.00 Build 0)  -->
<svg version="1.1" xmlns="http://www.w3.org/2000/svg" xmlns:xlink="http://www.w3.org/1999/xlink" x="0px" y="0px"
	 viewBox="0 0 3710 3710" style="enable-background:new 0 0 3710 3710;" xml:space="preserve">
<g id="Background">
	<g>
		<g>
			<rect style="fill:#FFFFFF;" width="3710" height="3710"/>
		</g>
	</g>
</g>
<g id="Illustration">
	<g>
		<linearGradient id="SVGID_1_" gradientUnits="userSpaceOnUse" x1="3469.5388" y1="3205.3401" x2="1457.9375" y2="1445.1902">
			<stop  offset="0" style="stop-color:#DAE3FE"/>
			<stop  offset="1" style="stop-color:#E9EFFD"/>
		</linearGradient>
		<path style="fill:url(#SVGID_1_);" d="M3127.671,2291.216c-259.98,612.148-952.506,955.077-1553.067,862.573
			c-97.723-15.053-365.634-59.891-602.833-271.422C515.15,2475.153,417.498,1668.816,785.841,1100.57
			c268.089-413.583,748.667-648.029,1205.31-636.302c98.361,2.526,475.321,18.094,806.603,291.262
			c48.659,40.123,155.981,135.467,252.704,286.723C3277.581,1397.431,3297.103,1892.271,3127.671,2291.216z"/>
		<g>
			<g>
				<path style="fill:#7D97F4;" d="M2736.726,2922.12c1.458,0,2.936-0.083,4.418-0.252c21.016-2.412,36.094-21.404,33.677-42.424
					L2534.403,787.274c-2.413-21.002-21.441-36.057-42.42-33.672c-21.016,2.412-36.094,21.404-33.677,42.425l240.417,2092.168
					C2700.969,2907.719,2717.529,2922.12,2736.726,2922.12z"/>
				<path style="fill:#7D97F4;" d="M1415.131,2922.129c17.528,0,33.341-12.109,37.338-29.932l469.095-2092.168
					c4.624-20.637-8.355-41.125-28.997-45.753c-20.594-4.592-41.12,8.349-45.753,28.996l-469.09,2092.169
					c-4.628,20.636,8.35,41.124,28.992,45.753C1409.534,2921.821,1412.353,2922.129,1415.131,2922.129z"/>
				<path style="fill:#7D97F4;" d="M2207.323,2922.12c21.152,0,38.301-17.149,38.301-38.301V1851.298
					c0-21.151-17.149-38.301-38.301-38.301c-21.151,0-38.301,17.15-38.301,38.301v1032.521
					C2169.022,2904.971,2186.172,2922.12,2207.323,2922.12z"/>
				
					<linearGradient id="SVGID_00000013907640390684413700000017881168084514321315_" gradientUnits="userSpaceOnUse" x1="1297.3936" y1="1385.5492" x2="2974.0427" y2="1385.5492">
					<stop  offset="0" style="stop-color:#4F52FF"/>
					<stop  offset="1" style="stop-color:#4042E2"/>
				</linearGradient>
				<path style="fill:url(#SVGID_00000013907640390684413700000017881168084514321315_);" d="M2973.826,557.584l-134.66,1696.104
					c-2.849,35.875-33.238,63.267-69.213,62.389l-1406.424-34.304c-41.002-1.001-71.726-37.905-65.278-78.409l269.244-1691.247
					c5.331-33.49,34.595-57.885,68.499-57.1l1271.84,29.447C2946.747,485.367,2976.906,518.784,2973.826,557.584z"/>
				<path style="fill:#BDD0FB;" d="M2856.101,531.153l-1179.406-27.305c-33.903-0.785-63.168,23.61-68.499,57.1l-254.059,1595.885
					c-6.448,40.504,24.276,77.407,65.278,78.408l1306.395,31.864c35.976,0.878,66.365-26.515,69.213-62.389l127.07-1600.444
					C2925.174,565.471,2895.014,532.054,2856.101,531.153z"/>
			</g>
			<g>
				<g>
					
						<linearGradient id="SVGID_00000060016066078087064140000005001329389841084859_" gradientUnits="userSpaceOnUse" x1="4010.9797" y1="3814.3638" x2="4058.4607" y2="4284.4243" gradientTransform="matrix(0.7469 -0.665 0.665 0.7469 -3442.7317 1093.4939)">
						<stop  offset="0" style="stop-color:#4F52FF"/>
						<stop  offset="1" style="stop-color:#4042E2"/>
					</linearGradient>
					<path style="fill:url(#SVGID_00000060016066078087064140000005001329389841084859_);" d="M2502.886,1449.515
						c-2.907-4.248-6.089-8.231-9.854-11.76c-3.773-3.537-8.255-6.51-11.654-10.435c-3.151-3.64-3.703-8.007-4.484-12.496
						c-0.889-5.102-2.058-9.888-4.146-14.735c-4.143-9.618-11.46-17.577-19.573-24.092c-14.966-12.018-34.448-18.8-52.788-20.322
						c-8.818-0.732-17.827-0.322-26.333,1.402c-9.285,1.882-18.496,6.721-28.292,6.12c-8.794-0.539-17.361-4.575-26.049-6.274
						c-9.769-1.911-19.177-0.383-27.844,3.54c-8.513,3.854-15.828,9.767-24.393,13.533c-7.442,3.273-15.208,2.402-23.327,1.172
						c-17.846-2.704-35.039-4.218-47.273,10.207c-5.653,6.665-9.192,15.261-17.488,19.042c-8.67,3.951-17.068,6.65-24.806,12.33
						c-27.73,20.353-36.885,59.761-23.697,93.43c0.801,2.044,2.358,3.588,4.231,4.616c-0.259,1.443-0.473,2.9-0.597,4.381
						c-1.393,16.701,5.72,34.13,17.79,46.516c13.953,14.319,31.577,21.367,50.067,26.048c4.521,1.145,9.455,2.322,13.235,5.421
						c3.827,3.138,5.993,8.029,7.968,12.388c4.163,9.189,7.803,18.417,15.571,25.377c7.184,6.437,16.017,10.283,24.919,13.189
						c10.76,3.513,21.653,6.569,32.474,9.826c10.866,3.27,21.722,6.587,32.598,9.808c9.218,2.729,18.792,5.236,28.262,5.195
						c10.121-0.043,18.964-2.97,26.533-9.28c4-3.334,7.448-7.879,12.199-10.208c4.204-2.061,9.232-2.209,13.913-2.668
						c19.609-1.923,36.613-10.822,48.296-26.276c4.831-6.39,6.947-16.915,13.287-21.81c3.845-2.969,9.473-3.603,13.932-5.484
						c4.069-1.717,7.83-4.112,11.308-6.772c16.126-12.336,19.879-31.555,21.307-51.456c1.451-20.224,2.08-41.309-3.072-61.595
						C2512.618,1467.591,2508.699,1458.01,2502.886,1449.515z"/>
					
						<linearGradient id="SVGID_00000083046822974617862660000016855204292482375600_" gradientUnits="userSpaceOnUse" x1="2773.2236" y1="1926.2408" x2="2133.7925" y2="1408.606">
						<stop  offset="0" style="stop-color:#4F52FF"/>
						<stop  offset="1" style="stop-color:#4042E2"/>
					</linearGradient>
					<path style="fill:url(#SVGID_00000083046822974617862660000016855204292482375600_);" d="M1685.144,1180.942
						c4.017,41.61,34.029,74.335,65.303,100.407c18.135,15.118,37.201,26.698,60.52,23.871c19.256-2.335,38.819-7.981,56.461-15.225
						c35.791-14.697,67.967-41.348,80.235-79.495c3.182-9.896,5.264-20.352,5.364-30.99c0.013-1.447,0.109-3.186,0.006-4.737
						c3.396-0.393,8.693-1.727,8.962-1.796c13.652-3.505,22.451-13.571,26.019-26.124c3.189-2.532,4.864-7.298,1.943-12.03
						c-0.044-0.071-0.088-0.143-0.132-0.214c0.022-1.111,0.016-2.229-0.033-3.354c-0.262-5.986-4.989-10.992-10.47-13.472
						c-13.654-21.397-28.584-41.927-49.46-57.151c-11.713-8.542-24.263-14.582-37.863-18.733
						c-13.504-4.121-27.526-6.212-40.729-11.556c-14.323-5.798-24.338-17.74-37.854-24.993c-10.195-5.471-22.223-7.321-33.113-5.541
						c-23.022,3.764-42.325,20.496-49.076,42.841c-5.881,19.464-4.139,40.188,1.881,60.09
						C1700.476,1110.915,1681.827,1146.584,1685.144,1180.942z"/>
					
						<linearGradient id="SVGID_00000178178834731547789440000015507266459699481228_" gradientUnits="userSpaceOnUse" x1="2201.1099" y1="1300.5033" x2="2633.9946" y2="1300.5033">
						<stop  offset="0" style="stop-color:#4F52FF"/>
						<stop  offset="1" style="stop-color:#4042E2"/>
					</linearGradient>
					<path style="fill:url(#SVGID_00000178178834731547789440000015507266459699481228_);" d="M2222.526,1413.283
						c16.372,28.583,42.766,49.555,74.334,56.677c22.176,5.003,45.234,2.817,63.559-8.201
						c21.138,24.361,50.781,40.902,82.393,42.773c35.628,2.108,68.823-13.537,89.594-40.845
						c10.608-13.948,19.33-26.536,33.91-36.655c13.252-9.197,27.545-17.057,39.709-27.712
						c23.964-20.991,34.981-53.931,23.247-86.714c-9.249-25.84-30.681-45.386-55.838-52.85
						c13.143-56.874-15.636-122.047-73.947-147.356c-26.375-11.448-56.686-12.804-82.937-4.654
						c-32.949-14.032-69.1-17.756-97.974,3.695c-22.136,16.445-29.311,46.089-20.609,72.194
						c-25.332,4.026-48.181,18.644-63.84,38.446C2195.819,1270.519,2189.389,1355.43,2222.526,1413.283z"/>
					
						<linearGradient id="SVGID_00000083073444443642792760000015134230621403434428_" gradientUnits="userSpaceOnUse" x1="4053.1936" y1="3923.562" x2="3716.8096" y2="3594.7881" gradientTransform="matrix(0.7469 -0.665 0.665 0.7469 -3442.7317 1093.4939)">
						<stop  offset="0" style="stop-color:#4F52FF"/>
						<stop  offset="1" style="stop-color:#4042E2"/>
					</linearGradient>
					<path style="fill:url(#SVGID_00000083073444443642792760000015134230621403434428_);" d="M1786.673,1471.88
						c21.396,22.976,50.093,36.456,80.267,35.723c21.197-0.515,41.533-7.983,55.551-22.626
						c24.729,17.895,55.339,26.453,84.341,20.783c32.687-6.391,59.077-28.87,71.544-59.375c6.367-15.58,11.344-29.442,22.185-42.362
						c9.854-11.743,20.956-22.477,29.49-35.333c16.812-25.327,19.164-58.825,0.99-86.832
						c-14.325-22.075-38.208-35.382-62.668-36.477c-1.253-56.457-42.31-110.854-100.854-120.906
						c-26.481-4.547-54.189,1.3-76.033,15.115c-33.019-5.427-66.551-0.43-87.695,26.482c-16.21,20.632-15.85,50.134-1.959,72.587
						c-21.965,9.729-39.241,28.813-48.822,51.073C1729.574,1344.185,1743.367,1425.375,1786.673,1471.88z"/>
					<g>
						
							<linearGradient id="SVGID_00000007411670422438297640000016822429617960782257_" gradientUnits="userSpaceOnUse" x1="2135.0959" y1="515.8478" x2="2131.7129" y2="1050.3994">
							<stop  offset="0" style="stop-color:#4F52FF"/>
							<stop  offset="1" style="stop-color:#4042E2"/>
						</linearGradient>
						<path style="fill:url(#SVGID_00000007411670422438297640000016822429617960782257_);" d="M2016.19,1546.386
							c21.888,20.344,55.069,34.176,79.036,26.665c22.489,17.904,37.743,14.533,63.937,22.033
							c48.434,13.87,82.453,15.883,111.413-12.386c26.675-26.038,18.995-84.989,36.3-97.189
							c17.305-12.201,84.92-27.994,108.977-40.057c54.567-27.361,81.855-79.297,79.928-142.399
							c-1.516-49.61-46.7-90.263-51.885-102.674s30.698-86.453,25.184-127.869c-5.815-43.681-33.42-92.269-77.025-118.655
							c-21.588-13.063-48.534-17.973-71.557-20.523c-6.491-0.719-12.638-0.651-19.022-0.969c-5.395-0.269-6.265-1.993-9.332-6.728
							c-7.313-11.29-15.589-22.184-25.24-32.174c-38.747-40.106-87.482-63.279-136.765-62.124
							c-42.305,0.992-82.096,26.315-98.654,36.408s-48.474-20.544-94.413-0.95c-45.939,19.594-40.839,60.66-58.19,71.236
							c-91.153,18.73-113.08,90.356-113.113,137.588c-0.042,59.173,31.265,77.086,36.024,86.667
							c4.96,19.447-20.143,40.567-28.325,53.78c-19.007,30.695-5.912,80.921,25.888,117.497
							c21.966,25.265,53.587,34.825,65.015,48.214c11.428,13.389,10.725,66.068,38.417,92.255
							c26.27,24.842,73.981,38.869,90.854,41.321C2010.515,1517.807,2006.296,1537.19,2016.19,1546.386z"/>
					</g>
					
						<linearGradient id="SVGID_00000055684938140244214330000010981045655859033223_" gradientUnits="userSpaceOnUse" x1="2167.7012" y1="1448.709" x2="2556.7734" y2="924.3068">
						<stop  offset="0" style="stop-color:#4F52FF"/>
						<stop  offset="1" style="stop-color:#4042E2"/>
					</linearGradient>
					<path style="fill:url(#SVGID_00000055684938140244214330000010981045655859033223_);" d="M2249.899,1478.429
						c-157.74,134.687-255.199,560.325-255.199,560.325l-162.401-99.069c195.852-246.416,71.908-411.104,68.458-480.019
						c-0.842-16.813,16.941-28.932,28.439,0.145c41.83,105.793,55.738,176.603,55.738,176.603
						c57.084-134.255,53.276-227.794,47.724-333.416c0,0,11.171-25.661,22.207,3.882c5.832,15.613,16.629,78.774,10.986,148.909
						c45.08-75.103,32.607-140.93,48.698-161.005c5.47-6.824,22.175-4.823,22.175-4.823s-11.913,177.542-94.153,369.415
						c0,0,93.741-186.796,150.756-228.931c10.687-7.661,19.087,2.062,11.358,19.957c0,0-25.211,32.147-51.759,87.071
						c50.351-46.667,58.541-57.907,76.326-73.743S2257.302,1460.647,2249.899,1478.429z"/>
					
						<linearGradient id="SVGID_00000125600483279342267860000017408923036654388414_" gradientUnits="userSpaceOnUse" x1="-4782.9849" y1="3400.7439" x2="-4261.9741" y2="3991.8059" gradientTransform="matrix(-0.7469 0.665 0.665 0.7469 -3977.3821 1569.9819)">
						<stop  offset="0" style="stop-color:#4F52FF"/>
						<stop  offset="1" style="stop-color:#4042E2"/>
					</linearGradient>
					<path style="fill:url(#SVGID_00000125600483279342267860000017408923036654388414_);" d="M1810.108,1330.8
						c14.886,8.789,31.666,16.31,48.643,17.192c8.841,0.459,17.557-0.69,25.561-3.939c4.272-1.734,8.123-4.207,11.806-6.906
						c3.883-2.846,8.064-8.041,12.801-9.443c8.212-2.429,19.227,1.133,28.035-0.228c7.671-1.186,15.307-3.81,21.963-7.525
						c15.558-8.684,27.594-22.629,33.436-39.784c2.921-8.578,3.226-17.462,3.335-26.61c0.115-9.612,8.478-10.861,14.37-17.039
						c14.195-14.884,15.497-37.678,12.652-58.096c-3.984-28.599-21.399-64.136-50.149-74.507
						c-1.643-20.772-20.177-39.393-40.85-44.643c-8.344-2.119-16.912-2.807-25.472-2.447c-10.184-10.743-24.242-17.245-39.46-16.083
						c-16.515,1.261-30.507,12.274-36.898,27.017c-48.779-10.965-99.216,8.404-123.226,51.352
						c-13.005,23.263-18.893,52.676-12.237,80.25c5.439,22.532,21.956,42.3,43.447,47.172
						C1745.436,1282.779,1779.098,1312.491,1810.108,1330.8z"/>
					
						<linearGradient id="SVGID_00000039825186326293424930000002977450257115772321_" gradientUnits="userSpaceOnUse" x1="2219.2502" y1="1366.9639" x2="2613.6624" y2="1366.9639">
						<stop  offset="0" style="stop-color:#4F52FF"/>
						<stop  offset="1" style="stop-color:#4042E2"/>
					</linearGradient>
					<path style="fill:url(#SVGID_00000039825186326293424930000002977450257115772321_);" d="M2262.853,1209.722
						c-2.456,4.968-4.475,10.094-5.677,15.599c-1.205,5.518-1.402,11.494-3.229,16.812c-1.694,4.931-5.733,7.552-9.751,10.464
						c-4.567,3.31-8.643,6.758-12.209,11.174c-7.076,8.761-10.515,19.979-12.011,31.33c-2.759,20.94,2.542,44.024,12.411,63.464
						c4.745,9.347,10.755,18.351,17.77,26.223c7.658,8.593,18.237,15.716,23.721,26c4.923,9.232,6.198,19.879,9.891,29.548
						c4.153,10.873,11.532,19.758,20.854,26.758c9.157,6.875,19.636,11.558,28.737,18.527c7.909,6.056,11.861,14.395,15.671,23.262
						c8.377,19.493,17.541,37.758,39.617,43.452c10.201,2.631,21.025,2.195,29.974,8.883c9.352,6.99,17.279,14.292,27.786,19.516
						c37.653,18.721,82.883,9.505,108.47-19.819c1.553-1.78,2.135-4.098,2.002-6.493c1.609-0.415,3.204-0.882,4.767-1.454
						c17.623-6.445,30.691-21.916,35.619-40.073c5.697-20.99,1.817-42.301-4.976-63.383c-1.661-5.155-3.545-10.747-2.785-16.065
						c0.77-5.385,4.332-9.9,7.479-13.969c6.634-8.579,13.631-16.641,15.787-27.85c1.994-10.366,0.365-21.196-2.251-31.652
						c-3.162-12.64-6.863-25.2-10.32-37.781c-3.471-12.633-6.888-25.278-10.416-37.899c-2.989-10.696-6.424-21.651-12.349-31.3
						c-6.332-10.312-14.765-17.961-25.799-22.716c-5.831-2.513-12.533-3.892-17.823-7.646c-4.68-3.321-7.953-8.384-11.323-12.947
						c-14.115-19.113-33.61-32.28-56.375-36.928c-9.414-1.922-21.289,0.876-30.14-3.29c-5.368-2.527-9.501-7.974-14.159-11.64
						c-4.251-3.345-8.991-6.057-13.821-8.353c-22.398-10.652-44.014-5.431-64.87,2.486c-21.194,8.046-42.74,17.335-59.894,32.151
						C2274.943,1191.271,2267.765,1199.785,2262.853,1209.722z"/>
					
						<linearGradient id="SVGID_00000173847168349037205670000011901366761083322755_" gradientUnits="userSpaceOnUse" x1="1885.1023" y1="1127.3693" x2="2336.4487" y2="1127.3693">
						<stop  offset="0" style="stop-color:#4F52FF"/>
						<stop  offset="1" style="stop-color:#4042E2"/>
					</linearGradient>
					<path style="fill:url(#SVGID_00000173847168349037205670000011901366761083322755_);" d="M1890.228,1041.322
						c-9.59,30.864-5.858,64.696,12.338,93.766c12.782,20.421,31.72,36.969,53.865,44.234c-2.794,31.893,6.76,65.441,29.002,91.215
						c25.068,29.048,61.887,44.943,98.316,43.776c18.606-0.596,34.761-1.797,53.414,3.125c16.955,4.473,33.666,10.604,50.92,13.307
						c33.992,5.324,67.423-7.001,83.697-36.922c12.827-23.585,11.719-52.652-1.413-76.953
						c53.319-25.853,81.589-89.577,57.271-150.984c-11-27.776-32.661-52.212-58.55-67.46
						c-13.948-34.528-38.172-65.008-76.192-73.859c-29.148-6.786-57.182,6.437-70.621,29.763
						c-22.047-17.149-50.333-25.649-77.196-25.268C1979.364,929.993,1909.639,978.852,1890.228,1041.322z"/>
					
						<linearGradient id="SVGID_00000054983009102062635660000003617923566399892659_" gradientUnits="userSpaceOnUse" x1="3403.1023" y1="4067.1252" x2="3396.6116" y2="4471.1763" gradientTransform="matrix(0.7469 -0.665 0.665 0.7469 -3442.7317 1093.4939)">
						<stop  offset="0" style="stop-color:#41A362"/>
						<stop  offset="1" style="stop-color:#204F2E"/>
					</linearGradient>
					<path style="fill:url(#SVGID_00000054983009102062635660000003617923566399892659_);" d="M1832.298,1939.685
						c20.541-18.287,163.528,44.278,162.401,99.069C1993.574,2093.545,1791.753,1975.782,1832.298,1939.685z"/>
				</g>
				<g>
					<path style="fill:#91B3FA;" d="M2485.14,1600.824c0,0,190.342-74.319,229.94-90.552c39.598-16.233,103.126,26.298,22.101,73.1
						s-227.413,56.813-227.413,56.813L2485.14,1600.824z"/>
					<path style="fill:#7D97F4;" d="M2510.568,1632.205c0,0,168.928-43.82,215.732-53.274
						c46.804-9.455,106.302,49.371,15.867,88.565c-90.435,39.194-233.796-5.165-233.796-5.165L2510.568,1632.205z"/>
					<path style="fill:#7D97F4;" d="M2482.374,1582.443c0,0,152.834-129.405,203.458-139.789
						c50.625-10.384,77.911,38.314,11.049,94.371c-66.862,56.057-194.773,84.138-194.773,84.138L2482.374,1582.443z"/>
					
						<linearGradient id="SVGID_00000046337752714776886040000018095043606721802170_" gradientUnits="userSpaceOnUse" x1="2148.7092" y1="722.5105" x2="1952.4832" y2="2288.946">
						<stop  offset="0" style="stop-color:#E1473D"/>
						<stop  offset="1" style="stop-color:#E9605A"/>
					</linearGradient>
					<path style="fill:url(#SVGID_00000046337752714776886040000018095043606721802170_);" d="M1502.171,1849.042
						c-14.956,6.181-11.105,27.08,4.862,26.389c210.294-9.096,787.02-33.977,879.704-37.283
						c113.732-4.057,181.834-115.78,143.954-223.071c-37.88-107.291-129.175-117.526-273.196-68.738
						C2142.184,1585.402,1681.332,1775,1502.171,1849.042z"/>
					
						<linearGradient id="SVGID_00000070823170702158103930000013350156903227063696_" gradientUnits="userSpaceOnUse" x1="3489.5317" y1="-420.2915" x2="3624.8582" y2="-951.4454" gradientTransform="matrix(0.9998 0.0218 -0.0218 0.9998 -253.8086 -1225.1169)">
						<stop  offset="0" style="stop-color:#E1473D"/>
						<stop  offset="1" style="stop-color:#E9605A"/>
					</linearGradient>
					<path style="fill:url(#SVGID_00000070823170702158103930000013350156903227063696_);" d="M2339.445,1541.94
						c-15.889,6.609-18.966,7.997,0.296,42.709c19.262,34.712,37.526,76.186,55.843,68.381
						C2413.901,1645.225,2361.675,1532.693,2339.445,1541.94z"/>
					
						<linearGradient id="SVGID_00000026133216432196304900000006673453405140981157_" gradientUnits="userSpaceOnUse" x1="3544.2312" y1="-716.4658" x2="3679.5583" y2="-1247.6234" gradientTransform="matrix(1 -0.0041 0.0041 1 -340.9295 -1190.7358)">
						<stop  offset="0" style="stop-color:#E1473D"/>
						<stop  offset="1" style="stop-color:#E9605A"/>
					</linearGradient>
					<path style="fill:url(#SVGID_00000026133216432196304900000006673453405140981157_);" d="M2296.117,1654.263
						c11.763,18.619,33.95,60.144,28.775,101.749c-1.293,10.395-10.639,18.601-21.536,18.958l-0.017,0.001
						c-10.047,0.329-18.523-6.13-20.297-15.465c-3.903-20.532-11.986-56.83-24.669-85.124c-5.639-12.579,3.791-27.431,18.422-28.968
						l0,0C2284.674,1644.586,2292.148,1647.982,2296.117,1654.263z"/>
					
						<linearGradient id="SVGID_00000084496426525015306250000006512310100741789351_" gradientUnits="userSpaceOnUse" x1="3419.5227" y1="-748.2328" x2="3554.8496" y2="-1279.3892" gradientTransform="matrix(1 -0.0041 0.0041 1 -340.9295 -1190.7358)">
						<stop  offset="0" style="stop-color:#E1473D"/>
						<stop  offset="1" style="stop-color:#E9605A"/>
					</linearGradient>
					<path style="fill:url(#SVGID_00000084496426525015306250000006512310100741789351_);" d="M2152.923,1610.464l3.769-1.277
						c4.936-1.673,10.247-0.375,13.515,3.236c19.012,21.006,28.842,48.65,27.777,84.173c-0.173,5.781-4.504,10.92-10.46,12.285
						l-0.412,0.094c-7.854,1.8-14.95-3.596-14.99-11.207c-0.142-26.918-9.301-49.134-25.471-67.691
						C2141.022,1623.619,2144.234,1613.408,2152.923,1610.464z"/>
					
						<linearGradient id="SVGID_00000172407927667687732510000018038172430640620174_" gradientUnits="userSpaceOnUse" x1="2383.8599" y1="2315.8042" x2="2519.1938" y2="1784.6194" gradientTransform="matrix(0.9684 0.2492 -0.2492 0.9684 559.7023 -1394.8663)">
						<stop  offset="0" style="stop-color:#E1473D"/>
						<stop  offset="1" style="stop-color:#E9605A"/>
					</linearGradient>
					<path style="fill:url(#SVGID_00000172407927667687732510000018038172430640620174_);" d="M2107.667,1726.594l3.272-0.284
						c4.286-0.372,8.213,1.762,10.007,5.376c10.438,21.026,12.123,45.632,3.422,74.484c-1.416,4.695-5.988,8.026-11.015,7.94
						l-0.347-0.006c-6.629-0.113-11.066-5.961-9.415-12.197c5.84-22.055,3.487-42.083-5.239-60.532
						C2095.316,1734.956,2100.122,1727.25,2107.667,1726.594z"/>
					
						<linearGradient id="SVGID_00000123406284001134596150000005268154870486604210_" gradientUnits="userSpaceOnUse" x1="4122.2397" y1="-3354.2891" x2="4257.5649" y2="-3885.4382" gradientTransform="matrix(0.9678 -0.2519 0.2519 0.9678 -1138.0416 -788.8196)">
						<stop  offset="0" style="stop-color:#E1473D"/>
						<stop  offset="1" style="stop-color:#E9605A"/>
					</linearGradient>
					<path style="fill:url(#SVGID_00000123406284001134596150000005268154870486604210_);" d="M2024.383,1665.915l1.89-1.183
						c2.475-1.55,5.589-1.562,7.915-0.067c13.528,8.699,22.966,22.165,27.55,41.289c0.746,3.112-0.891,6.434-3.973,7.954
						l-0.213,0.105c-4.064,2.005-8.758,0.064-9.887-3.997c-3.997-14.365-12.274-25.02-23.882-32.788
						C2019.744,1674.526,2020.026,1668.643,2024.383,1665.915z"/>
					
						<linearGradient id="SVGID_00000080922542887558539970000004255709961290035882_" gradientUnits="userSpaceOnUse" x1="2227.5325" y1="2610.7805" x2="2151.5427" y2="2792.9893" gradientTransform="matrix(0.9753 0.2206 -0.2206 0.9753 453.3558 -1368.2083)">
						<stop  offset="0" style="stop-color:#FF928E"/>
						<stop  offset="1" style="stop-color:#FE7062"/>
					</linearGradient>
					<path style="fill:url(#SVGID_00000080922542887558539970000004255709961290035882_);" d="M1969.984,1728.196l3.5-0.402
						c4.585-0.527,8.867,1.635,10.911,5.444c11.891,22.16,14.511,48.408,6.133,79.51c-1.363,5.061-6.158,8.76-11.552,8.82
						l-0.373,0.004c-7.114,0.079-12.066-6.038-10.501-12.752c5.535-23.751,2.349-45.086-7.62-64.543
						C1957.013,1737.506,1961.913,1729.124,1969.984,1728.196z"/>
					
						<linearGradient id="SVGID_00000029041471335998616760000008314721810515460239_" gradientUnits="userSpaceOnUse" x1="2234.9402" y1="2876.5125" x2="2179.7393" y2="3008.8738" gradientTransform="matrix(1 -0.0041 0.0041 1 -340.9295 -1190.7358)">
						<stop  offset="0" style="stop-color:#FF928E"/>
						<stop  offset="1" style="stop-color:#FE7062"/>
					</linearGradient>
					<path style="fill:url(#SVGID_00000029041471335998616760000008314721810515460239_);" d="M1872.932,1734.756
						c5.882,9.309,16.975,30.072,14.387,50.875c-0.646,5.197-5.32,9.3-10.768,9.479l-0.009,0c-5.023,0.164-9.261-3.065-10.149-7.732
						c-1.952-10.266-5.993-28.415-12.335-42.562c-2.819-6.29,1.895-13.716,9.211-14.484l0,0
						C1867.211,1729.917,1870.948,1731.615,1872.932,1734.756z"/>
					
						<linearGradient id="SVGID_00000178896971101288638420000017249937547520644738_" gradientUnits="userSpaceOnUse" x1="2106.2656" y1="2925.3511" x2="2051.0645" y2="3057.7124" gradientTransform="matrix(1 -0.0041 0.0041 1 -340.9295 -1190.7358)">
						<stop  offset="0" style="stop-color:#FF928E"/>
						<stop  offset="1" style="stop-color:#FE7062"/>
					</linearGradient>
					<path style="fill:url(#SVGID_00000178896971101288638420000017249937547520644738_);" d="M1744.458,1784.122
						c5.882,9.309,16.974,30.072,14.387,50.875c-0.646,5.197-5.32,9.3-10.768,9.479l-0.009,0c-5.023,0.165-9.262-3.065-10.149-7.732
						c-1.952-10.266-5.993-28.415-12.335-42.562c-2.82-6.29,1.895-13.716,9.211-14.484h0
						C1738.737,1779.284,1742.474,1780.981,1744.458,1784.122z"/>
					
						<linearGradient id="SVGID_00000058582221235121360730000003980151433533992358_" gradientUnits="userSpaceOnUse" x1="2162.3862" y1="2966.6006" x2="2131.2297" y2="3041.3079" gradientTransform="matrix(1 -0.0041 0.0041 1 -340.9295 -1190.7358)">
						<stop  offset="0" style="stop-color:#FF928E"/>
						<stop  offset="1" style="stop-color:#FE7062"/>
					</linearGradient>
					<path style="fill:url(#SVGID_00000058582221235121360730000003980151433533992358_);" d="M1815.066,1799.816
						c3.32,5.255,9.581,16.973,8.12,28.714c-0.365,2.934-3.003,5.249-6.078,5.35l-0.005,0c-2.835,0.093-5.227-1.73-5.728-4.364
						c-1.101-5.794-3.382-16.038-6.962-24.023c-1.592-3.55,1.07-7.741,5.199-8.175l0,0
						C1811.837,1797.085,1813.946,1798.043,1815.066,1799.816z"/>
				</g>
				<g>
					<path style="fill:#91B3FA;" d="M2494.804,1784.237c0,0,172.223-47.519,208.13-58.081
						c35.907-10.562,86.555,32.605,11.705,66.128s-202.52,28.739-202.52,28.739L2494.804,1784.237z"/>
					<path style="fill:#7D97F4;" d="M2513.62,1814.101c0,0,150.601-22.766,192.054-26.719s86.961,53.125,4.741,79.107
						c-82.22,25.982-201.753-26.183-201.753-26.183L2513.62,1814.101z"/>
					<path style="fill:#7D97F4;" d="M2494.276,1767.867c0,0,145.361-99.282,190.214-103.696c44.854-4.413,63.52,40.803-0.016,83.75
						c-63.536,42.947-177.053,55.716-177.053,55.716L2494.276,1767.867z"/>
					
						<linearGradient id="SVGID_00000013151761470026805100000000502125906549515410_" gradientUnits="userSpaceOnUse" x1="2882.1868" y1="826.3023" x2="2229.2205" y2="1695.7949">
						<stop  offset="0" style="stop-color:#FF928E"/>
						<stop  offset="1" style="stop-color:#FE7062"/>
					</linearGradient>
					<path style="fill:url(#SVGID_00000013151761470026805100000000502125906549515410_);" d="M1619.164,1910.781
						c-13.566,4.033-12.356,22.71,1.529,23.584c182.867,11.504,684.368,43.112,764.893,48.799
						c98.811,6.978,169.069-84.652,147.181-182.213c-21.887-97.561-99.836-114.99-229.392-85.561
						C2199.647,1738.952,1781.685,1862.47,1619.164,1910.781z"/>
					
						<linearGradient id="SVGID_00000170979824500528044820000009761935104489947566_" gradientUnits="userSpaceOnUse" x1="2362.1907" y1="1770.5227" x2="2416.4888" y2="1770.5227">
						<stop  offset="0" style="stop-color:#E1473D"/>
						<stop  offset="1" style="stop-color:#E9605A"/>
					</linearGradient>
					<path style="fill:url(#SVGID_00000170979824500528044820000009761935104489947566_);" d="M2374.725,1719.124
						c-14.418,4.322-17.221,5.254-4.078,37.467s24.737,70.261,41.376,65.116C2428.663,1816.561,2394.896,1713.077,2374.725,1719.124
						z"/>
					
						<linearGradient id="SVGID_00000066489556545633975660000009078579031791680177_" gradientUnits="userSpaceOnUse" x1="2290.3811" y1="1862.0685" x2="2343.0408" y2="1862.0685">
						<stop  offset="0" style="stop-color:#E1473D"/>
						<stop  offset="1" style="stop-color:#E9605A"/>
					</linearGradient>
					<path style="fill:url(#SVGID_00000066489556545633975660000009078579031791680177_);" d="M2325.841,1813.574
						c8.288,17.411,23.27,55.868,14.571,91.86c-2.173,8.993-11.093,15.32-20.556,14.624l-0.015-0.001
						c-8.726-0.642-15.404-7.089-15.992-15.436c-1.294-18.36-4.604-50.928-12.707-76.906c-3.602-11.549,6.063-23.695,18.878-23.688
						h0C2316.922,1804.031,2323.044,1807.7,2325.841,1813.574z"/>
					
						<linearGradient id="SVGID_00000125583975321746439320000012113412754442505151_" gradientUnits="userSpaceOnUse" x1="2197.2378" y1="1806.1885" x2="2238.1611" y2="1806.1885">
						<stop  offset="0" style="stop-color:#E1473D"/>
						<stop  offset="1" style="stop-color:#E9605A"/>
					</linearGradient>
					<path style="fill:url(#SVGID_00000125583975321746439320000012113412754442505151_);" d="M2206.395,1761.916l3.39-0.771
						c4.441-1.009,8.904,0.62,11.365,4.088c14.317,20.175,20.017,45.319,15.491,76.36c-0.737,5.051-5.005,9.155-10.296,9.8
						l-0.365,0.045c-6.978,0.85-12.57-4.537-11.832-11.213c2.608-23.61-3.062-43.933-15.169-61.698
						C2194.764,1772.345,2198.578,1763.692,2206.395,1761.916z"/>
					
						<linearGradient id="SVGID_00000160172209535460043140000018325667566427222449_" gradientUnits="userSpaceOnUse" x1="2143.6653" y1="1898.1837" x2="2170.8101" y2="1898.1837">
						<stop  offset="0" style="stop-color:#E1473D"/>
						<stop  offset="1" style="stop-color:#E9605A"/>
					</linearGradient>
					<path style="fill:url(#SVGID_00000160172209535460043140000018325667566427222449_);" d="M2155.456,1859.526l2.86,0.054
						c3.746,0.071,6.927,2.305,8.113,5.64c6.897,19.399,5.859,41.124-4.597,65.611c-1.701,3.985-5.995,6.481-10.336,5.94l-0.3-0.037
						c-5.724-0.713-8.969-6.251-6.908-11.564c7.291-18.793,7.287-36.567,1.61-53.548
						C2143.923,1865.711,2148.862,1859.401,2155.456,1859.526z"/>
					
						<linearGradient id="SVGID_00000090974147657988858870000001917002696654768779_" gradientUnits="userSpaceOnUse" x1="2637.3672" y1="3398.5747" x2="2596.8091" y2="3495.825" gradientTransform="matrix(0.9897 -0.1435 0.1435 0.9897 -978.8743 -1230.8684)">
						<stop  offset="0" style="stop-color:#FF928E"/>
						<stop  offset="1" style="stop-color:#FE7062"/>
					</linearGradient>
					<path style="fill:url(#SVGID_00000090974147657988858870000001917002696654768779_);" d="M2089.557,1798.619l1.755-0.862
						c2.299-1.129,4.994-0.852,6.854,0.675c10.822,8.878,17.621,21.557,19.647,38.746c0.33,2.797-1.424,5.557-4.244,6.605
						l-0.195,0.072c-3.719,1.381-7.583-0.755-8.149-4.42c-2-12.963-8.081-23.07-17.335-30.954
						C2084.669,1805.738,2085.511,1800.607,2089.557,1798.619z"/>
					
						<linearGradient id="SVGID_00000147213325449183153070000000714264575998388914_" gradientUnits="userSpaceOnUse" x1="2488.5242" y1="2774.3052" x2="2421.2996" y2="2935.4971" gradientTransform="matrix(0.945 0.3269 -0.3269 0.945 667.2071 -1631.0034)">
						<stop  offset="0" style="stop-color:#FF928E"/>
						<stop  offset="1" style="stop-color:#FE7062"/>
					</linearGradient>
					<path style="fill:url(#SVGID_00000147213325449183153070000000714264575998388914_);" d="M2036.172,1848.177l3.07-0.029
						c4.02-0.037,7.506,2.255,8.887,5.783c8.039,20.527,7.643,43.779-2.762,70.268c-1.693,4.31-6.216,7.108-10.89,6.661
						l-0.323-0.031c-6.163-0.59-9.827-6.41-7.791-12.152c7.199-20.307,6.607-39.305-0.044-57.285
						C2024.005,1855.136,2029.095,1848.242,2036.172,1848.177z"/>
					
						<linearGradient id="SVGID_00000082333539045267142130000001444379969237083011_" gradientUnits="userSpaceOnUse" x1="2471.304" y1="3094.7061" x2="2422.4885" y2="3211.7556" gradientTransform="matrix(0.9943 0.1063 -0.1063 0.9943 -142.218 -1542.7699)">
						<stop  offset="0" style="stop-color:#FF928E"/>
						<stop  offset="1" style="stop-color:#FE7062"/>
					</linearGradient>
					<path style="fill:url(#SVGID_00000082333539045267142130000001444379969237083011_);" d="M1951.539,1844.938
						c4.144,8.706,11.635,27.934,7.286,45.93c-1.087,4.496-5.546,7.66-10.278,7.312l-0.008-0.001
						c-4.363-0.321-7.702-3.545-7.996-7.718c-0.647-9.18-2.302-25.464-6.353-38.453c-1.801-5.775,3.032-11.848,9.439-11.844l0,0
						C1947.08,1840.166,1950.141,1842.001,1951.539,1844.938z"/>
					
						<linearGradient id="SVGID_00000119106889780806115810000012765642012601312909_" gradientUnits="userSpaceOnUse" x1="2359.1299" y1="3138.2537" x2="2310.3147" y2="3255.303" gradientTransform="matrix(0.9943 0.1063 -0.1063 0.9943 -142.218 -1542.7699)">
						<stop  offset="0" style="stop-color:#FF928E"/>
						<stop  offset="1" style="stop-color:#FE7062"/>
					</linearGradient>
					<path style="fill:url(#SVGID_00000119106889780806115810000012765642012601312909_);" d="M1835.375,1876.313
						c4.144,8.706,11.635,27.934,7.286,45.93c-1.087,4.496-5.546,7.66-10.278,7.312l-0.008-0.001
						c-4.363-0.321-7.702-3.545-7.996-7.718c-0.647-9.18-2.302-25.464-6.353-38.453c-1.801-5.775,3.031-11.848,9.439-11.844h0
						C1830.916,1871.542,1833.977,1873.376,1835.375,1876.313z"/>
					
						<linearGradient id="SVGID_00000119840311412991553030000013164984614535241889_" gradientUnits="userSpaceOnUse" x1="2407.7295" y1="3174.4739" x2="2380.1772" y2="3240.5388" gradientTransform="matrix(0.9943 0.1063 -0.1063 0.9943 -142.218 -1542.7699)">
						<stop  offset="0" style="stop-color:#FF928E"/>
						<stop  offset="1" style="stop-color:#FE7062"/>
					</linearGradient>
					<path style="fill:url(#SVGID_00000119840311412991553030000013164984614535241889_);" d="M1894.872,1896.61
						c2.339,4.914,6.567,15.766,4.112,25.924c-0.613,2.538-3.13,4.323-5.801,4.127l-0.004,0c-2.462-0.181-4.347-2.001-4.513-4.356
						c-0.365-5.181-1.299-14.372-3.586-21.704c-1.017-3.259,1.711-6.687,5.328-6.685l0,0
						C1892.355,1893.917,1894.083,1894.953,1894.872,1896.61z"/>
				</g>
				<g>
					
						<linearGradient id="SVGID_00000177467363657605659870000000266046297738113727_" gradientUnits="userSpaceOnUse" x1="2167.188" y1="1746.2625" x2="1477.0104" y2="1962.7892">
						<stop  offset="0" style="stop-color:#FF928E"/>
						<stop  offset="1" style="stop-color:#FE7062"/>
					</linearGradient>
					<path style="fill:url(#SVGID_00000177467363657605659870000000266046297738113727_);" d="M1819.697,1633.025
						c-31.535,11.776-66.253,12.089-98.172,1.398c-35.522-11.897-93.175-14.445-180.543,24.713
						c-171.299,76.775-165.246,411.755,77.9,461.853c317.556,65.43,466.517-91.866,493.933-205.021s-45.126-257.046-186.066-287.79
						C1880.591,1618.108,1845.153,1623.519,1819.697,1633.025z"/>
					<path style="opacity:0.23;fill:#FFFFFF;" d="M1600.238,1684.281c27.899,1.806,79.913,13.716,32.228,74.689
						c-47.686,60.973-87.677,161.664-67.314,226.954c20.363,65.29-112.087-15.408-119.645-102.234
						C1437.948,1796.862,1513.582,1678.671,1600.238,1684.281z"/>
					
						<linearGradient id="SVGID_00000164501174253635299340000001180198442012504204_" gradientUnits="userSpaceOnUse" x1="1936.1141" y1="1277.5781" x2="1682.3715" y2="1883.1776">
						<stop  offset="0" style="stop-color:#FF928E"/>
						<stop  offset="1" style="stop-color:#FE7062"/>
					</linearGradient>
					<path style="fill:url(#SVGID_00000164501174253635299340000001180198442012504204_);" d="M1862.514,1671.178
						c0,15.877-40.923,28.747-91.404,28.747s-91.404-12.87-91.404-28.747s40.923,0,91.404,0S1862.514,1655.302,1862.514,1671.178z"
						/>
					<path style="fill:#7D97F4;" d="M1747.408,1667.278c0,0-29.08-120.721,108.8-197.997
						c137.88-77.276,134.773-84.267,142.301-43.391c7.528,40.876,49.135,185.746-101.955,247.985
						S1747.408,1667.278,1747.408,1667.278z"/>
					<path style="fill:#91B3FA;" d="M1973.632,1430.377c-21.631,35.22-122.073,194.169-210.459,257
						c0,0,104.829,13.526,180.033-56.896c64.316-60.226,43.979-168.902,36.742-199.108
						C1979.229,1428.371,1975.248,1427.746,1973.632,1430.377z"/>
					
						<linearGradient id="SVGID_00000176761247699630373080000015086434921098511783_" gradientUnits="userSpaceOnUse" x1="1687.1689" y1="1629.2129" x2="1761.4381" y2="1629.2129">
						<stop  offset="0" style="stop-color:#4F52FF"/>
						<stop  offset="1" style="stop-color:#4042E2"/>
					</linearGradient>
					<path style="fill:url(#SVGID_00000176761247699630373080000015086434921098511783_);" d="M1750.168,1691.026
						c2.309,16.067,15.987-1.648,9.574-33.563c-6.413-31.916-12.995-107.813-59.07-94.548
						C1654.596,1576.18,1740.425,1623.214,1750.168,1691.026z"/>
				</g>
			</g>
			<path style="opacity:0.67;fill:#FFFFFF;" d="M2800.535,709.529H1683.042c-7.021,0-12.713-5.692-12.713-12.713v-60.595
				c0-7.021,5.692-12.713,12.713-12.713h1117.494c7.021,0,12.713,5.692,12.713,12.713v60.595
				C2813.248,703.837,2807.556,709.529,2800.535,709.529z"/>
		</g>
		<g>
			<g>
				<g>
					<path style="fill:#91B3FA;" d="M499.186,3167.265l1319.411,0.002v-264.08l-1319.411,0.002
						C527.427,2903.189,527.427,3167.265,499.186,3167.265z"/>
					
						<linearGradient id="SVGID_00000119087455672273024710000015399417904354463627_" gradientUnits="userSpaceOnUse" x1="1195.3336" y1="3669.6472" x2="1193.0781" y2="3150.8857">
						<stop  offset="0" style="stop-color:#4F52FF"/>
						<stop  offset="1" style="stop-color:#4042E2"/>
					</linearGradient>
					<path style="fill:url(#SVGID_00000119087455672273024710000015399417904354463627_);" d="M1818.597,3101.182v-120.854
						c0-42.603-26.074-77.139-58.238-77.139H504.749c-25.294,0-45.798-20.505-45.798-45.799v0c0-7.685,6.23-13.915,13.915-13.915
						h1372.284c31.471,0,81.436,49.479,81.436,110.515v168.787c0,57.548-48.507,104.199-78.18,104.199H480.085
						c-11.672,0-21.134-9.462-21.134-21.134c0-21.306,17.272-38.578,38.577-38.578h1271.179
						C1796.261,3167.265,1818.597,3137.679,1818.597,3101.182z"/>
				</g>
				<path style="fill:#FFFFFF;" d="M1782.004,2960.753H544.875c-1.87,0-3.383-1.513-3.383-3.383c0-1.87,1.513-3.383,3.383-3.383
					h1237.129c1.87,0,3.383,1.513,3.383,3.383C1785.387,2959.24,1783.874,2960.753,1782.004,2960.753z"/>
				<path style="fill:#FFFFFF;" d="M1782.004,2999.951H544.875c-1.87,0-3.383-1.513-3.383-3.383c0-1.87,1.513-3.383,3.383-3.383
					h1237.129c1.87,0,3.383,1.513,3.383,3.383C1785.387,2998.438,1783.874,2999.951,1782.004,2999.951z"/>
				<path style="fill:#FFFFFF;" d="M1782.004,3039.149H544.875c-1.87,0-3.383-1.513-3.383-3.383c0-1.87,1.513-3.383,3.383-3.383
					h1237.129c1.87,0,3.383,1.513,3.383,3.383C1785.387,3037.635,1783.874,3039.149,1782.004,3039.149z"/>
				<path style="fill:#FFFFFF;" d="M1782.004,3078.347H544.875c-1.87,0-3.383-1.513-3.383-3.383c0-1.87,1.513-3.383,3.383-3.383
					h1237.129c1.87,0,3.383,1.513,3.383,3.383C1785.387,3076.833,1783.874,3078.347,1782.004,3078.347z"/>
				<path style="fill:#FFFFFF;" d="M1782.004,3117.545H544.875c-1.87,0-3.383-1.513-3.383-3.383c0-1.87,1.513-3.383,3.383-3.383
					h1237.129c1.87,0,3.383,1.513,3.383,3.383C1785.387,3116.031,1783.874,3117.545,1782.004,3117.545z"/>
			</g>
			<g>
				
					<linearGradient id="SVGID_00000061433189876974200380000010377561361156852902_" gradientUnits="userSpaceOnUse" x1="1191.4888" y1="2906.9834" x2="1267.233" y2="2408.9063">
					<stop  offset="0" style="stop-color:#4F52FF"/>
					<stop  offset="1" style="stop-color:#4042E2"/>
				</linearGradient>
				<path style="fill:url(#SVGID_00000061433189876974200380000010377561361156852902_);" d="M641.524,2842.274h1163.19
					c6.635,0,12.014-5.379,12.014-12.014v-262.549c0-6.635-5.379-12.014-12.014-12.014H641.524c-6.635,0-12.013,5.379-12.013,12.014
					v262.549C629.511,2836.896,634.889,2842.274,641.524,2842.274z"/>
				<path style="fill:#91B3FA;" d="M1550.327,2809.339h124.988c4,0,7.242-3.242,7.242-7.242v-206.22c0-4-3.242-7.242-7.242-7.242
					h-124.988c-4,0-7.242,3.242-7.242,7.242v206.22C1543.085,2806.096,1546.327,2809.339,1550.327,2809.339z"/>
				<path style="fill:#91B3FA;" d="M1473.909,2809.339h44.992c2.027,0,3.669-1.643,3.669-3.669v-213.365
					c0-2.027-1.643-3.669-3.67-3.669h-44.992c-2.027,0-3.669,1.643-3.669,3.669v213.365
					C1470.239,2807.696,1471.882,2809.339,1473.909,2809.339z"/>
			</g>
		</g>
		<g>
			<g>
				
					<linearGradient id="SVGID_00000084504067990682485300000005889174358261873284_" gradientUnits="userSpaceOnUse" x1="2316.4932" y1="1932.7867" x2="2396.9888" y2="2134.7083" gradientTransform="matrix(1 0 0 1 572.0411 0)">
					<stop  offset="0" style="stop-color:#09005D"/>
					<stop  offset="1" style="stop-color:#1A0F91"/>
				</linearGradient>
				<path style="fill:url(#SVGID_00000084504067990682485300000005889174358261873284_);" d="M2936.263,2041.404
					c0,0,27.137,13.2,32.127,28.363c4.003,12.167,34.01,13.735,36.974,37.663c1.531,12.354,10.673,22.248,22.977,24.134
					c30.646,4.697,77.875,20.612,85.432,73.821c5.768,40.614-14.936,56.014-36.665,61.345c-15.959,3.915-26.565,19.438-23.337,35.55
					c3.096,15.454-1.521,33.32-28.294,47.447c-59.996,31.658-119.912-75-119.912-75l-12.279-186.232L2936.263,2041.404z"/>
				
					<linearGradient id="SVGID_00000112626520936849208360000009707605904274530714_" gradientUnits="userSpaceOnUse" x1="1860.9166" y1="2651.5012" x2="2009.6254" y2="2989.8472" gradientTransform="matrix(0.9776 -0.2106 0.2106 0.9776 321.6211 -113.5247)">
					<stop  offset="0" style="stop-color:#FEBBBA"/>
					<stop  offset="1" style="stop-color:#FF928E"/>
				</linearGradient>
				<path style="fill:url(#SVGID_00000112626520936849208360000009707605904274530714_);" d="M2609.806,1997.254
					c0,0,119.791,189.476,262.236,226.073c0,0-27.756,79.054-49.179,88.102c0,0-175.248-146.224-220.284-287.251L2609.806,1997.254z
					"/>
				
					<linearGradient id="SVGID_00000010310968906250295730000014636038886393242287_" gradientUnits="userSpaceOnUse" x1="3338.6799" y1="1509.7333" x2="3095.0857" y2="2111.9509" gradientTransform="matrix(1 0 0 1 572.0411 0)">
					<stop  offset="0" style="stop-color:#09005D"/>
					<stop  offset="1" style="stop-color:#1A0F91"/>
				</linearGradient>
				<path style="fill:url(#SVGID_00000010310968906250295730000014636038886393242287_);" d="M3182.873,3209.139l3.883,31.917
					c0.737,6.055,5.503,10.843,11.563,11.535c10.232,1.169,26.651,2.367,42.715,0.668c7.051-0.745,11.629-7.885,9.481-14.643
					c-3.916-12.321-11.081-30.817-21.41-41.701H3193.7C3187.154,3196.915,3182.083,3202.64,3182.873,3209.139z"/>
				
					<linearGradient id="SVGID_00000176019871396852763600000001732691173641884550_" gradientUnits="userSpaceOnUse" x1="2322.3289" y1="3494.6775" x2="2420.5559" y2="2346.6489" gradientTransform="matrix(1 0 0 1 572.0411 0)">
					<stop  offset="0" style="stop-color:#FEBBBA"/>
					<stop  offset="1" style="stop-color:#FF928E"/>
				</linearGradient>
				<path style="fill:url(#SVGID_00000176019871396852763600000001732691173641884550_);" d="M2905.566,2835.257l-5.976,35.153
					c0,0,20.012,202.705,23.572,283.787c0.558,12.712-2.731,25.274-9.403,36.109l-34.798,56.508l88.438-52.186l1.76-10.792
					l-14.477-19.905l18.963-227.08c1.114-13.34-1.639-26.719-7.928-38.535l-18.293-34.365L2905.566,2835.257z"/>
				
					<linearGradient id="SVGID_00000129885319664496294590000012889576416260390043_" gradientUnits="userSpaceOnUse" x1="3089.3943" y1="1408.8966" x2="2845.8005" y2="2011.1135" gradientTransform="matrix(1 0 0 1 572.0411 0)">
					<stop  offset="0" style="stop-color:#09005D"/>
					<stop  offset="1" style="stop-color:#1A0F91"/>
				</linearGradient>
				<path style="fill:url(#SVGID_00000129885319664496294590000012889576416260390043_);" d="M2873.138,3255h28.222
					c5.282,0,10.264-2.425,13.486-6.612c8.798-11.432,27.027-33.736,35.743-34.318c11.734-0.784,10.232,40.93,10.232,40.93h6.577
					l8.331-51.834c2.096-13.042-4.39-25.962-16.101-32.072c0,0-2.682,19.836-17.226,28.61
					c-14.544,8.774-59.183,40.195-59.183,40.195s-5.467-0.78-11.47,0.305C2862.844,3241.813,2864.088,3255,2873.138,3255z"/>
				
					<linearGradient id="SVGID_00000021825657503995372210000010515945474935738781_" gradientUnits="userSpaceOnUse" x1="2519.9185" y1="3511.7595" x2="2618.1711" y2="2363.4292" gradientTransform="matrix(1 0 0 1 572.0411 0)">
					<stop  offset="0" style="stop-color:#FEBBBA"/>
					<stop  offset="1" style="stop-color:#FF928E"/>
				</linearGradient>
				<path style="fill:url(#SVGID_00000021825657503995372210000010515945474935738781_);" d="M3026.696,2851.953
					c0,0,117.237,222.386,135.873,273.16c18.636,50.774,25.165,93.132,25.415,97.143c0.391,6.267,8.186,12.279,29.674,12.279
					c11.09,0,16.521-4.445,19.18-8.748c2.269-3.671,2.386-8.264,0.474-12.133c-6.782-13.725-28.303-57.584-36.273-77.477
					c-9.516-23.751-29.986-131.387-41.213-168.811c-11.227-37.424-23.916-78.019-72.805-115.412
					C3087.021,2851.953,3053.461,2819.083,3026.696,2851.953z"/>
				
					<linearGradient id="SVGID_00000092444892546930563300000004213352104277492369_" gradientUnits="userSpaceOnUse" x1="3354.7749" y1="1653.6887" x2="3019.8518" y2="2166.2229">
					<stop  offset="0" style="stop-color:#FF928E"/>
					<stop  offset="1" style="stop-color:#FE7062"/>
				</linearGradient>
				<path style="fill:url(#SVGID_00000092444892546930563300000004213352104277492369_);" d="M2952.635,2487.562
					c-30.242-128.146,46.37-200.624,46.37-200.624c-48.34-46.401-136.416-67.516-136.416-67.516s-84.043,61.443-74.073,109.536
					c5.844,28.188,59.074,168.836,59.074,168.836S2896.813,2521.089,2952.635,2487.562z"/>
				
					<linearGradient id="SVGID_00000076566428671574808190000013745832806110897566_" gradientUnits="userSpaceOnUse" x1="2595.3088" y1="2359.3325" x2="2349.7278" y2="2752.2617" gradientTransform="matrix(1 0 0 1 572.0411 0)">
					<stop  offset="0" style="stop-color:#4F52FF"/>
					<stop  offset="1" style="stop-color:#4042E2"/>
				</linearGradient>
				<path style="fill:url(#SVGID_00000076566428671574808190000013745832806110897566_);" d="M3019.686,2551.003
					c-12.307-37.077-67.05-63.442-67.05-63.442c-55.823,33.527-105.045,10.232-105.045,10.232s-11.039,42.193-3.42,81.404
					c7.619,39.211,55.419,291.211,55.419,291.211c75.317,15.261,191.154-15.354,191.154-15.354
					C3042.769,2769.881,3031.993,2588.08,3019.686,2551.003z"/>
				
					<linearGradient id="SVGID_00000008134872928740350960000016063945625898743226_" gradientUnits="userSpaceOnUse" x1="2311.5566" y1="2363.0652" x2="2330.0083" y2="2228.0776" gradientTransform="matrix(1 0 0 1 572.0411 0)">
					<stop  offset="0" style="stop-color:#FEBBBA"/>
					<stop  offset="1" style="stop-color:#FF928E"/>
				</linearGradient>
				<path style="fill:url(#SVGID_00000008134872928740350960000016063945625898743226_);" d="M2917.532,2134.739l24.587,110.44
					c2.354,9.728-6.514,8.136-16.349,6.281c-16.106-3.036-36.865-9.291-43.805-21.823c-0.706-1.276-1.059-2.718-1.258-4.162
					l-10.563-76.582c-0.838-6.076,2.447-11.972,8.053-14.459l20.384-9.038C2906.429,2121.916,2915.513,2126.394,2917.532,2134.739z"
					/>
				
					<linearGradient id="SVGID_00000040556960545539876250000008976549997467959697_" gradientUnits="userSpaceOnUse" x1="-3858.8848" y1="2491.3445" x2="-3442.2908" y2="2317.0674" gradientTransform="matrix(-1 0 0 1 -593.3922 0)">
					<stop  offset="0" style="stop-color:#FEBBBA"/>
					<stop  offset="1" style="stop-color:#FF928E"/>
				</linearGradient>
				<path style="fill:url(#SVGID_00000040556960545539876250000008976549997467959697_);" d="M2999.005,2286.938
					c0,0,237.319,234.927-106.853,141.15c0,0-3.925-29.696,1.198-29.185c111.608,11.135,158.289,36.687,67.563-51.287
					c-3.208-3.11-2.216-14.851-0.153-18.814C2967.042,2316.733,2981.409,2292.768,2999.005,2286.938z"/>
				<g>
					
						<linearGradient id="SVGID_00000018211719520987020770000012590474534297606038_" gradientUnits="userSpaceOnUse" x1="2013.2195" y1="2743.3071" x2="2174.2175" y2="2456.7847" gradientTransform="matrix(0.9809 -0.1943 0.1943 0.9809 342.951 -99.2406)">
						<stop  offset="0" style="stop-color:#FEBBBA"/>
						<stop  offset="1" style="stop-color:#FF928E"/>
					</linearGradient>
					<path style="fill:url(#SVGID_00000018211719520987020770000012590474534297606038_);" d="M2870.439,2034.061
						c0,0-26.176,17.719-37.424,62.842c-11.248,45.123,7.031,61.309,25.768,60.317c18.737-0.992,45.904-6.786,69.442-39.158
						C2951.763,2085.69,2904.74,2012.409,2870.439,2034.061z"/>
					
						<linearGradient id="SVGID_00000080928337917244692780000005586759164144658819_" gradientUnits="userSpaceOnUse" x1="2047.8436" y1="2493.7917" x2="2128.3425" y2="2695.7214" gradientTransform="matrix(0.9809 -0.1943 0.1943 0.9809 342.951 -99.2406)">
						<stop  offset="0" style="stop-color:#09005D"/>
						<stop  offset="1" style="stop-color:#1A0F91"/>
					</linearGradient>
					<path style="fill:url(#SVGID_00000080928337917244692780000005586759164144658819_);" d="M2904.488,2099.862
						c0,0,9.591-64.658-44.092-54.768l-10.855,11.301c0,0-26.276-29.592,2.802-51.96c29.078-22.369,69.429-16.64,91.754,24.082
						s30.427,69.337,11.715,94.642c-18.712,25.304-32.787,3.602-32.787,3.602s8.582-21.901,1.461-31.299
						c-7.121-9.398-16.307,5.465-16.307,5.465L2904.488,2099.862z"/>
					
						<linearGradient id="SVGID_00000070089658914698987770000009372147154392185728_" gradientUnits="userSpaceOnUse" x1="2047.4893" y1="2762.5659" x2="2208.4873" y2="2476.0437" gradientTransform="matrix(0.9809 -0.1943 0.1943 0.9809 342.951 -99.2406)">
						<stop  offset="0" style="stop-color:#FEBBBA"/>
						<stop  offset="1" style="stop-color:#FF928E"/>
					</linearGradient>
					<path style="fill:url(#SVGID_00000070089658914698987770000009372147154392185728_);" d="M2911.824,2105.399
						c0,0,4.735-33.266,21.725-23.756c16.99,9.51-6.123,31.075-15.39,38.413L2911.824,2105.399z"/>
				</g>
				<g>
					
						<linearGradient id="SVGID_00000137131208337016719560000005837031913945430972_" gradientUnits="userSpaceOnUse" x1="1831.5291" y1="2664.4177" x2="1980.2377" y2="3002.7637" gradientTransform="matrix(0.9776 -0.2106 0.2106 0.9776 321.6211 -113.5247)">
						<stop  offset="0" style="stop-color:#FEBBBA"/>
						<stop  offset="1" style="stop-color:#FF928E"/>
					</linearGradient>
					<path style="fill:url(#SVGID_00000137131208337016719560000005837031913945430972_);" d="M2610.629,2036.261
						c-0.363,3.908,14.171,6.61,18.797-10.052c-1.271-7.234-3.53-38.913-9.076-43.834c-29.541-26.212-82.219-55.699-82.219-55.699
						c-5.892,8.995,1.835,14.919,1.835,14.919l26.296,17.746c-2.743,9.085-6.746,17.118-7.199,27.49
						c-0.343,7.855,2.559,15.545,7.772,21.503c5.233,5.98,12.278,13.7,18.629,19.562
						C2597.485,2038.99,2610.629,2036.261,2610.629,2036.261z"/>
					
						<linearGradient id="SVGID_00000110437438894148094750000007404412452481535919_" gradientUnits="userSpaceOnUse" x1="-3206.8528" y1="1996.2903" x2="-3166.8096" y2="1996.2903" gradientTransform="matrix(-1 0 0 1 -593.3922 0)">
						<stop  offset="0" style="stop-color:#FEBBBA"/>
						<stop  offset="1" style="stop-color:#FF928E"/>
					</linearGradient>
					<path style="fill:url(#SVGID_00000110437438894148094750000007404412452481535919_);" d="M2596.346,2023.347l4.019-1.653
						c-0.534-1.3-13.153-31.964-19.256-38.343c-2.319-2.42-3.439-4.493-3.336-6.163c0.052-0.904,0.5-1.797,1.349-2.707
						l21.277,11.379l9.398,14.715l3.663-2.343l-10.007-15.674l-24.923-13.325l-1.125,0.916c-2.52,2.061-3.824,4.274-3.973,6.772
						c-0.184,2.974,1.297,6.06,4.53,9.439C2582.561,1991.162,2592.792,2014.687,2596.346,2023.347z"/>
				</g>
			</g>
			<g>
				
					<linearGradient id="SVGID_00000060012824429634414090000017737126050884386956_" gradientUnits="userSpaceOnUse" x1="-3398.5437" y1="2245.2131" x2="-3263.4927" y2="2807.9277" gradientTransform="matrix(-1 0 0 1 -593.3922 0)">
					<stop  offset="0" style="stop-color:#09005D"/>
					<stop  offset="1" style="stop-color:#1A0F91"/>
				</linearGradient>
				<path style="fill:url(#SVGID_00000060012824429634414090000017737126050884386956_);" d="M2906.028,2476.545l-57.434-200.573
					c-0.652-2.277-2.594-3.937-4.947-4.212c-10.406-1.214-40.559-4.622-75.373-7.567c-41.935-3.547-90.634-6.421-119.735-3.976
					c-4.137,0.347-6.637,4.723-4.797,8.445c16.548,33.48,84.619,169.667,118.706,214.281c1.129,1.478,2.876,2.342,4.736,2.325
					l133.257-1.24C2904.319,2483.993,2907.096,2480.273,2906.028,2476.545z"/>
				<path style="fill:#91B3FA;" d="M2762.317,2246.805l-41.641-6.938c-2.218-0.37-4.034,1.75-3.329,3.885l4.122,12.49
					c0.359,1.087,1.307,1.874,2.442,2.026l40.071,5.353c2.073,0.277,3.782-1.607,3.306-3.643l-2.552-10.905
					C2764.461,2247.898,2763.507,2247.003,2762.317,2246.805z"/>
				<path style="fill:#91B3FA;" d="M2793.497,2282.057l-3.43-17.868c-0.344-1.792-1.823-3.146-3.639-3.331l-84.104-8.534
					c-2.831-0.287-5.098,2.307-4.433,5.074l5.348,22.265c0.428,1.782,1.979,3.068,3.808,3.16l82.187,4.137
					C2791.908,2287.096,2794.002,2284.688,2793.497,2282.057z"/>
				
					<linearGradient id="SVGID_00000000936887485627661430000004635212434383884435_" gradientUnits="userSpaceOnUse" x1="-3491.0847" y1="2394.0813" x2="-3414.5676" y2="2394.0813" gradientTransform="matrix(-1 0 0 1 -593.3922 0)">
					<stop  offset="0" style="stop-color:#FEBBBA"/>
					<stop  offset="1" style="stop-color:#FF928E"/>
				</linearGradient>
				<path style="fill:url(#SVGID_00000000936887485627661430000004635212434383884435_);" d="M2892.152,2428.087
					c0,0,8-32.898,4.773-44.57c-3.227-11.672-9.48-26.678-30.322-23.343s-45.428,12.115-45.428,12.115s1.242,15.203,17.082,10.298
					l-9.823,7.6c0,0,1.404,12.173,14.784,5.67l-9.136,10.08c0,0,5.746,9.998,15.59,3.585
					C2859.517,2403.109,2864.236,2432.048,2892.152,2428.087z"/>
			</g>
		</g>
		<g>
			
				<linearGradient id="SVGID_00000126318351633037492690000017456937651280270986_" gradientUnits="userSpaceOnUse" x1="14717.7451" y1="2503.3032" x2="14429.6973" y2="2667.7168" gradientTransform="matrix(1 0 0 1 -13270.3779 0)">
				<stop  offset="0" style="stop-color:#FEBBBA"/>
				<stop  offset="1" style="stop-color:#FF928E"/>
			</linearGradient>
			<path style="fill:url(#SVGID_00000126318351633037492690000017456937651280270986_);" d="M1403.574,2771.336
				c-0.34-0.131-183.045-320.092-207.734-350.202c-4.153-5.064-10.581-7.643-17.086-6.869l-50.996,6.077l-59.909,129.606
				l99.808-58.126c-9.876,68.303,118.34,169.81,162.313,206.849c4.463,3.76,4.829,10.492,0.799,14.711l-17.556,18.377
				c28.822,29.214,62.079,47.973,99.615,56.649L1403.574,2771.336z"/>
			
				<linearGradient id="SVGID_00000092431820997510996090000014744987157182467479_" gradientUnits="userSpaceOnUse" x1="1307.6903" y1="2767.4089" x2="1424.1014" y2="2767.4089">
				<stop  offset="0" style="stop-color:#09005D"/>
				<stop  offset="1" style="stop-color:#1A0F91"/>
			</linearGradient>
			<path style="fill:url(#SVGID_00000092431820997510996090000014744987157182467479_);" d="M1323.367,2721.841
				c0,0-11.204,3.62-14.998,13.598c-1.816,4.775,0.141,10.182,4.293,13.156c18.449,13.218,79.305,55.891,107.388,64.249
				c2.302,0.684,4.492-1.398,3.974-3.744c-1.442-6.523-6.103-19.551-21.122-38.623l1.348,2.725c1.705,3.449-2.051,7.041-5.401,5.149
				C1380.067,2767.749,1341.808,2744.541,1323.367,2721.841z"/>
			
				<linearGradient id="SVGID_00000038372023297240013790000005440030853761644677_" gradientUnits="userSpaceOnUse" x1="14689.8799" y1="2544.3064" x2="15675.4355" y2="1927.333" gradientTransform="matrix(1 0 0 1 -13270.3779 0)">
				<stop  offset="0" style="stop-color:#FEBBBA"/>
				<stop  offset="1" style="stop-color:#FF928E"/>
			</linearGradient>
			<path style="fill:url(#SVGID_00000038372023297240013790000005440030853761644677_);" d="M1332.409,2849.865
				c-0.307-0.197-27.719-66.241-28.025-66.437c-25.134-153.023-86.455-284.075-104.538-318.56c-3.043-5.8-8.816-9.626-15.342-10.183
				l-51.171-4.369l-84.899,114.8l109.506-36.725c-23.494,64.891,81.526,190.246,117.094,235.417
				c3.609,4.584,2.605,11.252-2.196,14.568l-20.911,14.444c22.312,34.442,51.085,59.543,86.088,75.635L1332.409,2849.865z"/>
			
				<linearGradient id="SVGID_00000035497250067979979550000017754395194591619495_" gradientUnits="userSpaceOnUse" x1="1244.7985" y1="2839.6931" x2="1344.7939" y2="2839.6931">
				<stop  offset="0" style="stop-color:#09005D"/>
				<stop  offset="1" style="stop-color:#1A0F91"/>
			</linearGradient>
			<path style="fill:url(#SVGID_00000035497250067979979550000017754395194591619495_);" d="M1263.878,2785.163
				c0,0-11.705,1.276-17.439,10.281c-2.743,4.308-1.922,10,1.542,13.753c15.393,16.677,66.353,70.783,92.163,84.652
				c2.116,1.137,4.682-0.46,4.65-2.861c-0.091-6.68-2.02-20.383-12.868-42.099l0.768,2.941c0.972,3.723-3.433,6.48-6.332,3.95
				C1310.114,2841.595,1277.344,2811.125,1263.878,2785.163z"/>
			<g>
				
					<linearGradient id="SVGID_00000074404285554891958850000017897534354656401066_" gradientUnits="userSpaceOnUse" x1="6616.2344" y1="2296.866" x2="6379.3262" y2="2556.4912" gradientTransform="matrix(1 0 0 1 -5438.6777 0)">
					<stop  offset="0" style="stop-color:#09005D"/>
					<stop  offset="1" style="stop-color:#1A0F91"/>
				</linearGradient>
				<path style="fill:url(#SVGID_00000074404285554891958850000017897534354656401066_);" d="M893.808,2426.138
					c0,0-46.291,68.851-50.089,100.258c-3.798,31.407,12.801,42.268,61.251,46.273c144.181,11.919,215.257-31.292,215.257-31.292
					c9.863-62.887,16.881-78.885,99.254-113.078c0,0-104.188,8.272-125.156,0.135
					C1073.356,2420.297,893.808,2426.138,893.808,2426.138z"/>
			</g>
			<g>
				
					<linearGradient id="SVGID_00000042018414175852566630000008416941810899196576_" gradientUnits="userSpaceOnUse" x1="-8092.1162" y1="1031.0482" x2="-7987.9448" y2="1292.3596" gradientTransform="matrix(-0.9446 -0.3283 -0.3283 0.9446 -6134.8408 -1699.1722)">
					<stop  offset="0" style="stop-color:#09005D"/>
					<stop  offset="1" style="stop-color:#1A0F91"/>
				</linearGradient>
				<path style="fill:url(#SVGID_00000042018414175852566630000008416941810899196576_);" d="M1097.882,2072.194
					c0,0-47.417-56.102-97.827,12.73c-9.13,12.467-44.197,2.182-57.053,28.275c-6.637,13.473-20.975,21.127-35.744,18.402
					c-36.784-6.785-96.91-7.355-126.596,50.288c-22.661,44-5.166,69.749,17.485,84.43c16.636,10.783,22.574,32.673,12.514,49.756
					c-9.649,16.385-11.463,38.574,13.451,65.277c55.833,59.841,166.358-37.976,166.358-37.976l87.755-207.366L1097.882,2072.194z"/>
				
					<linearGradient id="SVGID_00000018215401120579908010000012744518893727735181_" gradientUnits="userSpaceOnUse" x1="1424.804" y1="998.5526" x2="1084.8055" y2="2023.6234">
					<stop  offset="0" style="stop-color:#FF928E"/>
					<stop  offset="1" style="stop-color:#FE7062"/>
				</linearGradient>
				<path style="fill:url(#SVGID_00000018215401120579908010000012744518893727735181_);" d="M1018.997,2417.023
					c0,0,53.905-51.329,80.44-85.326c14.344-18.378,18.848-42.571,12.215-64.92c-12.115-40.814-33.644-83.087-35.608-89.666
					c-3.009-10.085-63.452-9.665-63.452-9.665s-118.939,77.192-165.669,207.95l52.482,16.339c0,0,31.055-52.1,61.739-85.225
					c0,0-53.094,70.139-54.964,98.853L1018.997,2417.023z"/>
				
					<linearGradient id="SVGID_00000174581040777490043520000014738178916554873236_" gradientUnits="userSpaceOnUse" x1="-5816.7773" y1="2408.5337" x2="-5529.8389" y2="2408.5337" gradientTransform="matrix(-1 0 0 1 -4873.9146 0)">
					<stop  offset="0" style="stop-color:#FEBBBA"/>
					<stop  offset="1" style="stop-color:#FF928E"/>
				</linearGradient>
				<path style="fill:url(#SVGID_00000174581040777490043520000014738178916554873236_);" d="M1121.705,2437.279l-40.505-44.069
					l-46.779,12.596c0,0-54.537,8.449-85.75,0c-31.213-8.449-31.213-8.449-31.213-8.449l-70.535-21.96l-11.078,31.308
					c-2.813,7.949,0.013,16.773,6.886,21.658c6.102,4.336,13.256,9.101,17.815,11.096c9.289,4.063,213.979,1.285,213.979,1.285
					L1121.705,2437.279z"/>
				
					<linearGradient id="SVGID_00000165218994766515806520000010569192378987805318_" gradientUnits="userSpaceOnUse" x1="-7735.4102" y1="1615.9552" x2="-7721.3833" y2="1513.3391" gradientTransform="matrix(-0.9974 -0.0717 -0.0717 0.9974 -6539.7852 105.0094)">
					<stop  offset="0" style="stop-color:#FEBBBA"/>
					<stop  offset="1" style="stop-color:#FF928E"/>
				</linearGradient>
				<path style="fill:url(#SVGID_00000165218994766515806520000010569192378987805318_);" d="M1054.134,2094.774l-40.624,75.541
					c2.682,16.489,44.214,16.955,50.629,7.108c0.653-1.002,1.026-2.161,1.275-3.331l24.301-50.475
					c1.043-4.921-12.45-21.506-16.891-23.869l-16.147-8.595C1050.46,2087.843,1076.404,2087.583,1054.134,2094.774z"/>
				<g>
					
						<linearGradient id="SVGID_00000035529781328735684040000001393076960267393700_" gradientUnits="userSpaceOnUse" x1="-9530.8232" y1="-466.4577" x2="-9398.7461" y2="-701.5105" gradientTransform="matrix(-0.9674 -0.253 -0.253 0.9674 -8236.3066 213.1103)">
						<stop  offset="0" style="stop-color:#FEBBBA"/>
						<stop  offset="1" style="stop-color:#FF928E"/>
					</linearGradient>
					<path style="fill:url(#SVGID_00000035529781328735684040000001393076960267393700_);" d="M1093.923,2035.895
						c0,0,20.558,15.804,27.536,53.31c6.977,37.505-8.791,49.855-24.085,48.116c-15.293-1.74-37.252-7.828-54.924-35.501
						C1024.776,2074.147,1066.907,2016.468,1093.923,2035.895z"/>
					
						<linearGradient id="SVGID_00000060717491991957786260000006277812178419445668_" gradientUnits="userSpaceOnUse" x1="-9502.4229" y1="-671.1523" x2="-9436.3848" y2="-505.498" gradientTransform="matrix(-0.9674 -0.253 -0.253 0.9674 -8236.3066 213.1103)">
						<stop  offset="0" style="stop-color:#09005D"/>
						<stop  offset="1" style="stop-color:#1A0F91"/>
					</linearGradient>
					<path style="fill:url(#SVGID_00000060717491991957786260000006277812178419445668_);" d="M1062.786,2088.091
						c0,0-4.654-53.419,38.814-42.665l8.329,9.791c0,0,22.98-22.931,0.277-42.686c-22.704-19.755-56.029-17.061-76.324,15.18
						c-20.295,32.241-28.346,55.271-14.275,76.917c14.07,21.647,26.669,4.572,26.669,4.572s-5.943-18.358,0.353-25.702
						c6.295-7.343,13.083,5.283,13.083,5.283L1062.786,2088.091z"/>
					
						<linearGradient id="SVGID_00000112628574879687015360000004183573337352964269_" gradientUnits="userSpaceOnUse" x1="-9502.708" y1="-450.6635" x2="-9370.6318" y2="-685.7154" gradientTransform="matrix(-0.9674 -0.253 -0.253 0.9674 -8236.3066 213.1103)">
						<stop  offset="0" style="stop-color:#FEBBBA"/>
						<stop  offset="1" style="stop-color:#FF928E"/>
					</linearGradient>
					<path style="fill:url(#SVGID_00000112628574879687015360000004183573337352964269_);" d="M1056.504,2092.262
						c0,0-2.231-27.474-16.613-20.528c-14.383,6.947,3.476,25.748,10.702,32.216L1056.504,2092.262z"/>
				</g>
			</g>
			<g>
				
					<linearGradient id="SVGID_00000019671943689533704170000003659621555594655165_" gradientUnits="userSpaceOnUse" x1="-5902.8096" y1="2171.2595" x2="-6052.9155" y2="2212.3997" gradientTransform="matrix(-0.9988 -0.0494 -0.0494 0.9988 -4832.4458 -55.0328)">
					<stop  offset="0" style="stop-color:#4F52FF"/>
					<stop  offset="1" style="stop-color:#4042E2"/>
				</linearGradient>
				<path style="fill:url(#SVGID_00000019671943689533704170000003659621555594655165_);" d="M987.628,2454.72
					c0.143,0.007,0.285,0.011,0.429,0.01l186.304-0.203c4.606-0.004,8.335-3.741,8.331-8.347c-0.004-4.607-3.755-8.414-8.349-8.331
					l-186.304,0.204c-4.606,0.004-8.334,3.741-8.33,8.347C979.714,2450.863,983.222,2454.503,987.628,2454.72z"/>
				
					<linearGradient id="SVGID_00000036973497611925661050000010748103384629424013_" gradientUnits="userSpaceOnUse" x1="5331.5884" y1="2381.0581" x2="6681.6348" y2="2267.4727" gradientTransform="matrix(-1 0 0 1 6677.1948 0)">
					<stop  offset="0" style="stop-color:#09005D"/>
					<stop  offset="1" style="stop-color:#1A0F91"/>
				</linearGradient>
				<path style="fill:url(#SVGID_00000036973497611925661050000010748103384629424013_);" d="M1341.841,2285.568h-155.156
					c-11.446,0-21.863,6.605-26.746,16.958l-71.728,152.095h192.817c7.376,0,14.003-4.507,16.714-11.366l55.622-140.742
					C1356.577,2294.381,1350.584,2285.568,1341.841,2285.568z"/>
				<path style="fill:#7D97F4;" d="M1232.532,2363.552c-3.362,10.446-0.879,20.592,5.548,22.66
					c6.427,2.069,14.362-4.723,17.724-15.169c3.362-10.446,0.879-20.591-5.548-22.659
					C1243.829,2346.315,1235.894,2353.105,1232.532,2363.552z"/>
			</g>
		</g>
		<g>
			<g>
				<path style="fill:#91B3FA;" d="M788.592,688.05c0,124.319,116.607,225.099,240.927,225.099
					c124.319,0,225.099-100.78,225.099-225.099s-100.78-225.099-225.099-225.099C905.2,462.951,788.592,563.731,788.592,688.05z"/>
				<path style="opacity:0.65;fill:#FFFFFF;" d="M851.25,618.94c8.863-21.929,22.021-42.125,38.526-59.201
					c16.51-17.058,36.343-31.073,58.308-40.679c21.911-9.693,45.867-15.074,70.003-15.661c24.123-0.579,48.585,3.543,71.347,12.42
					c22.738,8.897,43.82,22.299,61.478,39.406c17.661,17.092,31.919,37.813,41.56,60.585c4.801,11.389,8.527,23.258,10.959,35.393
					c2.434,12.133,3.662,24.501,3.704,36.847c-0.042,12.346-1.27,24.714-3.704,36.847c-2.432,12.136-6.158,24.005-10.959,35.393
					c-9.641,22.772-23.899,43.493-41.56,60.585c-17.658,17.107-38.741,30.509-61.478,39.406
					c-22.762,8.877-47.224,12.999-71.347,12.42c-24.137-0.587-48.092-5.968-70.003-15.661
					c-21.965-9.606-41.798-23.621-58.308-40.679c-16.505-17.076-29.664-37.272-38.526-59.201
					c-8.878-21.916-13.455-45.543-13.417-69.11C837.795,664.482,842.372,640.856,851.25,618.94z M865.664,718.413
					c2.099,9.979,5.325,19.722,9.466,29.078c8.324,18.701,20.652,35.736,35.918,49.757c15.266,14.035,33.471,24.958,53.006,32.168
					c19.571,7.184,40.512,10.442,61.272,9.872c41.583-1.083,81.535-18.385,109.554-46.554
					c14.057-14.005,25.234-30.515,32.744-48.373c7.518-17.855,11.404-37.03,11.374-56.312c0.03-19.282-3.856-38.456-11.374-56.312
					c-7.51-17.858-18.687-34.368-32.744-48.373c-28.018-28.168-67.971-45.471-109.554-46.554c-20.76-0.57-41.701,2.688-61.272,9.871
					c-19.534,7.21-37.74,18.134-53.006,32.168c-15.266,14.021-27.594,31.056-35.918,49.757c-4.142,9.356-7.368,19.1-9.466,29.079
					c-2.1,9.977-3.168,20.159-3.212,30.363C862.497,698.254,863.564,708.436,865.664,718.413z"/>
				<path style="opacity:0.84;fill:#FFFFFF;" d="M969.872,599.241c20.96,0,39.627,10.992,51.733,28.117
					c12.106-17.125,30.773-28.117,51.733-28.117c36.494,0,66.079,33.283,66.079,74.339c0,3.321-0.535,6.898-1.512,10.667h-14.328
					l-34.23-37.49c-2.055-2.25-5.101-3.316-8.121-2.846c-3.013,0.476-5.585,2.434-6.847,5.212l-27.698,60.933l-28.196-51.019
					c-1.682-3.044-4.951-4.853-8.428-4.674c-3.472,0.185-6.534,2.338-7.884,5.543l-11.729,27.859h-32.386
					c-5.014,0-9.078,4.065-9.078,9.078c0,5.014,4.065,9.078,9.078,9.078h38.415c3.653,0,6.949-2.19,8.368-5.556l6.806-16.168
					l27.881,50.45c1.602,2.899,4.65,4.687,7.944,4.687c0.118,0,0.238-0.003,0.356-0.007c3.43-0.135,6.49-2.19,7.91-5.315
					l29.48-64.854l27.653,30.288c1.72,1.884,4.153,2.957,6.704,2.957h11.036c-18.817,36.185-63.863,80.93-95.661,101.333
					c-8.053,5.167-18.479,4.711-26.073-1.108c-35.388-27.119-105.081-92.917-105.081-129.048
					C903.793,632.524,933.378,599.241,969.872,599.241z"/>
			</g>
			<g>
				<path style="fill:#91B3FA;" d="M528.217,1190.263c0,124.319,116.608,225.099,240.927,225.099
					c124.319,0,225.099-100.781,225.099-225.099c0-124.319-100.78-225.099-225.099-225.099
					C644.825,965.163,528.217,1065.943,528.217,1190.263z"/>
				<path style="opacity:0.65;fill:#FFFFFF;" d="M590.875,1121.152c8.863-21.929,22.022-42.125,38.526-59.201
					c16.51-17.058,36.343-31.073,58.308-40.679c21.911-9.693,45.867-15.074,70.003-15.661c24.123-0.579,48.585,3.543,71.347,12.42
					c22.738,8.897,43.82,22.299,61.478,39.406c17.661,17.092,31.919,37.813,41.56,60.586c4.801,11.389,8.527,23.257,10.959,35.393
					c2.434,12.133,3.662,24.501,3.704,36.847c-0.042,12.346-1.27,24.714-3.704,36.847c-2.432,12.136-6.158,24.005-10.959,35.393
					c-9.641,22.772-23.899,43.493-41.56,60.585c-17.658,17.107-38.741,30.509-61.478,39.406
					c-22.762,8.877-47.224,12.999-71.347,12.42c-24.137-0.587-48.092-5.968-70.003-15.661
					c-21.965-9.606-41.798-23.622-58.308-40.679c-16.505-17.076-29.664-37.272-38.526-59.201
					c-8.878-21.916-13.455-45.543-13.418-69.11C577.42,1166.695,581.997,1143.068,590.875,1121.152z M605.289,1220.626
					c2.099,9.979,5.325,19.722,9.466,29.078c8.324,18.702,20.652,35.736,35.918,49.757c15.266,14.034,33.471,24.958,53.006,32.168
					c19.571,7.184,40.512,10.442,61.272,9.871c41.583-1.083,81.535-18.385,109.554-46.554
					c14.057-14.005,25.234-30.515,32.743-48.373c7.519-17.855,11.405-37.03,11.375-56.312c0.03-19.282-3.856-38.456-11.375-56.312
					c-7.51-17.858-18.687-34.368-32.743-48.373c-28.019-28.169-67.971-45.471-109.554-46.554c-20.76-0.57-41.701,2.688-61.272,9.872
					c-19.534,7.21-37.74,18.134-53.006,32.168c-15.266,14.021-27.594,31.056-35.918,49.757c-4.141,9.356-7.367,19.1-9.466,29.078
					c-2.1,9.977-3.167,20.159-3.212,30.363C602.122,1200.467,603.189,1210.649,605.289,1220.626z"/>
				<g style="opacity:0.89;">
					<path style="fill:#FFFFFF;" d="M830.412,1277.079h37.366c1.381,0,2.5-1.119,2.5-2.5v-158.412c0-1.381-1.119-2.5-2.5-2.5
						h-37.366c-1.381,0-2.5,1.119-2.5,2.5v158.412C827.912,1275.959,829.031,1277.079,830.412,1277.079z"/>
					<path style="fill:#FFFFFF;" d="M883.895,1224.121L883.895,1224.121c4.178,0,7.565-3.387,7.565-7.565v-42.366
						c0-4.178-3.387-7.565-7.565-7.565l0,0c-4.178,0-7.565,3.387-7.565,7.565v42.366
						C876.33,1220.734,879.717,1224.121,883.895,1224.121z"/>
					<path style="fill:#FFFFFF;" d="M692.261,1277.079h-37.366c-1.381,0-2.5-1.119-2.5-2.5v-158.412c0-1.381,1.119-2.5,2.5-2.5
						h37.366c1.381,0,2.5,1.119,2.5,2.5v158.412C694.761,1275.959,693.642,1277.079,692.261,1277.079z"/>
					<path style="fill:#FFFFFF;" d="M638.778,1224.121L638.778,1224.121c-4.178,0-7.565-3.387-7.565-7.565v-42.366
						c0-4.178,3.387-7.565,7.565-7.565l0,0c4.178,0,7.565,3.387,7.565,7.565v42.366
						C646.343,1220.734,642.956,1224.121,638.778,1224.121z"/>
					<path style="fill:#FFFFFF;" d="M703.033,1206.116H819.64c1.226,0,2.219-0.994,2.219-2.219v-18.56
						c0-1.226-0.993-2.219-2.219-2.219H703.033c-1.226,0-2.219,0.994-2.219,2.219v18.56
						C700.814,1205.122,701.807,1206.116,703.033,1206.116z"/>
				</g>
			</g>
			<g>
				<path style="fill:#91B3FA;" d="M758.331,1726.016c0,124.319,116.607,225.099,240.927,225.099
					c124.319,0,225.099-100.78,225.099-225.099c0-124.319-100.781-225.099-225.099-225.099
					C874.938,1500.917,758.331,1601.698,758.331,1726.016z"/>
				<path style="opacity:0.65;fill:#FFFFFF;" d="M820.989,1656.906c8.863-21.929,22.021-42.125,38.526-59.201
					c16.51-17.058,36.343-31.073,58.308-40.679c21.911-9.693,45.867-15.074,70.003-15.661c24.123-0.579,48.585,3.543,71.347,12.42
					c22.738,8.897,43.82,22.299,61.478,39.406c17.661,17.092,31.919,37.813,41.56,60.585c4.801,11.389,8.527,23.258,10.959,35.394
					c2.434,12.133,3.662,24.501,3.704,36.847c-0.042,12.346-1.27,24.714-3.704,36.847c-2.432,12.136-6.158,24.005-10.959,35.393
					c-9.641,22.772-23.899,43.493-41.56,60.585c-17.658,17.107-38.741,30.509-61.478,39.406
					c-22.762,8.877-47.224,12.999-71.347,12.42c-24.137-0.587-48.092-5.968-70.003-15.661
					c-21.965-9.606-41.798-23.621-58.308-40.679c-16.505-17.076-29.664-37.272-38.526-59.201
					c-8.878-21.916-13.455-45.543-13.417-69.11C807.534,1702.449,812.111,1678.822,820.989,1656.906z M835.403,1756.38
					c2.099,9.979,5.325,19.722,9.466,29.078c8.324,18.702,20.652,35.736,35.918,49.757c15.266,14.035,33.472,24.958,53.006,32.168
					c19.571,7.184,40.512,10.442,61.272,9.872c41.583-1.083,81.535-18.385,109.554-46.554
					c14.057-14.005,25.234-30.515,32.744-48.373c7.519-17.855,11.404-37.03,11.375-56.312c0.03-19.282-3.856-38.456-11.375-56.312
					c-7.51-17.858-18.687-34.368-32.744-48.373c-28.019-28.168-67.971-45.471-109.554-46.554c-20.76-0.57-41.701,2.688-61.272,9.871
					c-19.534,7.21-37.74,18.134-53.006,32.168c-15.266,14.021-27.594,31.056-35.918,49.757c-4.142,9.356-7.368,19.1-9.466,29.078
					c-2.1,9.977-3.168,20.159-3.212,30.363C832.235,1736.221,833.303,1746.403,835.403,1756.38z"/>
				<g>
					<g style="opacity:0.65;">
						<path style="fill:#FFFFFF;" d="M1039.813,1661.703c0.57,0.073,1.124,0.202,1.656,0.384c1.528,0.523,2.873,1.48,3.884,2.788
							c2.813,3.639,2.141,8.887-1.497,11.7c-1.763,1.362-3.951,1.957-6.161,1.674c-2.209-0.28-4.176-1.409-5.54-3.171
							c-2.813-3.639-2.14-8.887,1.498-11.7C1035.415,1662.014,1037.603,1661.42,1039.813,1661.703z"/>
						<path style="fill:#FFFFFF;" d="M995.798,1644.45l5.154,7.983c-1.927,4.143-3.122,8.511-3.61,12.925l-8.554,4.153
							c-0.3,0.146-0.474,0.465-0.434,0.796l1.365,11.323c0.04,0.331,0.285,0.6,0.611,0.67l9.295,2.002
							c1.523,4.171,3.722,8.13,6.578,11.696l-3.11,8.979c-0.109,0.315-0.006,0.664,0.256,0.87l8.972,7.041
							c0.262,0.206,0.626,0.223,0.906,0.042l7.983-5.154c4.143,1.927,8.511,3.123,12.924,3.611l4.153,8.553
							c0.146,0.3,0.465,0.474,0.796,0.434l11.323-1.364c0.331-0.04,0.6-0.286,0.67-0.611l2.002-9.295
							c4.171-1.522,8.13-3.721,11.697-6.578l8.979,3.11c0.315,0.109,0.665,0.006,0.87-0.256l7.042-8.972
							c0.206-0.262,0.222-0.626,0.042-0.906l-5.154-7.983c1.927-4.143,3.123-8.511,3.61-12.925l8.553-4.153
							c0.3-0.146,0.474-0.465,0.434-0.797l-1.365-11.323c-0.04-0.331-0.285-0.6-0.611-0.67l-9.295-2.002
							c-1.522-4.171-3.721-8.129-6.578-11.696l3.11-8.979c0.109-0.315,0.006-0.665-0.256-0.871l-8.972-7.041
							c-0.262-0.206-0.626-0.223-0.906-0.042l-7.983,5.154c-4.143-1.927-8.511-3.123-12.924-3.61l-4.153-8.553
							c-0.145-0.3-0.465-0.474-0.796-0.434l-11.323,1.365c-0.331,0.04-0.6,0.285-0.67,0.611l-2.002,9.295
							c-4.171,1.523-8.129,3.722-11.697,6.578l-8.979-3.11c-0.315-0.109-0.664-0.006-0.87,0.256l-7.042,8.972
							C995.634,1643.806,995.617,1644.17,995.798,1644.45z M1012.545,1657.364c0.024-0.069,0.052-0.137,0.085-0.205
							c0.078-0.161,0.157-0.32,0.238-0.479c0.019-0.037,0.038-0.074,0.057-0.111c0.052-0.1,0.104-0.201,0.157-0.301l0.005-0.009
							c0.749-1.412,1.618-2.768,2.592-4.046c0.087-0.113,0.174-0.226,0.262-0.338c4.833-6.158,11.774-10.066,19.546-11.002
							c7.772-0.937,15.444,1.208,21.601,6.043c6.158,4.833,10.066,11.774,11.002,19.547c0.536,4.448,0.062,8.863-1.347,12.979
							c-1.053,3.077-2.629,5.988-4.696,8.621c-4.833,6.159-11.774,10.066-19.546,11.002c-4.445,0.536-8.856,0.064-12.971-1.343
							c-3.081-1.053-5.995-2.63-8.632-4.7c-4.18-3.281-7.386-7.624-9.274-12.56c-0.155-0.407-0.152-0.836-0.021-1.217
							c0.166-0.484,0.537-0.892,1.052-1.09c0.922-0.35,1.955,0.11,2.307,1.031c1.656,4.331,4.471,8.144,8.141,11.026
							c5.409,4.242,12.145,6.126,18.968,5.305c6.824-0.823,12.919-4.253,17.163-9.66c1.815-2.313,3.199-4.869,4.123-7.571
							c1.238-3.615,1.653-7.492,1.183-11.397c-0.823-6.824-4.254-12.92-9.661-17.164c-5.41-4.243-12.143-6.128-18.968-5.306
							c-6.824,0.823-12.919,4.254-17.164,9.661c-1.134,1.445-2.113,3.008-2.911,4.645c-0.432,0.887-1.505,1.256-2.388,0.824
							C1012.634,1659.147,1012.256,1658.204,1012.545,1657.364z M1031.467,1660.551c2.517-1.947,5.643-2.796,8.799-2.392
							c3.157,0.404,5.966,2.013,7.913,4.531c4.018,5.196,3.058,12.694-2.14,16.711c-3.287,2.541-7.493,3.091-11.157,1.838
							c-2.13-0.728-4.078-2.066-5.555-3.978C1025.309,1672.065,1026.269,1664.568,1031.467,1660.551z"/>
					</g>
					<g>
						<g style="opacity:0.65;">
							<path style="fill:#FFFFFF;" d="M953.357,1751.803c0.897-0.183,1.8-0.274,2.696-0.274c2.576,0,5.098,0.751,7.298,2.203
								c6.12,4.039,7.813,12.304,3.775,18.424c-1.957,2.964-4.951,4.99-8.431,5.702c-3.477,0.716-7.027,0.028-9.994-1.927
								c-6.12-4.039-7.813-12.304-3.775-18.424C946.882,1754.542,949.877,1752.517,953.357,1751.803z"/>
							<path style="fill:#FFFFFF;" d="M878.056,1748.475l11.893,9.386c-0.771,7.245-0.321,14.45,1.219,21.361l-10.763,10.677
								c-0.377,0.374-0.475,0.947-0.245,1.425l7.898,16.379c0.231,0.479,0.74,0.758,1.268,0.696l15.056-1.774
								c4.448,5.508,9.807,10.346,15.956,14.254l-0.061,15.15c-0.002,0.531,0.333,1.006,0.835,1.181l17.167,5.996
								c0.502,0.176,1.059,0.013,1.388-0.404l9.386-11.893c7.245,0.771,14.451,0.322,21.361-1.219l10.677,10.762
								c0.374,0.377,0.947,0.475,1.425,0.245l16.379-7.898c0.479-0.231,0.758-0.741,0.696-1.268l-1.774-15.056
								c5.508-4.448,10.346-9.807,14.254-15.956l15.15,0.06c0.531,0.002,1.006-0.333,1.181-0.835l5.997-17.168
								c0.175-0.501,0.013-1.059-0.404-1.388l-11.893-9.386c0.771-7.245,0.322-14.451-1.218-21.361l10.762-10.677
								c0.377-0.374,0.476-0.947,0.245-1.426l-7.898-16.379c-0.231-0.478-0.74-0.758-1.268-0.696l-15.056,1.774
								c-4.448-5.508-9.807-10.345-15.956-14.254l0.061-15.15c0.002-0.532-0.333-1.006-0.835-1.182l-17.167-5.996
								c-0.502-0.175-1.059-0.013-1.389,0.404l-9.386,11.893c-7.245-0.771-14.451-0.321-21.361,1.219l-10.677-10.762
								c-0.374-0.378-0.946-0.476-1.425-0.245l-16.379,7.899c-0.478,0.231-0.758,0.74-0.696,1.268l1.774,15.056
								c-5.508,4.448-10.345,9.807-14.254,15.956l-15.15-0.061c-0.531-0.002-1.005,0.333-1.181,0.835l-5.996,17.167
								C877.476,1747.588,877.638,1748.145,878.056,1748.475z M909.981,1759.32c0-0.117,0.007-0.234,0.022-0.353
								c0.035-0.282,0.072-0.563,0.113-0.846c0.01-0.065,0.019-0.131,0.029-0.197c0.026-0.178,0.053-0.358,0.082-0.536l0.003-0.017
								c0.402-2.516,1.014-5.01,1.823-7.441c0.072-0.216,0.146-0.431,0.221-0.645c4.116-11.784,12.572-21.258,23.815-26.68
								c11.243-5.422,23.923-6.144,35.705-2.024c11.784,4.114,21.258,12.572,26.68,23.815c3.103,6.434,4.665,13.339,4.662,20.276
								c-0.002,5.185-0.878,10.39-2.638,15.429c-4.114,11.784-12.572,21.258-23.815,26.68c-6.43,3.102-13.327,4.664-20.261,4.664
								c-5.191,0-10.401-0.876-15.446-2.639c-7.997-2.794-15.076-7.693-20.468-14.166c-0.444-0.534-0.661-1.182-0.659-1.826
								c0.002-0.815,0.35-1.623,1.025-2.186c1.21-1.004,3.006-0.843,4.013,0.366c4.732,5.68,10.945,9.981,17.969,12.436
								c10.348,3.611,21.482,2.979,31.353-1.779c9.871-4.761,17.297-13.08,20.912-23.427c1.545-4.426,2.314-8.995,2.316-13.548
								c0.003-6.092-1.37-12.155-4.093-17.805c-4.761-9.871-13.081-17.297-23.427-20.912c-10.349-3.61-21.481-2.982-31.353,1.777
								c-9.871,4.761-17.297,13.081-20.912,23.427c-0.965,2.765-1.637,5.628-1.996,8.508c-0.194,1.562-1.622,2.672-3.178,2.474
								C911.035,1761.965,909.979,1760.737,909.981,1759.32z M940.171,1754.37c2.794-4.235,7.071-7.128,12.042-8.146
								c4.971-1.018,10.039-0.04,14.275,2.755c8.742,5.768,11.16,17.574,5.391,26.316c-3.648,5.529-9.71,8.527-15.884,8.527
								c-3.59,0-7.219-1.014-10.433-3.136C936.821,1774.917,934.402,1763.111,940.171,1754.37z"/>
						</g>
					</g>
				</g>
			</g>
			<g>
				<path style="fill:#FFFFFF;" d="M1167.24,871.44l4.633,7.862c0.581,0.985,1.85,1.314,2.836,0.733
					c0.985-0.581,1.313-1.85,0.733-2.835l-0.01-0.017l-0.025-0.042l-4.657-7.735l-0.025-0.041c-0.578-0.959-1.823-1.269-2.783-0.691
					C1166.988,869.248,1166.677,870.483,1167.24,871.44z"/>
				<path style="fill:#FFFFFF;" d="M1183.379,897.219l5.211,7.491c0.698,1.004,2.079,1.252,3.083,0.554
					c1.004-0.699,1.252-2.079,0.553-3.083l-0.012-0.017l-0.028-0.039l-5.227-7.364l-0.027-0.039
					c-0.694-0.978-2.05-1.208-3.028-0.514C1182.932,894.898,1182.7,896.242,1183.379,897.219z"/>
				<path style="fill:#FFFFFF;" d="M1201.355,921.75l5.709,7.106c0.816,1.016,2.301,1.177,3.316,0.362
					c1.016-0.816,1.178-2.3,0.362-3.316l-0.014-0.018l-0.029-0.036l-5.718-6.979l-0.03-0.035c-0.81-0.989-2.269-1.135-3.258-0.324
					C1200.71,919.314,1200.561,920.761,1201.355,921.75z"/>
				<path style="fill:#FFFFFF;" d="M1220.917,945.003l6.15,6.733c0.932,1.021,2.515,1.092,3.536,0.16
					c1.02-0.932,1.092-2.515,0.16-3.536l-0.016-0.017l-0.031-0.033l-6.152-6.608l-0.031-0.033c-0.926-0.994-2.482-1.049-3.476-0.124
					C1220.069,942.464,1220.009,944.008,1220.917,945.003z"/>
				<path style="fill:#FFFFFF;" d="M1241.882,967.015l6.535,6.363c1.047,1.02,2.723,0.998,3.743-0.049
					c1.02-1.047,0.997-2.723-0.05-3.743l-0.018-0.017l-0.032-0.031l-6.531-6.24l-0.032-0.031c-1.04-0.993-2.687-0.955-3.68,0.084
					C1240.829,964.385,1240.861,966.02,1241.882,967.015z"/>
				<path style="fill:#FFFFFF;" d="M1264.071,987.802l6.871,6c1.161,1.014,2.924,0.894,3.937-0.267
					c1.014-1.161,0.894-2.924-0.267-3.938l-0.02-0.017l-0.033-0.029l-6.862-5.877l-0.033-0.028c-1.152-0.987-2.887-0.853-3.873,0.3
					C1262.81,985.091,1262.938,986.812,1264.071,987.802z"/>
				<path style="fill:#FFFFFF;" d="M1287.33,1007.383l7.167,5.643c1.273,1.003,3.119,0.783,4.121-0.49
					c1.003-1.273,0.783-3.119-0.49-4.121l-0.022-0.017l-0.034-0.026l-7.152-5.521l-0.034-0.026
					c-1.264-0.976-3.079-0.743-4.055,0.522C1285.86,1004.601,1286.086,1006.403,1287.33,1007.383z"/>
				<path style="fill:#FFFFFF;" d="M1311.532,1025.782l7.429,5.293c1.385,0.986,3.307,0.664,4.294-0.721
					c0.986-1.385,0.664-3.307-0.721-4.294l-0.024-0.017l-0.035-0.024l-7.408-5.173l-0.035-0.024c-1.374-0.96-3.266-0.624-4.226,0.75
					C1309.851,1022.938,1310.179,1024.817,1311.532,1025.782z"/>
				<path style="fill:#FFFFFF;" d="M1336.574,1043.022l7.662,4.949c1.495,0.966,3.49,0.536,4.455-0.959
					c0.966-1.495,0.536-3.49-0.959-4.455l-0.026-0.017l-0.037-0.023l-7.636-4.83l-0.036-0.023c-1.484-0.938-3.448-0.496-4.386,0.988
					C1334.679,1040.127,1335.111,1042.077,1336.574,1043.022z"/>
				<path style="fill:#FFFFFF;" d="M1362.366,1059.119l7.873,4.608c1.604,0.939,3.667,0.4,4.606-1.205
					c0.939-1.604,0.4-3.667-1.205-4.606l-0.028-0.016l-0.037-0.021l-7.841-4.489l-0.037-0.022c-1.593-0.912-3.623-0.36-4.535,1.233
					C1360.255,1056.183,1360.796,1058.199,1362.366,1059.119z"/>
				<path style="fill:#FFFFFF;" d="M1388.835,1074.083l8.063,4.268c1.714,0.907,3.838,0.253,4.745-1.46
					c0.907-1.713,0.253-3.838-1.46-4.745l-0.029-0.016l-0.04-0.02l-8.024-4.151l-0.039-0.02c-1.701-0.88-3.792-0.214-4.672,1.486
					C1386.503,1071.116,1387.157,1073.194,1388.835,1074.083z"/>
				<path style="fill:#FFFFFF;" d="M1415.917,1087.914l8.236,3.927c1.822,0.869,4.003,0.096,4.871-1.725
					c0.868-1.822,0.096-4.003-1.726-4.871l-0.031-0.015l-0.041-0.019l-8.191-3.811l-0.041-0.019
					c-1.808-0.841-3.956-0.057-4.797,1.751C1413.361,1084.929,1414.133,1087.062,1415.917,1087.914z"/>
				<path style="fill:#FFFFFF;" d="M1443.56,1100.602l8.394,3.581c1.93,0.823,4.161-0.074,4.984-2.003
					c0.823-1.93-0.074-4.161-2.003-4.984l-0.033-0.014l-0.044-0.018l-8.341-3.464l-0.044-0.018
					c-1.915-0.796-4.113,0.112-4.908,2.027C1440.775,1097.611,1441.669,1099.794,1443.56,1100.602z"/>
				<path style="fill:#FFFFFF;" d="M1471.716,1112.126l8.54,3.225c2.037,0.769,4.312-0.258,5.081-2.295
					c0.769-2.037-0.258-4.312-2.295-5.081l-0.035-0.013l-0.047-0.017l-8.477-3.11l-0.047-0.017
					c-2.021-0.742-4.261,0.296-5.003,2.318C1468.696,1109.145,1469.719,1111.371,1471.716,1112.126z"/>
				<path style="fill:#FFFFFF;" d="M1500.344,1122.452l8.674,2.856c2.143,0.706,4.453-0.459,5.159-2.602
					c0.706-2.144-0.459-4.454-2.603-5.16l-0.037-0.012l-0.051-0.016l-8.599-2.742l-0.05-0.016c-2.127-0.678-4.401,0.496-5.08,2.624
					C1497.083,1119.498,1498.241,1121.759,1500.344,1122.452z"/>
				<path style="fill:#FFFFFF;" d="M1529.403,1131.529l8.797,2.469c2.249,0.632,4.584-0.68,5.216-2.929
					c0.632-2.249-0.68-4.584-2.929-5.216l-0.039-0.011l-0.056-0.015l-8.708-2.356l-0.055-0.015
					c-2.232-0.604-4.531,0.716-5.135,2.948C1525.894,1128.624,1527.196,1130.909,1529.403,1131.529z"/>
				<path style="fill:#FFFFFF;" d="M1558.858,1139.289l8.907,2.057c2.354,0.544,4.703-0.923,5.246-3.277
					c0.544-2.354-0.923-4.702-3.277-5.246l-0.04-0.009l-0.061-0.013l-8.804-1.946l-0.061-0.013
					c-2.335-0.516-4.647,0.958-5.163,3.294C1555.092,1136.456,1556.548,1138.754,1558.858,1139.289z"/>
				<path style="fill:#FFFFFF;" d="M1588.671,1145.639l9.005,1.612c2.456,0.44,4.803-1.195,5.243-3.651
					c0.44-2.456-1.195-4.804-3.651-5.243l-0.042-0.008l-0.069-0.011l-8.883-1.503l-0.068-0.012
					c-2.437-0.412-4.746,1.229-5.158,3.665C1584.638,1142.909,1586.259,1145.205,1588.671,1145.639z"/>
			</g>
			<g>
				<path style="fill:#FFFFFF;" d="M1053.416,1187.975l9.063-0.034c1.809-0.005,3.271-1.475,3.266-3.284
					c-0.005-1.809-1.475-3.271-3.285-3.266h-0.018l-9.069,0.077c-1.797,0.015-3.242,1.484-3.226,3.281
					C1050.161,1186.546,1051.618,1187.99,1053.416,1187.975z"/>
				<path style="fill:#FFFFFF;" d="M1083.641,1187.895l9.072-0.007c1.848,0,3.346-1.498,3.347-3.346
					c0-1.848-1.498-3.346-3.346-3.346h-0.018l-9.077,0.049c-1.836,0.01-3.317,1.507-3.307,3.343
					C1080.321,1186.424,1081.804,1187.905,1083.641,1187.895z"/>
				<path style="fill:#FFFFFF;" d="M1113.885,1187.901l9.075,0.017c1.887,0.005,3.421-1.521,3.426-3.408
					c0.005-1.887-1.521-3.421-3.408-3.426h-0.019l-9.08,0.025c-1.875,0.005-3.391,1.53-3.386,3.405
					C1110.498,1186.39,1112.01,1187.906,1113.885,1187.901z"/>
				<path style="fill:#FFFFFF;" d="M1144.137,1187.983l9.071,0.039c1.927,0.01,3.495-1.544,3.505-3.47
					c0.01-1.926-1.544-3.496-3.47-3.505h-0.018l-9.076,0.004c-1.914,0.001-3.466,1.553-3.465,3.468
					C1140.683,1186.433,1142.222,1187.984,1144.137,1187.983z"/>
				<path style="fill:#FFFFFF;" d="M1174.383,1188.137l9.076,0.059c1.965,0.014,3.57-1.568,3.584-3.533
					c0.014-1.965-1.568-3.57-3.533-3.584h-0.019l-9.081-0.017c-1.953-0.004-3.54,1.577-3.544,3.531
					C1170.863,1186.547,1172.43,1188.134,1174.383,1188.137z"/>
				<path style="fill:#FFFFFF;" d="M1204.636,1188.357l9.075,0.078c2.004,0.018,3.644-1.591,3.662-3.595
					c0.019-2.004-1.591-3.644-3.595-3.662h-0.019l-9.08-0.036c-1.993-0.008-3.615,1.601-3.622,3.594
					C1201.049,1186.728,1202.643,1188.349,1204.636,1188.357z"/>
				<path style="fill:#FFFFFF;" d="M1234.886,1188.64l9.075,0.097c2.043,0.023,3.719-1.615,3.741-3.658s-1.615-3.719-3.658-3.741
					h-0.019l-9.08-0.055c-2.032-0.012-3.688,1.625-3.701,3.657C1231.232,1186.971,1232.854,1188.628,1234.886,1188.64z"/>
				<path style="fill:#FFFFFF;" d="M1265.135,1188.985l9.075,0.116c2.082,0.028,3.793-1.638,3.82-3.72
					c0.028-2.082-1.638-3.793-3.72-3.821h-0.02l-9.08-0.073c-2.07-0.017-3.763,1.648-3.779,3.719
					C1261.415,1187.276,1263.064,1188.969,1265.135,1188.985z"/>
				<path style="fill:#FFFFFF;" d="M1295.384,1189.39l9.075,0.133c2.121,0.033,3.867-1.661,3.9-3.782
					c0.032-2.122-1.661-3.867-3.782-3.9l-0.021,0l-9.08-0.091c-2.11-0.021-3.837,1.672-3.858,3.782
					C1291.597,1187.642,1293.275,1189.369,1295.384,1189.39z"/>
				<path style="fill:#FFFFFF;" d="M1325.634,1189.857l9.075,0.152c2.161,0.037,3.942-1.683,3.98-3.844
					c0.037-2.16-1.683-3.943-3.844-3.98l-0.021,0l-9.08-0.11c-2.149-0.026-3.912,1.695-3.938,3.844
					C1321.78,1188.068,1323.485,1189.831,1325.634,1189.857z"/>
				<path style="fill:#FFFFFF;" d="M1355.884,1190.385l9.075,0.171c2.199,0.043,4.017-1.705,4.06-3.905
					c0.043-2.199-1.705-4.017-3.905-4.06l-0.021-0.001l-9.081-0.128c-2.188-0.031-3.986,1.718-4.017,3.905
					C1351.963,1188.556,1353.696,1190.354,1355.884,1190.385z"/>
				<path style="fill:#FFFFFF;" d="M1386.134,1190.977l9.074,0.191c2.239,0.049,4.092-1.727,4.141-3.965
					c0.048-2.238-1.727-4.092-3.965-4.141l-0.021,0l-9.081-0.148c-2.227-0.037-4.061,1.739-4.098,3.966
					C1382.148,1189.107,1383.907,1190.941,1386.134,1190.977z"/>
				<path style="fill:#FFFFFF;" d="M1416.384,1191.637l9.074,0.211c2.277,0.055,4.168-1.747,4.222-4.024
					c0.054-2.277-1.747-4.168-4.024-4.222l-0.022,0l-9.081-0.169c-2.266-0.042-4.137,1.761-4.179,4.026
					C1412.332,1189.724,1414.119,1191.595,1416.384,1191.637z"/>
				<path style="fill:#FFFFFF;" d="M1446.635,1192.367l9.074,0.234c2.316,0.061,4.244-1.767,4.305-4.083
					c0.061-2.316-1.767-4.244-4.083-4.305l-0.023-0.001l-9.081-0.191c-2.305-0.049-4.212,1.78-4.261,4.085
					C1442.517,1190.411,1444.33,1192.318,1446.635,1192.367z"/>
				<path style="fill:#FFFFFF;" d="M1476.884,1193.174l9.073,0.258c2.355,0.069,4.32-1.784,4.389-4.139s-1.784-4.32-4.139-4.389
					l-0.024-0.001l-9.081-0.216c-2.344-0.055-4.289,1.799-4.344,4.143C1472.702,1191.173,1474.54,1193.118,1476.884,1193.174z"/>
				<path style="fill:#FFFFFF;" d="M1507.13,1194.064l9.072,0.285c2.394,0.077,4.397-1.8,4.475-4.194
					c0.077-2.394-1.801-4.398-4.195-4.475l-0.024-0.001l-9.081-0.243c-2.383-0.064-4.365,1.816-4.429,4.198
					C1502.884,1192.018,1504.748,1194.001,1507.13,1194.064z"/>
				<path style="fill:#FFFFFF;" d="M1537.372,1195.048l9.07,0.315c2.432,0.087,4.475-1.814,4.562-4.247
					c0.087-2.433-1.814-4.475-4.247-4.563l-0.025-0.001l-9.081-0.273c-2.421-0.073-4.443,1.831-4.516,4.252
					C1533.062,1192.954,1534.95,1194.975,1537.372,1195.048z"/>
				<path style="fill:#FFFFFF;" d="M1567.605,1196.138l9.067,0.35c2.471,0.098,4.555-1.825,4.653-4.297
					c0.098-2.471-1.825-4.554-4.296-4.653l-0.027-0.001l-9.08-0.308c-2.46-0.084-4.522,1.843-4.605,4.303
					C1563.234,1193.993,1565.145,1196.054,1567.605,1196.138z"/>
				<path style="fill:#FFFFFF;" d="M1597.825,1197.351l4.916,0.211c2.504,0.109,4.624-1.833,4.733-4.337
					c0.109-2.504-1.833-4.623-4.337-4.733l-0.025-0.001l-4.924-0.188c-2.499-0.095-4.602,1.853-4.697,4.352
					C1593.395,1195.153,1595.326,1197.256,1597.825,1197.351z"/>
			</g>
			<g>
				<path style="fill:#FFFFFF;" d="M1220.605,1557.135l5.733-7.01l0.015-0.019c0.857-1.047,0.702-2.59-0.345-3.447
					c-1.047-0.857-2.591-0.702-3.448,0.345l-0.013,0.016l-5.701,7.098c-0.834,1.037-0.668,2.554,0.37,3.388
					c1.032,0.828,2.537,0.67,3.374-0.353L1220.605,1557.135z"/>
				<path style="fill:#FFFFFF;" d="M1239.979,1533.993l5.958-6.817l0.017-0.019c0.939-1.074,0.829-2.706-0.245-3.645
					c-1.074-0.939-2.706-0.829-3.645,0.245l-0.015,0.017l-5.93,6.907c-0.915,1.066-0.793,2.671,0.273,3.586
					c1.06,0.91,2.653,0.794,3.571-0.255L1239.979,1533.993z"/>
				<path style="fill:#FFFFFF;" d="M1260.094,1511.499l6.175-6.619l0.018-0.019c1.023-1.097,0.964-2.816-0.133-3.839
					s-2.816-0.964-3.84,0.133l-0.016,0.018l-6.152,6.712c-0.999,1.09-0.925,2.783,0.164,3.781c1.084,0.993,2.764,0.926,3.765-0.146
					L1260.094,1511.499z"/>
				<path style="fill:#FFFFFF;" d="M1280.926,1489.671l6.385-6.415l0.019-0.019c1.11-1.116,1.106-2.92-0.01-4.03
					c-1.116-1.111-2.92-1.106-4.03,0.01l-0.018,0.017l-6.367,6.511c-1.085,1.109-1.065,2.888,0.045,3.973
					c1.103,1.078,2.868,1.065,3.954-0.026L1280.926,1489.671z"/>
				<path style="fill:#FFFFFF;" d="M1302.448,1468.528l6.587-6.206l0.021-0.019c1.199-1.13,1.255-3.018,0.126-4.217
					c-1.13-1.199-3.018-1.255-4.217-0.125l-0.019,0.018l-6.573,6.304c-1.173,1.125-1.212,2.988-0.087,4.161
					c1.119,1.167,2.967,1.212,4.141,0.106L1302.448,1468.528z"/>
				<path style="fill:#FFFFFF;" d="M1324.635,1448.089l6.782-5.992l0.022-0.02c1.29-1.14,1.412-3.109,0.272-4.399
					c-1.14-1.29-3.109-1.411-4.399-0.272l-0.021,0.018l-6.773,6.091c-1.263,1.136-1.367,3.081-0.231,4.344
					c1.13,1.257,3.059,1.365,4.323,0.249L1324.635,1448.089z"/>
				<path style="fill:#FFFFFF;" d="M1347.461,1428.373l6.969-5.771l0.024-0.02c1.382-1.145,1.575-3.193,0.43-4.576
					c-1.145-1.382-3.193-1.575-4.575-0.43l-0.022,0.018l-6.965,5.872c-1.355,1.143-1.528,3.168-0.385,4.523
					c1.136,1.348,3.145,1.526,4.5,0.404L1347.461,1428.373z"/>
				<path style="fill:#FFFFFF;" d="M1370.902,1409.397l7.148-5.546l0.025-0.02c1.476-1.145,1.745-3.27,0.599-4.746
					c-1.145-1.477-3.27-1.745-4.747-0.599l-0.024,0.018l-7.149,5.649c-1.449,1.145-1.696,3.247-0.551,4.696
					c1.138,1.44,3.223,1.693,4.671,0.57L1370.902,1409.397z"/>
				<path style="fill:#FFFFFF;" d="M1394.932,1391.178l7.32-5.314l0.027-0.02c1.572-1.141,1.92-3.34,0.78-4.911
					c-1.141-1.571-3.34-1.921-4.911-0.78l-0.025,0.018l-7.327,5.419c-1.544,1.142-1.869,3.319-0.728,4.862
					c1.135,1.535,3.294,1.866,4.836,0.747L1394.932,1391.178z"/>
				<path style="fill:#FFFFFF;" d="M1419.525,1373.737l7.485-5.079l0.028-0.019c1.668-1.132,2.103-3.401,0.971-5.069
					c-1.132-1.668-3.401-2.103-5.069-0.971l-0.027,0.018l-7.497,5.184c-1.64,1.134-2.05,3.382-0.916,5.022
					c1.128,1.63,3.357,2.045,4.994,0.935L1419.525,1373.737z"/>
				<path style="fill:#FFFFFF;" d="M1444.66,1357.088l7.642-4.837l0.031-0.019c1.766-1.117,2.291-3.454,1.173-5.219
					c-1.117-1.765-3.454-2.291-5.219-1.173l-0.028,0.018l-7.66,4.943c-1.737,1.12-2.236,3.438-1.115,5.174
					c1.115,1.727,3.411,2.231,5.145,1.134L1444.66,1357.088z"/>
				<path style="fill:#FFFFFF;" d="M1470.308,1341.253l7.791-4.589l0.032-0.019c1.864-1.098,2.484-3.498,1.386-5.362
					c-1.098-1.864-3.498-2.485-5.362-1.387l-0.03,0.018l-7.814,4.696c-1.835,1.103-2.428,3.484-1.326,5.319
					c1.097,1.824,3.457,2.421,5.288,1.344L1470.308,1341.253z"/>
				<path style="fill:#FFFFFF;" d="M1496.444,1326.249l7.932-4.336l0.034-0.019c1.962-1.073,2.683-3.533,1.611-5.495
					c-1.073-1.963-3.533-2.684-5.496-1.611l-0.031,0.017l-7.961,4.444c-1.933,1.079-2.626,3.521-1.547,5.455
					c1.073,1.923,3.494,2.618,5.423,1.565L1496.444,1326.249z"/>
				<path style="fill:#FFFFFF;" d="M1523.042,1312.095l8.067-4.078l0.036-0.018c2.061-1.042,2.888-3.559,1.846-5.62
					c-1.042-2.061-3.559-2.888-5.62-1.846l-0.033,0.017l-8.102,4.186c-2.033,1.05-2.829,3.55-1.779,5.582
					c1.044,2.021,3.521,2.82,5.547,1.796L1523.042,1312.095z"/>
				<path style="fill:#FFFFFF;" d="M1550.079,1298.807l8.192-3.814l0.038-0.018c2.161-1.006,3.097-3.574,2.091-5.734
					c-1.006-2.161-3.574-3.097-5.735-2.091l-0.034,0.016l-8.234,3.922c-2.132,1.016-3.037,3.567-2.022,5.7
					c1.01,2.12,3.539,3.027,5.663,2.038L1550.079,1298.807z"/>
				<path style="fill:#FFFFFF;" d="M1577.528,1286.405l8.311-3.545l0.04-0.017c2.261-0.964,3.311-3.578,2.347-5.838
					c-0.964-2.26-3.578-3.311-5.839-2.347l-0.036,0.016l-8.359,3.653c-2.231,0.975-3.25,3.575-2.275,5.806
					c0.97,2.219,3.545,3.238,5.768,2.291L1577.528,1286.405z"/>
			</g>
		</g>
	</g>
</g>
</svg>
