<?xml version="1.0" encoding="utf-8"?>
<!-- Generator: Adobe Illustrator 27.5.0, SVG Export Plug-In . SVG Version: 6.00 Build 0)  -->
<svg version="1.1" xmlns="http://www.w3.org/2000/svg" xmlns:xlink="http://www.w3.org/1999/xlink" x="0px" y="0px"
	 viewBox="0 0 500 500" style="enable-background:new 0 0 500 500;" xml:space="preserve">
<g id="BACKGROUND">
	<rect style="fill:#FFFFFF;" width="500" height="500"/>
</g>
<g id="OBJECTS">
	<g>
		<path style="fill:#8898E5;" d="M285.376,405.098c-32.839,15.405-98.581,17.032-145.032,4.129
			C93.892,396.324,37.118,340.066,35.053,298.26c-2.064-41.806,29.936-68.129,44.903-102.194s1.032-39.742-0.516-65.548
			c-1.548-25.806,34.064-88.258,92.387-87.742c58.322,0.516,103.226,28.903,142.452,15.484c39.226-13.419,70.71-21.161,86.71,9.806
			s-7.742,66.064,16,88.774c23.742,22.71,71.742,75.355,64.516,116.645c-7.226,41.29-55.742,76.903-90.839,74.323
			C355.569,345.227,312.506,392.371,285.376,405.098z"/>
		<path style="fill:#9CABF0;" d="M258.598,391.264c0,0-127.35-0.488-161.641-31.069c-34.291-30.581-36.16-97.705,0-127.046
			c36.16-29.341,61.619-68.447,72.89-96.507c11.271-28.06,13.013-68.19,40.787-65.544c27.774,2.646,45.893,59.584,97.995,41.566
			c52.102-18.018,80.167-25.521,93.231,28.166c13.064,53.687,43.409,101.695,11.979,129.175
			c-31.43,27.48-54.895,13.754-76.066,49.262S293.497,395.236,258.598,391.264z"/>
	</g>
	<g>
		<rect x="299.569" y="329.615" style="fill:none;stroke:#D1D9FF;stroke-miterlimit:10;" width="30.789" height="8.903"/>
		<rect x="276.328" y="341.229" style="fill:none;stroke:#D1D9FF;stroke-miterlimit:10;" width="30.789" height="8.903"/>
		<rect x="204.178" y="395.417" style="fill:none;stroke:#D1D9FF;stroke-miterlimit:10;" width="30.789" height="8.903"/>
		<rect x="204.178" y="379.227" style="fill:none;stroke:#D1D9FF;stroke-miterlimit:10;" width="30.789" height="8.903"/>
		<rect x="85.208" y="265.115" style="fill:none;stroke:#D1D9FF;stroke-miterlimit:10;" width="30.789" height="8.903"/>
		<rect x="91.018" y="246.907" style="fill:none;stroke:#D1D9FF;stroke-miterlimit:10;" width="30.789" height="8.903"/>
		<rect x="163.239" y="59.227" style="fill:none;stroke:#D1D9FF;stroke-miterlimit:10;" width="30.789" height="8.903"/>
	</g>
	<g>
		<g>
			<rect x="17.762" y="296.709" style="fill:#444B9E;" width="117.29" height="104.91"/>
			<polygon style="fill:#373E91;" points="135.052,350.199 135.052,401.619 58.862,401.619 			"/>
			<polygon style="fill:#5C66C9;" points="135.052,296.709 20.472,299.419 17.762,401.619 17.762,296.709 			"/>
		</g>
		<g>
			<g>
				<rect x="26.795" y="304.711" style="fill:#5E63B4;" width="100.129" height="26.323"/>
				<circle style="fill:#FFFFFF;" cx="76.86" cy="317.179" r="2.089"/>
			</g>
			<g>
				<rect x="26.792" y="337.481" style="fill:#5E63B4;" width="45.22" height="53.17"/>
				<path style="fill:#FFFFFF;" d="M64.989,358.647c0,0.855-0.693,1.548-1.548,1.548c-0.855,0-1.548-0.693-1.548-1.548
					c0-0.855,0.693-1.548,1.548-1.548C64.295,357.098,64.989,357.792,64.989,358.647z"/>
			</g>
			<g>
				<rect x="81.702" y="337.481" style="fill:#5E63B4;" width="45.22" height="53.17"/>
				<path style="fill:#FFFFFF;" d="M119.899,358.647c0,0.855-0.693,1.548-1.548,1.548c-0.855,0-1.548-0.693-1.548-1.548
					c0-0.855,0.693-1.548,1.548-1.548C119.205,357.098,119.899,357.792,119.899,358.647z"/>
			</g>
		</g>
	</g>
	<g>
		<polygon style="fill:#4B5CAD;" points="54.731,279.566 53.182,283.469 54.731,283.469 56.279,283.469 		"/>
		<rect x="54.355" y="258.582" style="fill:#FFFFFF;" width="0.75" height="21.968"/>
		<rect x="43.152" y="260.449" style="fill:#4B5CAD;" width="2.77" height="33.94"/>
		<polygon style="fill:#314394;" points="45.922,260.449 45.922,271.659 43.152,267.709 43.152,260.449 		"/>
		<rect x="27.312" y="294.389" style="fill:#4B5CAD;" width="34.45" height="2.32"/>
		<polygon style="fill:#FFCC57;" points="57.634,234.642 31.44,234.642 27.311,258.131 44.537,259.292 61.763,258.131 		"/>
		<rect x="27.312" y="258.129" style="fill:#AD7423;" width="34.45" height="2.32"/>
		<rect x="30.085" y="258.131" style="fill:#D6A867;" width="1.645" height="2.318"/>
		<polygon style="fill:#EA9C2F;" points="48.472,235.227 56.86,235.227 61.182,258.131 49.956,258.131 		"/>
		<polygon style="fill:#EA9C2F;" points="47.44,235.227 48.472,254.324 44.15,235.227 		"/>
		<polygon style="fill:#FFE29E;" points="33.376,235.486 30.085,258.131 31.731,258.131 34.666,235.486 		"/>
		<rect x="49.952" y="258.129" style="fill:#7A5219;" width="11.23" height="2.32"/>
		<rect x="27.312" y="295.549" style="fill:#314394;" width="34.45" height="1.16"/>
	</g>
	<g>
		<defs>
			<path id="SVGID_1_" d="M464.472,96.709v200.6c0,10.98-8.9,19.87-19.87,19.87h-315.87c-10.98,0-19.87-8.89-19.87-19.87v-200.6
				c0-10.97,8.89-19.87,19.87-19.87h315.87C455.572,76.839,464.472,85.739,464.472,96.709z"/>
		</defs>
		<use xlink:href="#SVGID_1_"  style="overflow:visible;fill:#F2F4FF;"/>
		<clipPath id="SVGID_00000031890856589146690300000003142025949004581016_">
			<use xlink:href="#SVGID_1_"  style="overflow:visible;"/>
		</clipPath>
		<path style="clip-path:url(#SVGID_00000031890856589146690300000003142025949004581016_);fill:#A3AFE6;" d="M464.472,96.709v1.81
			h-355.61v-1.81c0-10.97,8.89-19.87,19.87-19.87h315.87C455.572,76.839,464.472,85.739,464.472,96.709z"/>
		<g style="clip-path:url(#SVGID_00000031890856589146690300000003142025949004581016_);">
			<g>
				<path style="fill:#4B5CAD;" d="M132.731,88.453c0,2.565-2.08,4.645-4.645,4.645c-2.565,0-4.645-2.08-4.645-4.645
					c0-2.565,2.08-4.645,4.645-4.645C130.651,83.808,132.731,85.888,132.731,88.453z"/>
				<circle style="fill:#FFCC57;" cx="146.021" cy="88.453" r="4.645"/>
				<circle style="fill:#9A2195;" cx="163.956" cy="88.453" r="4.645"/>
			</g>
		</g>
		<g style="clip-path:url(#SVGID_00000031890856589146690300000003142025949004581016_);">
			<g>
				<path style="fill:#FFC2C3;" d="M343.892,235.939c0,0-2.63,9.65-4.84,15.16c-0.73,1.82-1.41,3.18-1.93,3.61
					c-0.8,0.65-2.01,0.87-3.21,0.89c-1.88,0.02-3.72-0.44-3.94-0.49c-0.01,0-0.01,0-0.02-0.01l-4.25-5.81c0,0,0.09-2.56,0.25-6.56
					c0.12-2.99,0.28-6.78,0.48-10.89c0.06-1.24,0.12-2.5,0.19-3.79c0.64-12.39,1.54-26.3,2.56-30.05
					c1.87-6.88,5.81-15.67,6.12-16.34c0-0.02,0-0.03,0.01-0.04L343.892,235.939z"/>
				<path style="fill:#FF9698;" d="M343.892,235.939c0,0-2.63,9.65-4.84,15.16c-0.73,1.82-1.41,3.18-1.93,3.61
					c-0.8,0.65-2.01,0.87-3.21,0.89l-7.96-12.87c0.12-2.99,0.28-6.78,0.48-10.89c0.06-1.24,0.12-2.5,0.19-3.79
					c2.54-1.23,4.69-2.31,4.69-2.31s2.06-39.26,3.99-44.08c0-0.02,0-0.03,0.01-0.04L343.892,235.939z"/>
			</g>
			<g>
				<polygon style="fill:#4D52A3;" points="404.082,327.419 396.702,327.069 360.932,325.399 356.102,325.179 321.242,323.549 
					331.312,290.519 399.702,300.329 				"/>
				<path style="fill:#2B3075;" d="M404.082,327.419l-7.38-0.35l-4.81-21.65c-40.65-0.39-60.58-14.9-60.58-14.9l68.39,9.81
					L404.082,327.419z"/>
				<polygon style="fill:#2B3075;" points="360.932,325.399 356.102,325.179 360.212,308.969 				"/>
			</g>
			<path style="fill:#9A2195;" d="M399.702,300.329c0,0-3.03,0.17-7.95,0.18c-13.64,0.03-41.85-1.07-60.44-9.99l8.77-27.84
				c0,0-1.56-26.73-2.91-47.74c-0.85-13.18-1.61-24.11-1.86-24.81c-0.65-1.8,0-8.51,0-8.51l9.81-6.36l8.12-5.26l21.42-0.26l7.6,3.32
				l14.86,6.49l-1.35,26.65l-2.78,54.64L399.702,300.329z"/>
			<path style="fill:#760085;" d="M399.702,300.329c0,0-3.03,0.17-7.95,0.18l-6.63-31.48l4.46-6.35l-13.56,3.06l8.32-8.32
				l5.24-47.86l6.19-3.36l-2.78,54.64L399.702,300.329z"/>
			<path style="fill:#760085;" d="M353.482,244.582l-13.4,18.097c0,0-1.56-26.73-2.91-47.74l13.494,19.256L353.482,244.582z"/>
			<g>
				<path style="fill:#FF9698;" d="M433.795,162.002c0,0,0.484-3.581,1.548-3.774c1.065-0.194,3.677,4.645,3.677,4.645
					L433.795,162.002z"/>
				<path style="fill:#FFC2C3;" d="M434.862,178.069c0,0-1.84,0.19-2.81,0.09c-0.16-0.01-0.39-0.19-0.67-0.49
					c-1.45-1.53-4.17-6.09-4.17-6.09s-0.19-2.13,0.2-3.58c0.38-1.45,2.61-5.61,2.61-5.61l1.39,4.52L434.862,178.069z"/>
				<path style="fill:#FF9698;" d="M434.862,178.069c0,0-1.84,0.19-2.81,0.09c-0.16-0.01-0.39-0.19-0.67-0.49l0.78-1.09l-1.66-4.71
					l-1.35-1.58l1.26-0.55l1-2.83L434.862,178.069z"/>
				<path style="fill:#FFC2C3;" d="M433.502,240.199l-0.06,0.03c-0.76,0.38-8.06,3.95-11.55,2.48c-0.85-0.36-2.91-2.1-5.61-4.62
					c-8.98-8.38-24.98-25.27-26.33-27.51c-1.74-2.9-1.351-22.061,7.17-31.03c0,0,15.29,19.42,18.96,25.81
					c1.4,2.43,2.61,4.53,3.57,6.19c1.54,2.7,2.43,4.26,2.43,4.26l0.64,1.37l1.45,3.09L433.502,240.199z"/>
				<path style="fill:#FF9698;" d="M424.172,220.269l-5.93,11.36l1.41-20.08c1.54,2.7,2.43,4.26,2.43,4.26l0.64,1.37
					L424.172,220.269z"/>
				<path style="fill:#FFC2C3;" d="M448.792,173.029l-6,14.13c0,0-0.62,11.73-2.32,24.53c-1.45,10.92-3.67,22.63-6.97,28.51
					l-0.06,0.03c-0.64,0.32-5.86,2.87-9.59,2.83c-0.73-0.01-1.39-0.11-1.96-0.35c-0.85-0.36-2.91-2.1-5.61-4.62
					c1.85-6.12,4.13-13.55,6.44-20.91c4.55-14.53,9.21-28.79,10.98-32.15c1.25-2.38-3.68-22.64-3.68-22.64s4.64-1.55,5.81-1.36
					c1.16,0.2,9.09,4.07,9.09,4.07L448.792,173.029z"/>
				<path style="fill:#FF9698;" d="M440.472,211.689c-1.45,10.92-3.67,22.63-6.97,28.51l-0.06,0.03c-0.64,0.32-5.86,2.87-9.59,2.83
					c1.18-1.81,3.39-4.73,4.81-7.94c2.13-4.79,6.97-14.68,7.75-16.51C436.842,217.599,438.802,214.369,440.472,211.689z"/>
			</g>
			<g>
				<path style="fill:#151C5E;" d="M334.021,129.486c0.129,0.387,2.452,11.164,4.387,13.518c1.936,2.353,4,4.859,4,4.859
					l-1.29-20.57L334.021,129.486z"/>
				<path style="fill:#151C5E;" d="M383.292,143.479c-1.49,5.69-4.42,10.7-9.25,11.25h-0.03c-0.11,0.02-0.23,0.03-0.35,0.03
					c-0.15,0.02-0.31,0.03-0.47,0.03c-0.15,0-0.3,0-0.46-0.01l5.59-26.9l1.43-6.86c0,0,2.66,0.43,4.33,7.55
					C384.872,131.909,384.752,138.009,383.292,143.479z"/>
				<path style="fill:#151C5E;" d="M383.292,143.479c-1.49,5.69-4.42,10.7-9.25,11.25h-0.09c-0.1,0.01-0.19,0.02-0.29,0.03
					c-0.15,0.02-0.31,0.03-0.47,0.03c-0.15,0-0.3,0-0.46-0.01l5.59-26.9l1.41-0.59c0,0,1.19,6.2,1.8,7.87
					C381.792,135.879,383.042,139.519,383.292,143.479z"/>
				<path style="fill:#FFC2C3;" d="M361.412,204.776c-12,0.39-15.505-4.431-16.085-13.331c-0.4-6.1-1.085-11.926-0.205-16.186
					l8.12-5.26l21.42-0.26l7.6,3.32C379.938,193.743,373.132,204.406,361.412,204.776z"/>
				<polygon style="fill:#FFC2C3;" points="374.662,169.739 352.862,175.289 352.352,169.289 351.952,164.579 370.152,158.219 
					370.872,160.069 				"/>
				<path style="fill:#FF9698;" d="M370.872,160.069c-3.61,3.58-11.42,11.15-13.32,11.74c-1.26,0.39-3.39-0.82-5.2-2.52l-0.4-4.71
					l18.2-6.36L370.872,160.069z"/>
				<path style="fill:#FFC2C3;" d="M337.247,131.679c0,0,2.323,11.226,3.097,13.677s1.419,12.129,1.419,12.129
					s3.742,6.193,15.226,10.064c0,0,14.065-8.774,16.387-11.871c2.323-3.097,6.839-20.645,2.968-26.968
					c-3.871-6.323-9.935-10.839-17.677-10.194c-7.742,0.645-18.71,6.968-18.71,6.968L337.247,131.679z"/>
				<path style="fill:#FFC2C3;" d="M375.731,140.711c0,0,4.258-3.968,5.516-0.871c1.258,3.097-1.782,8.516-5.456,9.774
					L375.731,140.711z"/>
				<path style="fill:#292F78;" d="M374.085,134.808c0,0,0,6.484,0,7.742c0,1.258,0,5.129,0,5.129s1.148,0.776,1.687-0.87
					c0.539-1.646,1.938-7.529,1.938-7.529s3.537-15.117,1.698-19.569c-1.839-4.452-8.806-12.678-24.29-9.871
					c-15.484,2.806-28.064,8.323-34.258,6.097c0,0,5.29,16.29,16.387,15.742c0,0,18.935-5,24.355-4.419
					c5.419,0.581,10.452,4.355,10.452,4.355v4.452L374.085,134.808z"/>
				<path style="fill:#151C5E;" d="M379.735,127.292l-3.392,1.419c0,0-6.968-5.29-11.355-5.548
					c-4.387-0.258-24.166,7.613-24.532,7.703l0,0c5.64-1.391,17.119-4.038,21.145-3.606c5.419,0.581,10.452,4.355,10.452,4.355
					v4.452l2.032-1.258c0,0,0,6.484,0,7.742c0,1.258,0,5.129,0,5.129s1.148,0.776,1.687-0.87c0.539-1.646,1.938-7.529,1.938-7.529
					S379.187,132.962,379.735,127.292z"/>
				<path style="fill:#CB2371;" d="M352.602,160.066c0,0,5.032-0.645,7.355-3.161C359.956,156.905,359.892,164.26,352.602,160.066z"
					/>
				<path style="fill:#FF9698;" d="M352.287,153.454c-0.374,0-0.751-0.075-1.06-0.336c-0.344-0.292-0.523-0.746-0.549-1.385
					c-0.022-0.591,0.229-0.944,0.443-1.136c0.303-0.27,0.698-0.373,1.03-0.406l-0.21-1.506c-0.038-0.273,0.152-0.526,0.426-0.564
					c0.265-0.04,0.526,0.152,0.564,0.426l0.29,2.081c0.021,0.156-0.031,0.313-0.143,0.424c-0.113,0.111-0.271,0.163-0.427,0.139
					c-0.194-0.028-0.666-0.027-0.865,0.153c-0.032,0.029-0.118,0.106-0.108,0.35c0.013,0.33,0.082,0.564,0.196,0.661
					c0.154,0.131,0.503,0.107,0.791,0.071c0.257-0.035,0.523,0.159,0.558,0.434c0.034,0.274-0.16,0.524-0.435,0.558
					C352.626,153.439,352.457,153.454,352.287,153.454z"/>
				<path style="fill:#292F78;" d="M357.774,142.772c0.167,1.042-0.018,1.939-0.413,2.002c-0.396,0.064-0.852-0.73-1.02-1.772
					c-0.168-1.042,0.018-1.939,0.413-2.002C357.15,140.936,357.606,141.73,357.774,142.772z"/>
				<path style="fill:#292F78;" d="M347.344,144.021c0.168,1.042-0.018,1.939-0.413,2.002c-0.396,0.064-0.852-0.73-1.02-1.772
					c-0.168-1.042,0.018-1.939,0.413-2.002C346.72,142.186,347.177,142.979,347.344,144.021z"/>
				<path style="fill:#292F78;" d="M353.971,136.326c0,0,2.455-2.331,7.171-1.345c0,0-5.156,0.6-7.066,2.242L353.971,136.326z"/>
				<path style="fill:#292F78;" d="M347.681,137.276c0,0-3.071-1.424-7.225,1.015c0,0,5.077-1.078,7.412-0.132L347.681,137.276z"/>
			</g>
			<g>
				<polygon style="fill:#292F78;" points="319.892,237.486 350.666,234.195 317.569,186.969 286.795,190.26 				"/>
				<g>
					<path style="fill:#FF9698;" d="M292.021,199.26c0,0-2.71-4.355-4.161-5.419s-1.548-1.548-1.064-1.645
						c0.484-0.097,2.367-1.354,3.458-0.387c1.091,0.967,2.833,2.903,2.833,2.903L292.021,199.26z"/>
					<path style="fill:#FFC2C3;" d="M339.052,251.099c-0.73,1.82-1.41,3.18-1.93,3.61c-2.05,1.67-6.79,0.49-7.15,0.4
						c-0.01,0-0.01,0-0.02-0.01c0,0-21.09-17.81-31.93-41.23c0,0-5.23-6.58-5.61-7.74c-0.17-0.52-0.78-4.3-1.36-8.34v-0.01
						c-0.29-2.05-0.58-4.17-0.8-5.97c-0.31-2.55-0.49-4.46-0.36-4.65c0.39-0.58,5.03-2.9,5.81-3.09c0.77-0.2,8.13,0,9.09,0.58
						l3.26,3.34l-4.51,0.48c0,0-0.49,6.82-0.23,7.98c0.26,1.17,2.29,7.55,1.55,13.04c0,0,13.11,13.31,21.57,22.35
						c3.28,3.52,5.86,6.39,6.69,7.58C334.832,241.889,337.292,247.129,339.052,251.099z"/>
				</g>
				<path style="fill:#FF9698;" d="M304.862,209.489l-4.12,1.81c0.18-0.25,3.32-4.63,2.7-9.26c-0.41-3.04-0.13-5.59-0.13-5.59
					C303.572,197.619,305.602,203.999,304.862,209.489z"/>
			</g>
		</g>
	</g>
	<g>
		<g>
			<path style="fill:#292F69;" d="M253.006,232.167c-15.111,0-27.406-12.293-27.406-27.405c0-15.111,12.295-27.405,27.406-27.405
				s27.405,12.294,27.405,27.405C280.41,219.874,268.117,232.167,253.006,232.167z M253.006,185.811
				c-10.451,0-18.953,8.501-18.953,18.952c0,10.45,8.502,18.951,18.953,18.951c10.45,0,18.951-8.502,18.951-18.951
				C271.957,194.312,263.456,185.811,253.006,185.811z"/>
			<path style="fill:#FFCC57;" d="M273.1,223.396l-6.197-5.748c3.258-3.514,5.053-8.09,5.053-12.885
				c0-10.45-8.501-18.952-18.951-18.952v-8.453c15.111,0,27.405,12.294,27.405,27.405C280.41,211.697,277.814,218.314,273.1,223.396
				z"/>
			<g>
				<path style="fill:#4A51A2;" d="M251.957,201.056c0,0.748-0.228,1.391-0.685,1.928c-0.457,0.537-1.117,0.926-1.981,1.168v0.05
					c2.014,0.253,3.021,1.205,3.021,2.856c0,1.123-0.444,2.006-1.333,2.65c-0.889,0.644-2.123,0.966-3.702,0.966
					c-0.649,0-1.251-0.047-1.804-0.14c-0.553-0.094-1.152-0.264-1.796-0.512v-2.708c0.528,0.27,1.066,0.469,1.614,0.598
					c0.548,0.129,1.053,0.194,1.515,0.194c0.716,0,1.237-0.1,1.564-0.301c0.327-0.201,0.491-0.516,0.491-0.945
					c0-0.33-0.085-0.585-0.256-0.764c-0.171-0.179-0.446-0.314-0.826-0.404c-0.38-0.091-0.875-0.136-1.486-0.136h-0.743v-2.452h0.76
					c1.656,0,2.485-0.424,2.485-1.271c0-0.319-0.122-0.556-0.367-0.71c-0.245-0.154-0.574-0.231-0.987-0.231
					c-0.77,0-1.568,0.259-2.394,0.776l-1.354-2.179c0.638-0.44,1.292-0.754,1.961-0.941c0.669-0.187,1.435-0.281,2.299-0.281
					c1.249,0,2.229,0.248,2.939,0.743C251.602,199.504,251.957,200.187,251.957,201.056z"/>
				<path style="fill:#4A51A2;" d="M262.268,210.508h-8.759v-2.146l2.947-2.98c0.842-0.881,1.392-1.482,1.651-1.804
					c0.259-0.322,0.439-0.598,0.541-0.83c0.102-0.231,0.153-0.473,0.153-0.726c0-0.314-0.102-0.561-0.305-0.743
					c-0.204-0.182-0.49-0.272-0.859-0.272c-0.38,0-0.764,0.109-1.151,0.326c-0.388,0.217-0.827,0.538-1.317,0.962l-1.791-2.097
					c0.622-0.556,1.145-0.954,1.569-1.193c0.424-0.239,0.885-0.422,1.383-0.549c0.498-0.127,1.058-0.19,1.68-0.19
					c0.782,0,1.479,0.137,2.093,0.413c0.613,0.275,1.09,0.667,1.428,1.176c0.339,0.509,0.508,1.08,0.508,1.713
					c0,0.473-0.059,0.911-0.177,1.313c-0.118,0.402-0.301,0.797-0.549,1.185c-0.248,0.388-0.577,0.797-0.987,1.226
					c-0.41,0.429-1.284,1.244-2.621,2.444v0.083h4.565V210.508z"/>
			</g>
		</g>
		<g>
			<path style="fill:#292F69;" d="M253.006,302.572c-15.111,0-27.406-12.293-27.406-27.405s12.295-27.406,27.406-27.406
				s27.405,12.295,27.405,27.406S268.117,302.572,253.006,302.572z M253.006,256.214c-10.451,0-18.953,8.501-18.953,18.953
				c0,10.45,8.502,18.951,18.953,18.951c10.45,0,18.951-8.501,18.951-18.951C271.957,264.716,263.456,256.214,253.006,256.214z"/>
			<path style="fill:#FFCC57;" d="M253.006,302.572c-7.679,0-15.055-3.253-20.236-8.924l6.241-5.702
				c3.584,3.923,8.685,6.172,13.995,6.172c10.45,0,18.951-8.501,18.951-18.951c0-10.451-8.501-18.953-18.951-18.953v-8.453
				c15.111,0,27.405,12.295,27.405,27.406S268.117,302.572,253.006,302.572z"/>
			<g>
				<path style="fill:#4A51A2;" d="M243.677,276.306c0-1.684,0.241-3.047,0.722-4.09c0.482-1.043,1.191-1.812,2.13-2.307
					c0.939-0.495,2.096-0.743,3.471-0.743c0.49,0,1.062,0.047,1.717,0.14v2.551c-0.551-0.105-1.148-0.157-1.791-0.157
					c-1.09,0-1.902,0.239-2.435,0.718c-0.534,0.479-0.826,1.26-0.875,2.344h0.099c0.495-0.936,1.29-1.403,2.386-1.403
					c1.073,0,1.906,0.345,2.497,1.036c0.592,0.691,0.887,1.652,0.887,2.885c0,1.326-0.374,2.373-1.123,3.141
					c-0.748,0.768-1.794,1.152-3.137,1.152c-1.425,0-2.54-0.462-3.343-1.387C244.079,279.262,243.677,277.968,243.677,276.306z
					 M248.152,278.989c0.347,0,0.629-0.131,0.846-0.392c0.217-0.261,0.326-0.678,0.326-1.251c0-0.98-0.38-1.47-1.139-1.47
					c-0.374,0-0.678,0.127-0.912,0.38c-0.234,0.253-0.351,0.561-0.351,0.925c0,0.528,0.113,0.962,0.338,1.3
					C247.486,278.82,247.783,278.989,248.152,278.989z"/>
				<path style="fill:#4A51A2;" d="M254.731,281.408l4.144-9.353h-5.226v-2.699h8.709v1.923l-4.252,10.129H254.731z"/>
			</g>
		</g>
	</g>
	<g>
		<ellipse style="opacity:0.45;fill:#8898E5;" cx="186.182" cy="444.324" rx="138.799" ry="12.903"/>
		<g>
			<g>
				<path style="fill:#151C5E;" d="M197.433,214.84c0,0,6.387,6.516,1.806,14.71l-2.839-10.774L197.433,214.84z"/>
				<path style="fill:#FFC2C3;" d="M201.622,238.519c0,0-0.9,2.32-2.19,5.55c-1.29,3.22-5.03,8.51-5.68,8.51
					c-0.21,0-1.43-0.52-3-1.22c-2.88-1.28-6.91-3.15-7.97-3.49c-0.13-0.05-0.22-0.07-0.25-0.06c0,0-6.2-12.26-5.81-17.55
					c0.39-5.29,4.78-10.71,9.16-13.55c4.39-2.84,11.36,0.26,13.03,4.52c1.68,4.26-0.38,10.58-0.38,12.64
					C198.532,235.939,201.622,238.519,201.622,238.519z"/>
				<path style="fill:#FF9698;" d="M190.752,251.359c-2.88-1.28-6.91-3.15-7.97-3.49l-0.51-17.09l4.843-2.961
					c0,0,1.447,11.256,2.048,14.99C189.509,244.955,190.752,251.359,190.752,251.359z"/>
				<path style="fill:#292F78;" d="M196.339,231.702c-0.108,0.835-0.443,1.48-0.748,1.44c-0.305-0.039-0.464-0.748-0.356-1.583
					c0.108-0.835,0.443-1.48,0.747-1.44C196.288,230.158,196.447,230.867,196.339,231.702z"/>
				<path style="fill:#292F78;" d="M197.288,227.663c0,0-1.645-0.823-3.048,0.484c0,0,0.726-1.597,2.613-1.161L197.288,227.663z"/>
				<path style="fill:#CB2371;" d="M196.466,246.889c-0.036,0-0.073-0.004-0.11-0.012c-2.083-0.468-3.14-1.766-3.184-1.82
					c-0.172-0.216-0.137-0.53,0.078-0.703c0.215-0.172,0.529-0.138,0.702,0.077l0,0c0.009,0.011,0.899,1.083,2.624,1.471
					c0.269,0.061,0.438,0.328,0.378,0.598C196.901,246.731,196.694,246.889,196.466,246.889z"/>
				<g>
					<path style="fill:#292F78;" d="M163.912,219.129c-0.32,4.72-3.32,8.4-3.32,8.4c-6.91,10.78-5.55,23.63-4.13,39.63
						c1.4,15.76-10.04,33.72-10.37,34.25l-0.01,0.01c3.93-22.9-7.49-41.09-12.2-52.77c-4.71-11.68,0.07-28.26,10.07-36.78
						c10-8.51,19.75,4.13,19.75,4.13C163.932,217.069,163.982,218.119,163.912,219.129z"/>
					<path style="fill:#151C5E;" d="M160.592,227.529c-6.91,10.78-5.55,23.63-4.13,39.63c1.4,15.76-10.04,33.72-10.37,34.25
						c7.47-15.71,3.92-33.73,3.92-33.73s-4.93-19.06-5.42-24.58c-0.48-5.52,2.52-12.1,6.97-17.61c4.43-5.5,11.71-6.85,11.76-6.85
						c0,0,0.22,0.18,0.59,0.49C163.592,223.849,160.592,227.529,160.592,227.529z"/>
				</g>
				<g>
					<path style="fill:#292F78;" d="M196.912,222.839c-1.67,3.74-12.83,13.81-15.09,16.26c-1.02,1.1-3.52,3.02-5.96,4.8
						c-2.97,2.16-5.85,4.1-5.85,4.1s-6.19-7.16-7.61-16.51c-0.68-4.48-0.77-8.08-0.29-10.93c0.51-3.1,1.69-5.3,3.51-6.75
						c3.49-2.78,21.23-12.07,31.81,1.03C197.432,214.839,198.592,219.099,196.912,222.839z"/>
					<path style="fill:#151C5E;" d="M175.862,243.899c-2.97,2.16-5.85,4.1-5.85,4.1s-6.19-7.16-7.61-16.51
						c-0.68-4.48-0.77-8.08-0.29-10.93c0.87-1.78,3.32-4.56,3.32-4.56c0.45,0,7.23,8.33,7.23,8.33l0.96,11.61L175.862,243.899z"/>
					<path style="fill:#FFFFFF;" d="M163.7,216.002c0,0-0.687,7.032-3.106,11.527l2.064,0.731c0,0,2.774-8.387,2.774-12.258H163.7z"
						/>
				</g>
			</g>
			<g>
				<g>
					<path style="fill:#FFC2C3;" d="M75.742,420.569l-1.01,2.58l-0.2,0.53c0,0-0.07,0.11-0.2,0.32c-0.92,1.48-4.86,7.81-6.29,10.12
						c-0.15,0.25-0.28,0.45-0.37,0.59c-1.06,1.72-0.4,4.37-0.4,6.09c0,0.13,0.03,0.27,0.08,0.41c0.15,0.42,0.51,0.87,0.98,1.32
						c0.08,0.07,0.12,0.11,0.12,0.11c1.37,1.28,3.5,2.52,3.85,3.05c0.53,0.79-2.91,2.11-5.82,1.98c-2.91-0.13-7.01-0.4-7.67-3.57
						c-0.66-3.17,1.33-9.25,1.06-14.01c-0.26-4.76-3.3-13.88-3.44-15.07c-0.13-1.19,4.5-4.76,5.69-4.76s8.92,3.55,8.92,3.55
						L75.742,420.569z"/>
					<path style="fill:#FF9698;" d="M74.732,423.149l-0.2,0.53c0,0-0.07,0.11-0.2,0.32c-0.92,1.48-4.86,7.81-6.29,10.12
						c-0.15,0.25-0.28,0.45-0.37,0.59c-1.06,1.72-0.4,4.37-0.4,6.09c0,0.13,0.03,0.27,0.08,0.41c-0.49-0.8-1.01-1.94-1.27-3.4
						c-0.55-3.19,0.51-9.1,1.96-11.71c1.46-2.61,5.58-4.51,5.58-4.51L74.732,423.149z"/>
				</g>
				<g>
					<path style="fill:#4D52A3;" d="M196.272,369.679l-44.52,35.61c0,0-8.13,4.45-11.22,4.65c-3.1,0.19-66,13.74-66,13.74
						c-0.29-0.59-0.6-1.31-0.91-2.09c-1.31-3.34-2.58-7.78-2.58-7.78c12-1.55,39.29-17.03,42-17.61c2.71-0.58,23.04-2.91,23.04-2.91
						l35.43-41.4l1.25-1.46l0.09-0.1l0.04,0.03L196.272,369.679z"/>
					<path style="fill:#2B3075;" d="M196.272,369.679l-44.52,35.61c0,0-8.13,4.45-11.22,4.65c-3.1,0.19-66,13.74-66,13.74
						c-0.29-0.59-0.6-1.31-0.91-2.09c7.94-2.45,31.89-9.83,37.68-11.33c6.97-1.81,36.7-5.93,36.7-5.93l25.75-28.65
						c0,0-1.82-19.7-2.24-23.79c-0.04-0.42-0.07-0.67-0.08-0.73l1.33-0.73l0.13-0.07L196.272,369.679z"/>
				</g>
			</g>
			<g>
				<path style="fill:#FFCC57;" d="M206.912,313.939l5.04,33.48l-40.45-3.87c0,0,1.95-5.06,4.16-11.17
					c2.56-7.08,5.47-15.58,6.09-19.22c0,0-6.14-19.9-9.86-33.28c-0.5-1.76-0.94-3.4-1.33-4.87c-0.79-2.99-1.32-5.28-1.44-6.35
					l16.89-10.08c0,0,3.54,2.52,7.96,5.75c6.52,4.77,14.97,11.07,16.82,13.03c1.36,1.44,1.82,4.75,1.81,8.5
					c-0.01,4.79-0.78,10.31-1.43,13.56c-1.12,5.63-4.07,13.98-4.25,14.49L206.912,313.939z"/>
				<path style="fill:#EA9C2F;" d="M212.602,285.859c-0.01,4.79-0.78,10.31-1.43,13.56c-1.12,5.63-4.07,13.98-4.25,14.49l-0.01,0.03
					h-6.96l5.03-6.39l-14.12,7.94l-15.2,16.89c2.56-7.08,5.47-15.58,6.09-19.22c0,0-6.14-19.9-9.86-33.28
					c-0.5-1.76-0.94-3.4-1.33-4.87l23.41-10.68c0,0,2.69,21.35-0.41,26c-3.1,4.64-2.7,9.29-2.7,9.29l15.86-6L212.602,285.859z"/>
			</g>
			<g>
				<g>
					<path style="fill:#4D52A3;" d="M278.332,428.329c0,0-7.16,1.16-12,0.58c0,0-2.12-24.2-2.9-27.1c-0.1-0.38-0.27-1.05-0.49-1.94
						c-1.42-5.81-4.93-20.71-4.93-20.71l-0.77-10.64c0,0-36.81,4.03-53.29,4.27c-2.65,0.04-4.77-0.02-6.13-0.21
						c-9.87-1.35-23.23-6.19-27.1-16.45c0,0-2.13-7.74,0.78-12.58c0,0,38.71,2.32,56.9,4.45s38.9,6.78,41.22,8.13
						c2.33,1.36,5.62,8.52,5.62,8.52S277.952,416.129,278.332,428.329z"/>
					<path style="fill:#2B3075;" d="M263.562,392.709l-0.62,7.16c-1.42-5.81-4.93-20.71-4.93-20.71l-0.77-10.64
						c0,0-36.81,4.03-53.29,4.27c1.04-0.02,58.06-9.5,58.06-9.5L263.562,392.709z"/>
				</g>
				<g>
					<path style="fill:#FFC2C3;" d="M313.052,442.189c-0.38,0.29-0.81,0.52-1.23,0.65c-1.55,0.49-12.97,0.58-18.1,0.49
						c-5.13-0.1-18.87,2.12-21.19,1.64c-2.14-0.44-6.77-4.53-7.61-5.45c-0.07-0.08-0.12-0.13-0.13-0.16
						c-0.2-0.39,1.16-6.49,1.54-10.45c0,0,8.71-2.04,12-0.58l6.58,5.32c0,0,13.26,3.77,16.46,5.22c3.19,1.46,13.16,0.87,13.35,1.26
						C314.862,440.409,314.082,441.459,313.052,442.189z"/>
					<path style="fill:#FF9698;" d="M313.052,442.189c-0.38,0.29-0.81,0.52-1.23,0.65c-1.55,0.49-12.97,0.58-18.1,0.49
						c-5.13-0.1-18.87,2.12-21.19,1.64c-2.14-0.44-6.77-4.53-7.61-5.45c1.58-0.12,4.87,0.05,6.74,0.9c2.32,1.07,5.32,1.94,8.03,1.65
						c2.71-0.29,6.29-1.07,10.06-0.49c3.78,0.58,20.33,0.49,20.33,0.49L313.052,442.189z"/>
				</g>
			</g>
			<g>
				<path style="fill:#FFC2C3;" d="M186.662,285.739c-6.13,2.64-11.37-0.64-14.77-5.86c-1.49-5.32-2.59-9.62-2.77-11.22l16.89-10.08
					c0,0,3.54,2.52,7.96,5.75C194.342,270.769,193.962,282.599,186.662,285.739z"/>
				<g>
					<path style="fill:#FFC2C3;" d="M188.562,258.679c0,0-2,14-8,16s-11,2-12-10c-1-12,8-52,7-53s0-36,1-43
						c0,0-3.323-5.71-3.71-8.419c-0.387-2.71-0.774-6.387-0.774-6.387l2.323-3.29v-6.387l3.484-2.903c0,0,6.387,3.29,7.548,4.645
						c1.161,1.355,0.581,11.806,0.581,13.355s-2.323,9.097-2.323,9.097s3.097,31.161,1.936,42.581
						C185.626,210.969,188.981,244.647,188.562,258.679z"/>
					<path style="fill:#FF9698;" d="M185.574,266.688c0.124-0.326-4.102,3.484-7.18,4.936c-3.078,1.452-4.336,1.366-4.336,1.366
						S182.187,275.591,185.574,266.688z"/>
					<polygon style="fill:#FF9698;" points="175.078,159.147 174.4,150.582 173.64,151.66 					"/>
				</g>
			</g>
		</g>
	</g>
	<g>
		<rect x="421.848" y="107.077" style="fill:#292F69;" width="28.966" height="4.64"/>
		<rect x="421.848" y="124.372" style="fill:#292F69;" width="28.966" height="4.64"/>
		<path style="fill:#FFCC57;" d="M404.871,131.801c-0.32,0-0.64-0.122-0.884-0.366l-3.895-3.895c-0.488-0.488-0.488-1.279,0-1.768
			c0.488-0.488,1.279-0.488,1.768,0l3.012,3.011l6.833-6.834c0.488-0.488,1.279-0.488,1.768,0c0.488,0.488,0.488,1.279,0,1.768
			l-7.717,7.717C405.511,131.679,405.192,131.801,404.871,131.801z"/>
		<rect x="421.848" y="139.431" style="fill:#292F69;" width="28.966" height="4.64"/>
		<path style="fill:#FFCC57;" d="M404.871,146.859c-0.32,0-0.64-0.122-0.884-0.366l-3.895-3.895c-0.488-0.488-0.488-1.279,0-1.768
			c0.488-0.488,1.279-0.488,1.768,0l3.012,3.011l6.833-6.833c0.488-0.488,1.279-0.488,1.768,0c0.488,0.488,0.488,1.279,0,1.768
			l-7.717,7.717C405.511,146.737,405.192,146.859,404.871,146.859z"/>
		<path style="fill:#4A51A2;" d="M406.492,115.164c-3.18,0-5.767-2.587-5.767-5.767c0-3.18,2.587-5.767,5.767-5.767
			s5.767,2.587,5.767,5.767C412.258,112.577,409.671,115.164,406.492,115.164z M406.492,106.131c-1.801,0-3.267,1.465-3.267,3.267
			c0,1.801,1.466,3.267,3.267,3.267c1.801,0,3.267-1.465,3.267-3.267C409.758,107.596,408.293,106.131,406.492,106.131z"/>
	</g>
	<g>
		<rect x="90.152" y="133.659" style="fill:#292F69;" width="10.45" height="4.64"/>
		<rect x="106.412" y="133.659" style="fill:#292F69;" width="39.61" height="4.64"/>
		<rect x="90.15" y="143.421" style="fill:#292F69;" width="55.871" height="4.645"/>
		<rect x="90.152" y="153.189" style="fill:#292F69;" width="27.93" height="4.64"/>
		<rect x="121.372" y="153.189" style="fill:#292F69;" width="17.16" height="4.64"/>
		<rect x="90.15" y="162.949" style="fill:#292F69;" width="55.871" height="4.645"/>
		<rect x="90.15" y="172.712" style="fill:#292F69;" width="32.516" height="4.645"/>
	</g>
	<g>
		<path style="fill:#E0E4F7;" d="M306.16,135.051c8.21-7.294,13.145-16.654,13.145-26.862c0-23.286-25.676-42.163-57.35-42.163
			c-31.673,0-57.35,18.877-57.35,42.163s25.676,42.163,57.35,42.163c12.757,0,24.537-3.066,34.063-8.245
			c7.118,3.741,20.448,10.986,20.448,10.986L306.16,135.051z"/>
		<path style="fill:#FFFFFF;" d="M298.811,127.702c8.21-7.294,13.145-16.654,13.145-26.862c0-23.286-25.676-42.163-57.35-42.163
			c-31.673,0-57.35,18.877-57.35,42.163s25.676,42.163,57.35,42.163c12.757,0,24.537-3.066,34.063-8.245
			c7.118,3.741,20.448,10.986,20.448,10.986L298.811,127.702z"/>
		<path style="fill:#414898;" d="M307.096,147.023l-1.546-0.84c-0.131-0.072-13.115-7.127-20.206-10.858
			c-9.944,5.351-21.718,8.179-34.065,8.179c-31.898,0-57.85-19.139-57.85-42.663s25.951-42.663,57.85-42.663
			c31.898,0,57.85,19.139,57.85,42.663c0,9.819-4.617,19.38-13.011,26.965L307.096,147.023z M285.337,134.191l0.236,0.124
			c5.611,2.948,15.186,8.131,18.91,10.151l-9.637-16.869l0.304-0.27c8.369-7.435,12.977-16.841,12.977-26.488
			c0-22.973-25.503-41.663-56.85-41.663c-31.347,0-56.85,18.69-56.85,41.663c0,22.973,25.502,41.663,56.85,41.663
			c12.279,0,23.976-2.83,33.823-8.185L285.337,134.191z"/>
		<g>
			<rect x="256.573" y="85.601" style="fill:#292F69;" width="37.935" height="4.645"/>
			<rect x="256.573" y="94.713" style="fill:#292F69;" width="32.932" height="4.645"/>
			<rect x="256.573" y="103.825" style="fill:#292F69;" width="37.935" height="4.645"/>
			<rect x="256.573" y="112.937" style="fill:#292F69;" width="26.932" height="4.645"/>
		</g>
		<g>
			<polygon style="fill:#EA9C2F;" points="238.532,104.539 240.472,115.839 230.322,110.499 220.172,115.839 220.462,114.129 
				222.112,104.539 213.902,96.539 225.252,94.889 230.322,84.609 235.392,94.889 236.342,95.029 246.742,96.539 			"/>
			<polygon style="fill:#FFCC57;" points="220.462,114.129 222.112,104.539 213.902,96.539 225.252,94.889 230.322,84.609 
				235.392,94.889 236.342,95.029 			"/>
		</g>
	</g>
	<g>
		<g>
			<path style="fill:#FFCC57;" d="M392.164,382.84c0-0.774-0.581-10.452-6.968-17.032c-6.387-6.581-12.831-18.196-7.48-22.259
				c5.351-4.064,7.674,2.517,9.415-2.128c1.742-4.645-8.945-15.605-8.516-24.242c0.429-8.637,8.84-6.339,10.711-13.887
				c1.87-7.548-4.323-18.968,2.838-22.839c7.161-3.871,14.323,3.097,12.968,14.71c-1.355,11.613-4.893,15.097,0.166,17.032
				c5.06,1.936,11.64-1.161,10.285,8.129c-1.355,9.29-5.226,21.29-1.548,25.935c3.678,4.645-3.484,36.581-3.484,36.581H392.164z"/>
			<path style="fill:#FFE29E;" d="M412.542,338.659c-1.46,5.24-9.42,12.29-11.89,14.37c-0.45-5.07-0.99-9.72-1.59-12.93
				c-0.53-2.8-0.87-7.07-1.09-11.79c0.74-0.47,6.46-4.24,9.17-9.56c0.12-0.25,0.02-0.55-0.22-0.68c-0.25-0.12-0.55-0.02-0.67,0.22
				c-2.23,4.38-6.76,7.76-8.34,8.85c-0.51-12.18-0.27-26.73-0.26-26.93c0-0.28-0.22-0.51-0.5-0.51c-0.27,0.02-0.5,0.21-0.5,0.49
				c-0.01,0.22-0.29,17.41,0.42,30.12c-5.28-3.11-8.35-8.99-8.38-9.05c-0.13-0.25-0.43-0.34-0.68-0.22
				c-0.24,0.13-0.34,0.43-0.21,0.67c0.14,0.28,3.45,6.63,9.34,9.79c0.22,3.5,0.52,6.59,0.93,8.79c1.1,5.84,2.02,16.47,2.48,25.71
				c-2.37-1.46-9.55-6.16-12.78-11.48c-0.15-0.24-0.46-0.31-0.69-0.17c-0.24,0.14-0.31,0.45-0.17,0.69
				c3.73,6.14,12.17,11.27,13.69,12.16c0.31,6.73,0.37,12.56,0.05,15c-0.04,0.27,0.16,0.52,0.43,0.56c0.02,0,0.05,0,0.07,0
				c0.24,0,0.46-0.18,0.49-0.43c0.52-3.97,0.06-16.85-0.88-28.08c1.38-1.13,8.78-7.33,11.76-12.94L412.542,338.659z"/>
		</g>
		<g>
			<path style="fill:#A3AFE6;" d="M429.581,383.679h-19.03c0,0-9.18-13.68-8.37-21.68c0.82-8,1.85-4.13,6.24-8.26
				c4.39-4.12,2.06-9.29-0.52-16.77c-2.58-7.48-2.06-14.19,4.91-22.19s-1.55-18.93,3.35-31.66c4.91-12.73,17.72-22.79,20.22-8.09
				c2.49,14.71-9.37,27.86-3.18,39.09c6.19,11.24,0.77,16.66-0.01,25.17c-0.77,8.52,4.39,6.97,9.29,12.91
				C447.391,358.129,429.581,383.679,429.581,383.679z"/>
			<path style="fill:#7076BD;" d="M435.861,355.079c-4.84,6.27-12.15,9.49-13.67,10.11c-0.15,2.11-0.3,4.13-0.45,6.05
				c0,0.01,0,0.01,0,0.02c-0.42,5.32-0.82,9.76-1.06,12.42h-1.01c0.24-2.58,0.63-6.9,1.04-12.1c-6.01-2.43-9.55-10.2-9.7-10.53
				c-0.11-0.26,0-0.55,0.25-0.66c0.25-0.12,0.55-0.01,0.66,0.25c0.04,0.07,3.41,7.46,8.87,9.89c0.79-10.19,1.63-23.39,1.63-33.46
				c-0.71-0.4-6.76-3.99-9.74-11.17c-0.1-0.25,0.02-0.54,0.27-0.65c0.26-0.11,0.55,0.02,0.66,0.27c2.44,5.89,7.19,9.33,8.8,10.37
				c-0.01-2.13-0.07-4.11-0.17-5.86c-1.07-17.28,3.53-42.83,3.57-43.09c0.05-0.27,0.32-0.44,0.59-0.4c0.27,0.05,0.45,0.31,0.4,0.58
				c-0.05,0.26-4.62,25.69-3.57,42.85c0.05,0.68,0.08,1.41,0.11,2.15c1.91-2.1,6.6-7.5,7.38-10.75c0.07-0.27,0.34-0.43,0.61-0.37
				c0.27,0.07,0.43,0.34,0.37,0.6c-0.99,4.06-7.27,10.84-8.32,11.95c0.2,8.5-0.4,20.26-1.11,30.52c2.13-0.94,8.55-4.1,12.8-9.6
				c0.17-0.22,0.49-0.26,0.7-0.09C435.991,354.549,436.031,354.859,435.861,355.079z"/>
		</g>
		<g>
			<polygon style="fill:#414898;" points="437.231,380.029 429.341,401.619 392.481,401.619 384.591,380.029 			"/>
			<path style="fill:#292F78;" d="M435.971,380.909l-7.71,20.71h-15.23c1.01-4.42,3.21-14.23,3.21-14.23l-12.09-6.48H435.971z"/>
		</g>
	</g>
</g>
</svg>
